<svg xmlns="http://www.w3.org/2000/svg" xmlns:xlink="http://www.w3.org/1999/xlink" width="49.235" height="49.261" viewBox="0 0 49.235 49.261"><defs><clipPath id="a"><rect width="49.235" height="49.261" fill="none"/></clipPath></defs><g clip-path="url(#a)"><g transform="translate(-0.133)"><g transform="translate(24.751 7.898)"><path d="M268.442,103.673c5.334-5.334,12.309-8.411,12.309-14.976a6.468,6.468,0,0,0-12.309-2.872A6.468,6.468,0,0,0,256.133,88.7C256.133,95.365,263.416,98.442,268.442,103.673Z" transform="translate(-256.133 -82.133)" fill="#66c6b9"/><path d="M365.283,297.416a3.163,3.163,0,0,1-4.616,0c.513-.615,1.436-1.128,1.436-1.949h1.641C363.744,296.288,364.77,296.7,365.283,297.416Z" transform="translate(-350.615 -274.952)" fill="#66c6b9"/></g><path d="M458.058,113.03c.718.821,1.026,1.846.615,2.154s-1.333,0-2.051-.923c-.718-.821-1.026-1.846-.615-2.154C456.314,111.8,457.237,112.209,458.058,113.03Z" transform="translate(-411.869 -101.234)" fill="#fff"/><g transform="translate(34.905 28.413)"><path d="M373.59,296.082h-1.949a.308.308,0,0,1,0-.615h1.949a.272.272,0,0,1,.308.308A.328.328,0,0,1,373.59,296.082Z" transform="translate(-370.41 -295.467)" fill="#415a6b"/><path d="M362.041,298.567c-.1,0-.308-.1-.308-.205a.533.533,0,0,1,.205-.41c.308-.1.513-.205.513-.718a2.439,2.439,0,0,1,.923-1.333.3.3,0,1,1,.308.513,1.256,1.256,0,0,0-.615.923c0,.718-.308,1.026-1.026,1.231Z" transform="translate(-361.733 -295.797)" fill="#415a6b"/><path d="M384.079,304.472a11.026,11.026,0,0,1-1.026-6.77v-.1h-.615a10.994,10.994,0,0,0,1.128,7.18c1.641,2.975-.821,8.308-.821,8.411-.1.205,0,.308.1.41h.1c.1,0,.205-.1.308-.205C383.361,313.191,385.925,307.755,384.079,304.472Z" transform="translate(-380.284 -297.395)" fill="#415a6b"/></g><g transform="translate(0.133)"><path d="M13.057,22.566C18.7,16.925,25.982,13.745,25.982,6.872A6.852,6.852,0,0,0,19.212,0,6.552,6.552,0,0,0,13.16,3.9,7.077,7.077,0,0,0,6.9,0,6.852,6.852,0,0,0,.133,6.872C.133,13.847,7.826,17.027,13.057,22.566Z" transform="translate(-0.133)" fill="#f3705a"/><path d="M113.755,224.985a3.4,3.4,0,0,1-4.821,0c.513-.718,1.539-1.128,1.539-2.051h1.744C112.216,223.755,113.242,224.267,113.755,224.985Z" transform="translate(-98.471 -201.496)" fill="#f3705a"/></g><path d="M211.559,31.428c.821.923,1.026,1.949.615,2.257-.41.41-1.436,0-2.154-.923-.821-.923-1.026-1.949-.615-2.257C209.815,30.095,210.738,30.505,211.559,31.428Z" transform="translate(-188.962 -27.428)" fill="#fff"/><g transform="translate(10.801 21.438)"><path d="M123.026,223.548h-2.051a.308.308,0,1,1,0-.615h2.051a.272.272,0,0,1,.308.308C123.436,223.343,123.231,223.548,123.026,223.548Z" transform="translate(-119.744 -222.933)" fill="#415a6b"/><path d="M111.375,226.136c-.1,0-.308-.1-.308-.205a.533.533,0,0,1,.205-.41.773.773,0,0,0,.615-.718,2.837,2.837,0,0,1,.923-1.436.3.3,0,1,1,.308.513,1.719,1.719,0,0,0-.718.923,1.176,1.176,0,0,1-1.026,1.333Z" transform="translate(-111.067 -223.264)" fill="#415a6b"/><path d="M134.479,232.246a11.173,11.173,0,0,1-1.026-7.078v-.1h-.615a11.9,11.9,0,0,0,1.128,7.488c1.744,3.077-.821,8.719-.923,8.821-.1.205,0,.41.205.41h.1c.1,0,.205-.1.308-.205S136.428,235.631,134.479,232.246Z" transform="translate(-130.581 -224.861)" fill="#415a6b"/></g><g transform="translate(13.057 17.745)"><path d="M146.226,204.843c5.129-5.026,11.693-8,11.693-14.155a6.15,6.15,0,0,0-11.693-2.667,6.15,6.15,0,0,0-11.693,2.667C134.533,196.944,141.508,199.817,146.226,204.843Z" transform="translate(-134.533 -184.533)" fill="#ffd15c"/><path d="M238.041,385.846a2.975,2.975,0,0,1-4.308,0c.513-.615,1.436-1.026,1.436-1.846h1.539C236.708,384.821,237.631,385.231,238.041,385.846Z" transform="translate(-224.194 -364.819)" fill="#ffd15c"/></g><path d="M326.113,211.987c.718.821.923,1.744.615,2.051s-1.231,0-1.949-.821-.923-1.744-.615-2.051S325.4,211.167,326.113,211.987Z" transform="translate(-292.746 -190.755)" fill="#fff"/><g transform="translate(22.699 36.926)"><path d="M246.554,384.615h-1.846a.308.308,0,0,1,0-.615h1.846a.272.272,0,0,1,.308.308Q246.708,384.615,246.554,384.615Z" transform="translate(-243.477 -384)" fill="#415a6b"/><path d="M235.108,387.961c-.1,0-.308-.1-.308-.205a.533.533,0,0,1,.205-.41c.308-.1.513-.205.513-.615a2.147,2.147,0,0,1,.821-1.231.3.3,0,1,1,.308.513,1.274,1.274,0,0,0-.615.821,1.034,1.034,0,0,1-.923,1.128Z" transform="translate(-234.8 -385.294)" fill="#415a6b"/><path d="M255.894,399c0,.308.615.308.615,0,.41-1.744.615-3.8-.308-5.334a10.188,10.188,0,0,1-.923-6.36v-.1h-.615a10.912,10.912,0,0,0,1.026,6.77C256.509,395.406,256.3,397.355,255.894,399Z" transform="translate(-252.611 -386.892)" fill="#415a6b"/></g></g></g></svg>