<svg xmlns="http://www.w3.org/2000/svg" width="42.187" height="42.469" viewBox="0 0 42.187 42.469"><g transform="translate(-1.491)"><path d="M243.066,194.472a4.55,4.55,0,0,0-6.03-2.247,32.662,32.662,0,0,1-13.276,2.639h-.025v9.1h.025a41.34,41.34,0,0,0,17.059-3.462A4.551,4.551,0,0,0,243.066,194.472Z" transform="translate(-201.176 -173.629)" fill="#9b6534"/><path d="M16.405,194.472a4.55,4.55,0,0,1,6.03-2.247,32.663,32.663,0,0,0,13.276,2.639h.025v9.1h-.025A41.34,41.34,0,0,1,18.652,200.5,4.551,4.551,0,0,1,16.405,194.472Z" transform="translate(-13.127 -173.629)" fill="#aa7135"/><circle cx="3.034" cy="3.034" r="3.034" transform="translate(34.722 19.718)" fill="#b9a086"/><circle cx="10.617" cy="10.617" r="10.617" transform="translate(11.97 18.201)" fill="#aa7135"/><ellipse cx="5.926" cy="7.584" rx="5.926" ry="7.584" transform="translate(16.662 21.235)" fill="#d5b99b"/><path d="M151.579,192a10.58,10.58,0,0,0-7.585,3.194L159,210.2a10.612,10.612,0,0,0-7.423-18.2Z" transform="translate(-128.994 -173.801)" fill="#a26b34"/><path d="M179,224a5.6,5.6,0,0,0-4.713,3.032l9.3,9.3a8.878,8.878,0,0,0,1.339-4.748C184.925,227.4,182.272,224,179,224Z" transform="translate(-156.414 -202.767)" fill="#b9a086"/><g transform="translate(7.417)"><circle cx="6.067" cy="6.067" r="6.067" transform="translate(18.204)" fill="#aa7135"/><circle cx="6.067" cy="6.067" r="6.067" transform="translate(0)" fill="#aa7135"/></g><g transform="translate(10.451 3.034)"><circle cx="3.034" cy="3.034" r="3.034" fill="#d5b99b"/><circle cx="3.034" cy="3.034" r="3.034" transform="translate(18.204)" fill="#d5b99b"/></g><circle cx="11.376" cy="11.376" r="11.376" transform="translate(11.212 1.517)" fill="#aa7135"/><g transform="translate(16.518 9.101)"><circle cx="1.517" cy="1.517" r="1.517" transform="translate(0)" fill="#231f20"/><circle cx="1.517" cy="1.517" r="1.517" transform="translate(9.104)" fill="#231f20"/></g><circle cx="6.067" cy="6.067" r="6.067" transform="translate(16.521 10.617)" fill="#d5b99b"/><circle cx="1.517" cy="1.517" r="1.517" transform="translate(21.071 13.651)" fill="#231f20"/><circle cx="3.034" cy="3.034" r="3.034" transform="translate(4.384 19.718)" fill="#d5b99b"/><path d="M228.351,240.106a1.011,1.011,0,0,1,1.453.909v3.549a1.011,1.011,0,0,1-1.453.909l-4.614-1.653v-2.042Z" transform="translate(-201.178 -217.251)" fill="#d64231"/><path d="M229.278,257.607l-4.16-4.16-1.381.5v2.042l4.614,1.653A.993.993,0,0,0,229.278,257.607Z" transform="translate(-201.177 -229.421)" fill="#b22f28"/><path d="M165.836,240.766a2,2,0,0,0-1.345.535l-3.3-1.2a1.011,1.011,0,0,0-1.453.909v3.549a1.011,1.011,0,0,0,1.453.909l3.315-1.188a2,2,0,0,0,1.332.526,2.022,2.022,0,1,0,0-4.045Z" transform="translate(-143.244 -217.25)" fill="#d64231"/><path d="M12.515,315.869l-2.005,1.286c-2.283-2.027-5.3-2.514-7.282-.976-2.315,1.8-2.316,5.671,0,8.647a7.423,7.423,0,0,0,5.708,3.031,4.662,4.662,0,0,0,2.265-.626l6.366-3.82C20.342,321.766,15.554,314.024,12.515,315.869Z" transform="translate(0 -285.387)" fill="#aa7135"/><path d="M10.1,334.346c-2.094-2.693-5.354-3.707-7.673-2.547-1.274,2.007-.975,5.082.948,7.556,2.094,2.693,5.355,3.707,7.673,2.547C12.324,339.895,12.024,336.82,10.1,334.346Z" transform="translate(-0.152 -299.917)" fill="#d5b99b"/><path d="M274.028,315.869l2.005,1.286c2.283-2.027,5.3-2.514,7.282-.976,2.315,1.8,2.316,5.671,0,8.647a7.423,7.423,0,0,1-5.708,3.031,4.662,4.662,0,0,1-2.265-.626l-6.366-3.82C266.2,321.766,270.988,314.024,274.028,315.869Z" transform="translate(-241.374 -285.387)" fill="#9b6534"/><path d="M340.869,334.346c2.094-2.693,5.354-3.707,7.673-2.547,1.274,2.007.975,5.082-.948,7.556-2.094,2.693-5.355,3.707-7.673,2.547C338.647,339.895,338.946,336.82,340.869,334.346Z" transform="translate(-305.65 -299.917)" fill="#b9a086"/></g></svg>