<?xml version="1.0" encoding="iso-8859-1"?>
<!-- Uploaded to: SVG Repo, www.svgrepo.com, Generator: SVG Repo Mixer Tools -->
<svg height="800px" width="800px" version="1.1" id="Layer_1" xmlns="http://www.w3.org/2000/svg" xmlns:xlink="http://www.w3.org/1999/xlink" 
	 viewBox="0 0 512.213 512.213" xml:space="preserve">
<g transform="translate(1 1)">
	<path style="fill:#FFDD09;" d="M308.91,424.433c0-2.603,0-5.207,0-8.678V294.264l0,0c6.942-9.546,7.81-24.298,4.339-35.58
		c-1.736-5.207-1.736-11.281,0-16.488c2.603-8.678,2.603-19.092,0-27.77c-1.736-5.207-1.736-11.281,0-16.488
		c2.603-8.678,2.603-19.092,0-27.77c-1.736-5.207-1.736-11.281,0-16.488c4.339-11.281,2.603-26.034-4.339-35.58
		c-0.868-40.786-21.695-74.631-49.464-83.308l0,0v-8.678c0-8.678-4.339-17.356-10.414-18.224
		c-7.81-1.736-13.885,6.942-13.885,17.356v10.414c-27.769,7.81-48.597,42.522-49.464,83.308c-6.942,10.414-7.81,25.166-3.471,37.315
		c1.736,4.339,1.736,9.546,0,13.017c-3.471,9.546-3.471,20.827,0,30.373c1.736,4.339,1.736,9.546,0,13.017
		c-3.471,9.546-3.471,20.827,0,30.373c1.736,4.339,1.736,9.546,0,13.017c-4.339,13.017-3.471,27.769,3.471,38.183v121.492
		c0,2.603,0,5.207,0,8.678c-11.281,8.678-19.092,19.092-19.092,30.373c0,26.034,35.58,47.729,79.837,47.729
		s79.837-21.695,79.837-47.729C327.134,443.525,320.191,432.244,308.91,424.433"/>
	<path style="fill:#FFFFFF;" d="M167.459,454.806c0-11.281,6.942-22.563,19.092-30.373c0-2.603,0-5.207,0-8.678V294.264
		c-6.942-10.414-7.81-25.166-3.471-37.315c1.736-4.339,1.736-9.546,0-13.017c-3.471-9.546-3.471-20.827,0-30.373
		c1.736-4.339,1.736-9.546,0-13.017c-3.471-9.546-3.471-20.827,0-30.373c1.736-4.339,1.736-9.546,0-13.017
		c-5.207-13.017-4.339-27.77,2.603-38.183c0.868-40.786,21.695-75.498,49.464-83.308V25.247c0-8.678,5.207-16.488,11.281-17.356
		c-8.678,0.868-16.488,7.81-16.488,17.356v10.414c-39.051,7.81-68.556,42.522-69.424,83.308
		c-9.546,10.414-11.281,25.166-4.339,37.315c2.603,4.339,2.603,9.546,0,13.017c-5.207,9.546-5.207,20.827,0,30.373
		c2.603,4.339,2.603,9.546,0,13.017c-5.207,9.546-5.207,20.827,0,30.373c2.603,4.339,2.603,9.546,0,13.017
		c-6.942,13.017-6.075,27.769,4.339,38.183v121.492c0,2.603,0,5.207,0,8.678c-16.488,8.678-26.034,19.092-26.034,30.373
		c0,26.034,50.332,47.729,112.814,47.729C203.039,502.535,167.459,480.84,167.459,454.806"/>
	<path style="fill:#FD9808;" d="M332.34,424.433c0-2.603,0-5.207,0-8.678V294.264l0,0c9.546-9.546,11.281-24.298,6.075-35.58
		c-2.603-5.207-2.603-11.281,0-16.488c4.339-8.678,4.339-19.092,0-27.77c-2.603-5.207-2.603-11.281,0-16.488
		c4.339-8.678,4.339-19.092,0-27.77c-2.603-5.207-2.603-11.281,0-16.488c6.075-11.281,3.471-26.034-6.075-35.58
		c-0.868-40.786-30.373-74.631-69.424-83.308l0,0v-8.678c0-8.678-6.075-17.356-14.753-18.224c-0.868,0-1.736,0-2.603,0
		c0.868,0,0.868,0,1.736,0c6.075,0.868,10.414,9.546,10.414,18.224v8.678l0,0c27.77,7.81,48.597,42.522,49.464,83.308
		c6.942,9.546,8.678,24.298,4.339,35.58c-1.736,5.207-1.736,11.281,0,16.488c2.603,8.678,2.603,19.092,0,27.77
		c-1.736,5.207-1.736,11.281,0,16.488c2.603,8.678,2.603,19.092,0,27.77c-1.736,5.207-1.736,11.281,0,16.488
		c4.339,11.281,2.603,26.034-4.339,35.58l0,0v121.492c0,2.603,0,5.207,0,8.678c12.149,8.678,19.092,19.092,19.092,30.373
		c0,26.034-35.58,47.729-79.837,47.729c62.481,0,112.814-21.695,112.814-47.729C358.374,443.525,347.961,432.244,332.34,424.433"/>
	<path style="fill:#FFDD09;" d="M360.11,424.433c0-2.603,0-5.207,0-8.678V294.264l0,0c9.546-9.546,11.281-24.298,6.075-35.58
		c-2.603-5.207-2.603-11.281,0-16.488c4.339-8.678,4.339-19.092,0-27.77c-2.603-5.207-2.603-11.281,0-16.488
		c4.339-8.678,4.339-19.092,0-27.77c-2.603-5.207-2.603-11.281,0-16.488c6.075-11.281,3.471-26.034-6.075-35.58
		c-0.868-40.786-30.373-74.631-69.424-83.308l0,0v-8.678c0-9.546-0.868-16.488-14.753-18.224c-0.868,0-1.736,0-2.603,0
		c0.868,0-18.224,0-17.356,0c6.075,0.868,8.678,9.546,8.678,18.224v8.678l0,0c27.769,7.81,69.424,42.522,70.292,83.308
		c6.942,9.546,8.678,24.298,4.339,35.58c-1.736,5.207-1.736,11.281,0,16.488c2.603,8.678,2.603,19.092,0,27.77
		c-1.736,5.207-1.736,11.281,0,16.488c2.603,8.678,2.603,19.092,0,27.769c-1.736,5.207-1.736,11.281,0,16.488
		c4.339,11.281,2.603,26.034-4.339,35.58l0,0v121.492c0,2.603,0,5.207,0,8.678c12.149,8.678,19.092,19.092,19.092,30.373
		c0,26.034-35.58,47.729-79.837,47.729c62.481,0,110.21-21.695,110.21-47.729C383.54,443.525,376.598,432.244,360.11,424.433"/>
	<g>
		<path style="fill:#1A1718;" d="M193.493,461.749c-0.868,0-1.736,0-2.603,0c-25.166-7.81-38.183-19.959-39.051-36.447
			c0-5.207,3.471-8.678,7.81-9.546c5.207,0,9.546,3.471,9.546,7.81c0.868,10.414,14.753,17.356,26.902,20.827
			c4.339,1.736,6.942,6.075,5.207,11.281C200.435,460.013,196.964,461.749,193.493,461.749z"/>
		<path style="fill:#1A1718;" d="M249.032,469.559c-9.546,0-16.488-0.868-18.224-0.868c-5.207,0-8.678-4.339-7.81-9.546
			c0-4.339,4.339-8.678,9.546-7.81c25.166,1.736,69.424,0,86.78-14.753c4.339-3.471,6.942-7.81,6.942-13.017s4.339-8.678,9.546-7.81
			c5.207,0,8.678,4.339,7.81,9.546c-0.868,9.546-5.207,18.224-13.017,25.166C309.778,466.955,272.462,469.559,249.032,469.559z"/>
		<path style="fill:#1A1718;" d="M334.076,172.772h-8.678c-5.207,0-8.678-3.471-8.678-8.678c0-5.207,3.471-8.678,8.678-8.678h8.678
			c5.207,0,8.678,3.471,8.678,8.678C342.754,169.301,339.283,172.772,334.076,172.772z"/>
		<path style="fill:#1A1718;" d="M334.076,216.162H316.72c-5.207,0-8.678-3.471-8.678-8.678c0-5.207,3.471-8.678,8.678-8.678h17.356
			c5.207,0,8.678,3.471,8.678,8.678C342.754,212.691,339.283,216.162,334.076,216.162z"/>
		<path style="fill:#1A1718;" d="M334.076,259.552h-8.678c-5.207,0-8.678-3.471-8.678-8.678c0-5.207,3.471-8.678,8.678-8.678h8.678
			c5.207,0,8.678,3.471,8.678,8.678C342.754,256.081,339.283,259.552,334.076,259.552z"/>
		<path style="fill:#1A1718;" d="M169.195,259.552h-8.678c-5.207,0-8.678-3.471-8.678-8.678c0-5.207,3.471-8.678,8.678-8.678h8.678
			c5.207,0,8.678,3.471,8.678,8.678C177.873,256.081,174.401,259.552,169.195,259.552z"/>
		<path style="fill:#1A1718;" d="M177.873,216.162h-17.356c-5.207,0-8.678-3.471-8.678-8.678c0-5.207,3.471-8.678,8.678-8.678
			h17.356c5.207,0,8.678,3.471,8.678,8.678C186.551,212.691,183.079,216.162,177.873,216.162z"/>
		<path style="fill:#1A1718;" d="M169.195,172.772h-8.678c-5.207,0-8.678-3.471-8.678-8.678c0-5.207,3.471-8.678,8.678-8.678h8.678
			c5.207,0,8.678,3.471,8.678,8.678C177.873,169.301,174.401,172.772,169.195,172.772z"/>
		<path style="fill:#1A1718;" d="M247.296,511.213c-69.424,0-121.492-24.298-121.492-56.407c0-9.546,4.339-23.431,26.034-35.58
			c0-0.868,0-2.603,0-3.471v-26.034c0-5.207,3.471-8.678,8.678-8.678c5.207,0,8.678,3.471,8.678,8.678v26.034
			c0,2.603,0,5.207,0,7.81c0,3.471-1.736,6.942-4.339,8.678c-13.885,6.942-21.695,14.753-21.695,22.563
			c0,18.224,44.258,39.051,104.136,39.051s104.136-20.827,104.136-39.051c0-7.81-7.81-15.62-21.695-22.563
			c-3.471-1.736-5.207-5.207-4.339-8.678c0-2.603,0-5.207,0-7.81V294.264c0-2.603,0.868-5.207,2.603-6.075
			c6.942-6.942,8.678-17.356,4.339-26.034c-3.471-7.81-3.471-16.488,0-24.298c3.471-6.075,3.471-13.885,0-19.959
			c-3.471-7.81-3.471-16.488,0-23.431c3.471-6.075,3.471-13.885,0-19.959c-3.471-7.81-3.471-16.488,0-24.298
			c4.339-8.678,2.603-19.092-4.339-26.034c-1.736-1.736-2.603-3.471-2.603-6.075c-0.868-35.58-26.902-67.688-62.481-74.631
			c-4.339-0.868-6.942-5.207-6.942-8.678v-8.678c0-4.339-2.603-9.546-6.942-9.546c-3.471-0.868-6.075,0.868-6.942,1.736
			c-2.603,1.736-3.471,4.339-3.471,6.942v10.414c0,4.339-2.603,7.81-6.942,8.678c-35.58,6.942-61.614,39.051-62.481,75.498
			c0,2.603-0.868,4.339-2.603,6.075c-6.942,6.942-7.81,18.224-3.471,26.902c3.471,6.942,3.471,14.753,0,21.695
			c-3.471,6.942-3.471,15.62,0,21.695c3.471,6.942,3.471,14.753,0,21.695c-3.471,6.942-3.471,15.62,0,21.695
			c3.471,6.942,3.471,14.753,0,21.695c-5.207,8.678-3.471,19.959,3.471,26.902c1.736,1.736,2.603,3.471,2.603,6.075v26.034
			c0,5.207-3.471,8.678-8.678,8.678c-5.207,0-8.678-3.471-8.678-8.678v-22.563c-10.414-12.149-12.149-30.373-3.471-45.125
			c0.868-1.736,0.868-3.471,0-4.339c-6.942-12.149-6.942-26.902,0-39.051c0.868-1.736,0.868-3.471,0-5.207
			c-6.942-12.149-6.942-26.902,0-39.051c0.868-1.736,0.868-3.471,0-4.339c-7.81-13.885-6.075-32.108,3.471-45.125
			c1.736-40.786,30.373-75.498,69.424-86.78v-3.471c0-7.81,3.471-14.753,8.678-19.959c6.075-5.207,13.017-6.942,20.827-6.075
			c13.017,1.736,22.563,13.885,22.563,27.769v2.603c39.051,11.281,66.82,45.993,69.424,86.78
			c10.414,12.149,12.149,28.637,5.207,43.39c-1.736,2.603-1.736,6.075,0,8.678c5.207,11.281,5.207,24.298,0,34.712
			c-1.736,2.603-1.736,6.075,0,8.678c5.207,11.281,5.207,24.298,0,34.712c-1.736,2.603-1.736,6.075,0,8.678
			c6.942,13.885,5.207,31.241-5.207,42.522v118.02c0,0.868,0,2.603,0,3.471c21.695,12.149,26.034,26.034,26.034,35.58
			C368.788,486.915,316.72,511.213,247.296,511.213z"/>
		<path style="fill:#1A1718;" d="M169.195,355.01c0-5.207-3.471-8.678-8.678-8.678c-5.207,0-8.678,3.471-8.678,8.678
			s3.471,8.678,8.678,8.678C165.723,363.688,169.195,360.216,169.195,355.01"/>
		<path style="fill:#1A1718;" d="M203.907,129.383c-5.207,0-8.678-3.471-8.678-8.678c0-28.637,19.092-52.068,43.39-52.068
			c5.207,0,8.678,3.471,8.678,8.678c0,5.207-3.471,8.678-8.678,8.678c-14.753,0-26.034,15.62-26.034,34.712
			C212.585,125.911,209.113,129.383,203.907,129.383z"/>
	</g>
</g>
</svg>