<svg xmlns="http://www.w3.org/2000/svg" width="51.969" height="39.586" viewBox="0 0 51.969 39.586"><path d="M91,300v9.135h33.5V300Zm0,0" transform="translate(-81.763 -269.549)" fill="#ff9f00"/><path d="M256,300h16.748v9.135H256Zm0,0" transform="translate(-230.015 -269.549)" fill="#ff7816"/><path d="M123.3,98.039l-2.467,4.811H91.967L89.5,98.039C93.124,93.015,99.427,90,106.4,90S119.677,93.015,123.3,98.039Zm0,0" transform="translate(-80.415 -80.865)" fill="#ff4b00"/><path d="M272.9,98.039l-2.467,4.811H256V90C262.973,90,269.277,93.015,272.9,98.039Zm0,0" transform="translate(-230.015 -80.865)" fill="#cc1e0d"/><path d="M79.783,78.28,74.089,97.647h-33.5L34.9,78.28l3.837-1.461a10.731,10.731,0,0,0,7.765,5.6h1.584c3.5-.548,6.12-5.907,7.186-11.023h4.141C60.478,76.514,63.1,81.874,66.6,82.422h1.584a10.731,10.731,0,0,0,7.765-5.6Zm0,0" transform="translate(-31.356 -64.151)" fill="#fdbf00"/><path d="M278.442,78.28l-5.695,19.367H256V71.4h2.071c1.066,5.116,3.685,10.475,7.186,11.023h1.584a10.731,10.731,0,0,0,7.765-5.6Zm0,0" transform="translate(-230.015 -64.151)" fill="#ff9f00"/><path d="M4.669,69.135a4.569,4.569,0,1,1,0-9.135,4.568,4.568,0,1,1,0,9.135Zm0,0" transform="translate(0 -53.91)" fill="#ff9f00"/><path d="M425.568,69.135a4.568,4.568,0,1,1,0-9.135,4.569,4.569,0,1,1,0,9.135Zm0,0" transform="translate(-378.267 -53.91)" fill="#ff7816"/><path d="M215.568,0a4.568,4.568,0,1,0,4.568,4.568A4.561,4.561,0,0,0,215.568,0Zm0,0" transform="translate(-189.583)" fill="#ff9f00"/><path d="M209.906,173.7l-5.207,5.207,5.207,5.207,5.207-5.207Zm0,0" transform="translate(-183.922 -156.068)" fill="#ff4b00"/><path d="M326.942,233.785l2.153,2.153-2.153,2.153-2.153-2.153Zm0,0" transform="translate(-291.822 -210.055)" fill="#cc1e0d"/><path d="M146.942,233.785l2.153,2.153-2.153,2.153-2.153-2.153Zm0,0" transform="translate(-130.093 -210.055)" fill="#ff4b00"/><path d="M256,9.135V0a4.568,4.568,0,1,1,0,9.135Zm0,0" transform="translate(-230.015)" fill="#ff7816"/><path d="M261.207,178.906,256,184.114V173.7Zm0,0" transform="translate(-230.015 -156.068)" fill="#cc1e0d"/></svg>