<?xml version="1.0" encoding="iso-8859-1"?>
<!-- Uploaded to: SVG Repo, www.svgrepo.com, Generator: SVG Repo Mixer Tools -->
<svg version="1.1" id="Layer_1" xmlns="http://www.w3.org/2000/svg" xmlns:xlink="http://www.w3.org/1999/xlink" 
	 viewBox="0 0 511.997 511.997" xml:space="preserve">
<g>
	<polygon style="fill:#D80029;" points="341.415,46.293 322.914,27.793 333.737,16.969 341.415,24.647 349.012,17.049 
		359.835,27.872 	"/>
	<polygon style="fill:#D80029;" points="491.841,361.029 473.339,342.529 484.163,331.705 491.841,339.383 499.439,331.784 
		510.261,342.609 	"/>
	<polygon style="fill:#D80029;" points="96.968,441.699 78.468,423.199 89.291,412.375 96.968,420.053 104.566,412.455 
		115.39,423.276 	"/>
</g>
<path style="fill:#97C7EF;" d="M335.043,200.624L259.84,82.75c-0.169-0.265-0.556-0.265-0.725,0l-75.203,117.873h151.132V200.624z"
	/>
<g>
	<path style="fill:#C3DFF7;" d="M259.477,82.183h-150.04c-0.472,0-0.758,0.521-0.504,0.919l74.979,117.522L259.477,82.183z"/>
	<path style="fill:#C3DFF7;" d="M409.518,82.183H259.477l75.565,118.441l74.979-117.522
		C410.276,82.704,409.989,82.183,409.518,82.183z"/>
</g>
<g>
	<path style="fill:#97C7EF;" d="M481.534,200.148L412.52,82.478c-0.107-0.183-0.304-0.296-0.516-0.296h-1.067
		c-0.204,0-0.395,0.104-0.504,0.277l-75.389,118.165h146.22C481.506,200.624,481.658,200.358,481.534,200.148z"/>
	<path style="fill:#97C7EF;" d="M335.043,200.624L259.55,502.345c-0.016,0.063,0.067,0.102,0.106,0.05l221.786-301.269
		c0.153-0.208,0.005-0.502-0.254-0.502L335.043,200.624L335.043,200.624z"/>
	<path style="fill:#97C7EF;" d="M108.018,82.183h-1.067c-0.212,0-0.408,0.112-0.516,0.296L37.42,200.148
		c-0.123,0.21,0.029,0.474,0.272,0.474h146.22l-75.39-118.165C108.412,82.287,108.222,82.183,108.018,82.183z"/>
</g>
<path style="fill:#C3DFF7;" d="M183.911,200.624l75.507,301.783c0.015,0.06,0.101,0.06,0.115,0l75.507-301.783L183.911,200.624
	L183.911,200.624z"/>
<path style="fill:#97C7EF;" d="M37.511,201.126l221.786,301.269c0.039,0.053,0.121,0.013,0.106-0.05l-75.492-301.721H37.765
	C37.507,200.624,37.358,200.918,37.511,201.126z"/>
<g>
	
		<rect x="357.826" y="279.385" transform="matrix(-0.8053 -0.5928 0.5928 -0.8053 470.0702 794.4835)" style="fill:#FFFFFF;" width="15.306" height="81.354"/>
	
		<rect x="392.167" y="261.532" transform="matrix(-0.8053 -0.5928 0.5928 -0.8053 560.0627 729.5862)" style="fill:#FFFFFF;" width="15.306" height="22.611"/>
</g>
<rect x="31.409" y="41.794" transform="matrix(0.7071 0.7071 -0.7071 0.7071 49.9544 -21.7057)" width="39.538" height="15.306"/>
<rect x="77.16" y="13.542" transform="matrix(0.3449 0.9386 -0.9386 0.3449 83.3912 -77.096)" width="39.537" height="15.306"/>
<rect x="3.162" y="87.535" transform="matrix(-0.9386 -0.3449 0.3449 -0.9386 11.6233 192.4426)" width="39.537" height="15.306"/>
<path d="M419.135,78.631c-1.47-2.53-4.203-4.101-7.131-4.101h-1.067c-0.248,0-0.492,0.024-0.737,0.046
	c-0.228-0.019-0.452-0.046-0.683-0.046h-136.08h-27.921h-136.08c-0.231,0-0.456,0.028-0.683,0.046
	c-0.244-0.021-0.488-0.046-0.736-0.046h-1.067c-2.914,0-5.641,1.561-7.117,4.077L30.822,196.272
	c-0.929,1.58-1.259,3.408-1.006,5.171c0.094,1.494,0.604,2.959,1.534,4.221L253.135,506.93c0.964,1.311,2.288,2.233,3.749,2.725
	c0.067,0.024,0.139,0.039,0.207,0.061c0.052,0.016,0.105,0.032,0.157,0.047l4.844,2.234l1.415-1.922l2.003-0.015l0.598-2.39
	l2.248-1.079l-0.58-2.316l219.828-298.609c0.931-1.263,1.441-2.729,1.535-4.223c0.252-1.762-0.079-3.592-1.007-5.171L419.135,78.631
	z M396.648,89.836l-61.605,96.558l-61.604-96.558C273.439,89.836,396.648,89.836,396.648,89.836z M259.477,96.412l61.605,96.557
	H197.873L259.477,96.412z M245.517,89.836L185.1,184.531l-1.189,1.863l-61.604-96.558C122.307,89.836,245.517,89.836,245.517,89.836
	z M107.715,95.422l56.963,89.283l5.272,8.264H50.503L107.715,95.422z M52.278,208.276H169.95h7.987l64.697,258.572L52.278,208.276z
	 M259.478,471.107l-65.762-262.83h4.157h123.209h4.157L259.478,471.107z M276.321,466.851l23.854-95.341l40.842-163.233h7.987
	h117.672L276.321,466.851z M349.003,192.97l62.236-97.547l57.211,97.547H349.003z"/>
<polygon points="31.35,205.667 31.349,205.665 31.348,205.663 "/>
</svg>