<svg xmlns="http://www.w3.org/2000/svg" width="45.11" height="45.051" viewBox="0 0 45.11 45.051"><g transform="translate(0 -0.331)"><path d="M223.323,24.188a.671.671,0,0,1-.671-.671V13.255a.671.671,0,1,1,1.341,0V23.517A.671.671,0,0,1,223.323,24.188Z" transform="translate(-202.743 -11.157)" fill="#8379c1"/><path d="M288.83,1.853h-.852V1a.671.671,0,0,0-1.341,0v.852h-.852a.671.671,0,1,0,0,1.341h.852v.852a.671.671,0,0,0,1.341,0V3.195h.852a.671.671,0,1,0,0-1.341Z" transform="translate(-259.621 0)" fill="#fe99a0"/><path d="M239.487,73.037a1.038,1.038,0,0,1,.767,1.329,1.038,1.038,0,0,0,.29,1.082,1.038,1.038,0,0,1,0,1.534,1.038,1.038,0,0,0-.29,1.082,1.038,1.038,0,0,1-.767,1.329,1.038,1.038,0,0,0-.792.792,1.038,1.038,0,0,1-1.329.767,1.038,1.038,0,0,0-1.082.29,1.038,1.038,0,0,1-1.534,0,1.038,1.038,0,0,0-1.082-.29,1.038,1.038,0,0,1-1.329-.767,1.038,1.038,0,0,0-.792-.792,1.038,1.038,0,0,1-.767-1.329,1.038,1.038,0,0,0-.29-1.082,1.038,1.038,0,0,1,0-1.534,1.038,1.038,0,0,0,.29-1.082,1.038,1.038,0,0,1,.767-1.329,1.038,1.038,0,0,0,.792-.792,1.038,1.038,0,0,1,1.329-.767,1.038,1.038,0,0,0,1.082-.29,1.038,1.038,0,0,1,1.534,0,1.038,1.038,0,0,0,1.082.29,1.038,1.038,0,0,1,1.329.767A1.038,1.038,0,0,0,239.487,73.037Z" transform="translate(-209.571 -64.213)" fill="#fe99a0"/><path d="M257.858,92.763a1.038,1.038,0,0,1-.29-1.082,1.038,1.038,0,0,0-.767-1.329.416.416,0,1,0-.721-.16,1.038,1.038,0,0,0,.29,1.082,1.038,1.038,0,0,1,0,1.534,1.038,1.038,0,0,0-.29,1.082,1.038,1.038,0,0,1-.767,1.329,1.038,1.038,0,0,0-.792.792,1.038,1.038,0,0,1-1.329.767,1.038,1.038,0,0,0-1.082.29,1.038,1.038,0,0,1-1.534,0,1.038,1.038,0,0,0-1.082-.29,1.04,1.04,0,0,1-.328.049,1.037,1.037,0,0,1,.488.672,1.038,1.038,0,0,0,1.329.767,1.038,1.038,0,0,1,1.082.29,1.038,1.038,0,0,0,1.534,0,1.038,1.038,0,0,1,1.082-.29,1.038,1.038,0,0,0,1.329-.767,1.038,1.038,0,0,1,.792-.792,1.038,1.038,0,0,0,.767-1.329,1.038,1.038,0,0,1,.29-1.082A1.038,1.038,0,0,0,257.858,92.763Z" transform="translate(-226.886 -81.527)" fill="#fd8087"/><path d="M12.632,368.326,7.2,362.9l-6.49,4.079a1.522,1.522,0,0,0-.266,2.365l5.742,5.742a1.522,1.522,0,0,0,2.365-.266Z" transform="translate(0 -330.146)" fill="#a6e7f0"/><path d="M59,406.972l-4.079,6.49a1.522,1.522,0,0,1-2.365.266l1.489,1.489a1.522,1.522,0,0,0,2.365-.266l4.079-6.49Z" transform="translate(-47.856 -370.281)" fill="#6bd9e7"/><path d="M90.271,107.1l-2.536,2.536a15.059,15.059,0,0,0-3.257,4.867l-2.232,5.369a6.074,6.074,0,0,0,1.314,6.627l6.48,6.48a6.074,6.074,0,0,0,6.627,1.314l5.369-2.232A15.06,15.06,0,0,0,106.9,128.8l2.536-2.536a2,2,0,0,0,0-2.827L93.1,107.1a2,2,0,0,0-2.827,0Z" transform="translate(-74.467 -96.688)" fill="#a6e7f0"/><path d="M114.247,260.021a.671.671,0,0,1-.609-.95l3.75-8.173a.671.671,0,1,1,1.219.559l-3.75,8.173A.671.671,0,0,1,114.247,260.021Z" transform="translate(-103.421 -227.806)" fill="#6bd9e7"/><path d="M150.929,341.745a.671.671,0,0,1-.28-1.28l8.173-3.75a.671.671,0,0,1,.559,1.219l-8.173,3.75A.669.669,0,0,1,150.929,341.745Z" transform="translate(-136.822 -306.249)" fill="#6bd9e7"/><path d="M101.676,330.015l4.992,4.992-4.992-4.992Z" transform="translate(-92.584 -300.205)" fill="#a6e7f0"/><path d="M178.392,280.651l-1.489-1.489a2,2,0,0,1,0,2.827l-2.536,2.536a15.059,15.059,0,0,1-4.867,3.257l-5.369,2.232A6.074,6.074,0,0,1,157.5,288.7l1.489,1.489a6.074,6.074,0,0,0,6.627,1.314l5.368-2.232a15.06,15.06,0,0,0,4.867-3.257l2.536-2.536A2,2,0,0,0,178.392,280.651Z" transform="translate(-143.421 -253.899)" fill="#6bd9e7"/><circle cx="1.741" cy="1.741" r="1.741" transform="translate(24.204 10.261)" fill="#978ecb"/><path d="M46.131,299.065l-.552,1.859-1.863.555-1.865-1.112-2.606-1.553a.971.971,0,0,1-.19-1.52l2.89-2.889a.97.97,0,0,1,1.519.189l1.554,2.606Z" transform="translate(-35.304 -267.52)" fill="#fd4755"/><path d="M77.49,330.425l-.552,1.859-1.863.555-1.865-1.112,0,0,3.166-3.165Z" transform="translate(-66.664 -298.88)" fill="#fb2b3a"/><path d="M133.421,392.984l-2.666-4.471.572-1.744,1.843-.671,4.471,2.666a.97.97,0,0,1,.189,1.52l-2.889,2.889A.97.97,0,0,1,133.421,392.984Z" transform="translate(-119.063 -351.273)" fill="#fd4755"/><path d="M158.609,409.732l-1.018-.607a.961.961,0,0,1-.282.638l-2.889,2.889a.962.962,0,0,1-.638.282l.607,1.018a.97.97,0,0,0,1.52.189l2.889-2.889A.97.97,0,0,0,158.609,409.732Z" transform="translate(-140.031 -372.241)" fill="#fb2b3a"/><path d="M376.557,148.338a1.038,1.038,0,0,1,.767,1.329,1.038,1.038,0,0,0,.29,1.082,1.038,1.038,0,0,1,0,1.534,1.038,1.038,0,0,0-.29,1.082,1.038,1.038,0,0,1-.767,1.329,1.038,1.038,0,0,0-.792.792,1.038,1.038,0,0,1-1.329.767,1.038,1.038,0,0,0-1.082.29,1.038,1.038,0,0,1-1.534,0,1.038,1.038,0,0,0-1.082-.29,1.038,1.038,0,0,1-1.329-.767,1.038,1.038,0,0,0-.792-.792,1.038,1.038,0,0,1-.767-1.329,1.038,1.038,0,0,0-.29-1.082,1.038,1.038,0,0,1,0-1.534,1.038,1.038,0,0,0,.29-1.082,1.038,1.038,0,0,1,.767-1.329,1.038,1.038,0,0,0,.792-.792,1.038,1.038,0,0,1,1.329-.767,1.038,1.038,0,0,0,1.082-.29,1.038,1.038,0,0,1,1.534,0,1.038,1.038,0,0,0,1.082.29,1.038,1.038,0,0,1,1.329.767A1.038,1.038,0,0,0,376.557,148.338Z" transform="translate(-334.385 -132.781)" fill="#fe99a0"/><path d="M451.89,152.752a1.032,1.032,0,0,1,.462.234,1.041,1.041,0,0,0-.767-.354A1.035,1.035,0,0,0,451.89,152.752Z" transform="translate(-411.207 -138.683)" fill="#fe99a0"/><path d="M394.928,168.063a1.038,1.038,0,0,1-.29-1.082,1.038,1.038,0,0,0-.767-1.329.574.574,0,1,0-.432.922,1.038,1.038,0,0,1,0,1.534,1.038,1.038,0,0,0-.29,1.082,1.038,1.038,0,0,1-.767,1.329,1.038,1.038,0,0,0-.792.792,1.038,1.038,0,0,1-1.329.767,1.038,1.038,0,0,0-1.082.29,1.038,1.038,0,0,1-1.534,0,1.038,1.038,0,0,0-1.082-.29,1.038,1.038,0,0,1-.328.049,1.038,1.038,0,0,1,.488.672,1.038,1.038,0,0,0,1.329.767,1.038,1.038,0,0,1,1.082.29,1.038,1.038,0,0,0,1.534,0,1.038,1.038,0,0,1,1.082-.29,1.038,1.038,0,0,0,1.329-.767,1.038,1.038,0,0,1,.792-.792,1.038,1.038,0,0,0,.767-1.329,1.038,1.038,0,0,1,.29-1.082A1.038,1.038,0,0,0,394.928,168.063Z" transform="translate(-351.699 -150.094)" fill="#fd8087"/><path d="M373.824,230.819a4.509,4.509,0,1,1,.234.462A1.038,1.038,0,0,1,373.824,230.819Z" transform="translate(-340.289 -209.602)" fill="#fe99a0"/><circle cx="1.741" cy="1.741" r="1.741" transform="translate(36.46 16.994)" fill="#978ecb"/><path d="M374.867,22.836l.531-.172a.916.916,0,0,1,1.1.455l.254.5a.916.916,0,0,0,.4.4l.5.254a.916.916,0,0,1,.455,1.1l-.172.531a.916.916,0,0,0,0,.564l.172.531a.916.916,0,0,1-.455,1.1l-.5.254a.916.916,0,0,0-.4.4l-.254.5a.916.916,0,0,1-1.1.455l-.531-.172a.916.916,0,0,0-.564,0l-.531.172a.916.916,0,0,1-1.1-.455l-.254-.5a.916.916,0,0,0-.4-.4l-.5-.254a.916.916,0,0,1-.455-1.1l.172-.531a.917.917,0,0,0,0-.564l-.172-.531a.916.916,0,0,1,.455-1.1l.5-.254a.916.916,0,0,0,.4-.4l.254-.5a.916.916,0,0,1,1.1-.455l.531.172a.915.915,0,0,0,.564,0Z" transform="translate(-337.848 -20.296)" fill="#978ecb"/><path d="M385.71,34.245a.916.916,0,0,1,0-.564l.172-.531a.916.916,0,0,0-.455-1.1l-.5-.254a.916.916,0,0,1-.4-.4l-.119-.232a.912.912,0,0,1-.019.494l-.172.531a.916.916,0,0,0,0,.564l.172.531a.916.916,0,0,1-.455,1.1l-.5.254a.916.916,0,0,0-.4.4l-.254.5a.916.916,0,0,1-1.1.455l-.531-.172a.916.916,0,0,0-.564,0l-.531.172a.913.913,0,0,1-.494.019l.232.119a.916.916,0,0,1,.4.4l.254.5a.916.916,0,0,0,1.1.455l.531-.172a.916.916,0,0,1,.564,0l.531.172a.916.916,0,0,0,1.1-.455l.254-.5a.916.916,0,0,1,.4-.4l.5-.254a.916.916,0,0,0,.455-1.1Z" transform="translate(-345.63 -28.078)" fill="#8379c1"/><circle cx="0.715" cy="0.715" r="0.715" transform="translate(36.021 5.169)" fill="#fe99a0"/><circle cx="0.715" cy="0.715" r="0.715" transform="translate(40.557 26.867)" fill="#8379c1"/><path d="M451.7,76.925a.671.671,0,0,1-.474-1.145l3.439-3.439a.671.671,0,1,1,.948.948l-3.439,3.439A.668.668,0,0,1,451.7,76.925Z" transform="translate(-410.705 -65.393)" fill="#fe99a0"/><path d="M88.367,344.44,86.629,342.7a1.09,1.09,0,0,1,0-1.542l3.555-3.555a1.09,1.09,0,0,1,1.542,0l1.738,1.738a1.09,1.09,0,0,1,0,1.542l-3.555,3.555A1.09,1.09,0,0,1,88.367,344.44Z" transform="translate(-78.592 -306.826)" fill="#978ecb"/><path d="M96.715,345.133l-1.489-1.489a1.09,1.09,0,0,1,0,1.542l-3.555,3.555a1.09,1.09,0,0,1-1.542,0l-.249-.249h0l1.738,1.738a1.09,1.09,0,0,0,1.542,0l3.555-3.555a1.09,1.09,0,0,0,0-1.542Z" transform="translate(-81.843 -312.615)" fill="#8379c1"/></g></svg>