<?xml version="1.0" ?>
<!-- Uploaded to: SVG Repo, www.svgrepo.com, Generator: SVG Repo Mixer Tools -->
<svg width="800px" height="800px" viewBox="0 0 512 512" version="1.1" xml:space="preserve" xmlns="http://www.w3.org/2000/svg" xmlns:xlink="http://www.w3.org/1999/xlink">
<style type="text/css">
	.st0{display:none;}
	.st1{fill:#FFE2D2;}
	.st2{fill:#FFDE83;}
	.st3{fill:#F57070;}
	.st4{fill:#DBDBEF;}
	.st5{fill:#BCE2FF;}
	.st6{fill:#48446D;}
	.st7{fill:#6E78FF;}
	.st8{fill:#FFBE83;}
	.st9{fill:#F5949E;}
	.st10{fill:#D0FF67;}
	.st11{fill:#C69C6D;}
	.st12{fill:#C5BDD3;}
	.st13{fill:#FFE2B8;}
	.st14{fill:#F54670;}
</style>
<g class="st0" id="Layer_1"/>
<g id="Layer_2">
<g>
<path class="st3" d="M62.54,248.96c1.71,1.3,2.72,3.31,2.75,5.46c0.03,2.15-0.93,4.19-2.59,5.54c-3.08,2.49-4.82,6.18-4.76,10.12    c0.1,7.05,5.93,12.71,12.97,12.61c8.76-0.12,19.5-7.05,31.09-20.03c0.07-0.09,0.15-0.18,0.2-0.25c0.04-0.04,0.1-0.12,0.16-0.19    l0.18-0.23c0.16-0.2,0.31-0.38,0.44-0.57c0.09-0.13,0.17-0.26,0.26-0.39l0.07-0.11c0.12-0.19,0.25-0.39,0.36-0.59    c0.09-0.16,0.17-0.32,0.26-0.48c0.11-0.23,0.22-0.44,0.31-0.66c0.07-0.16,0.14-0.32,0.2-0.48c0.1-0.24,0.18-0.47,0.25-0.71    l0.04-0.12c0.04-0.12,0.08-0.23,0.11-0.34c0.07-0.26,0.13-0.52,0.19-0.79l0.1-0.44c0.05-0.28,0.08-0.57,0.11-0.87    c0.02-0.12,0.04-0.26,0.05-0.4c0.04-0.43,0.05-0.81,0.05-1.18v-0.1c-0.01-0.27-0.03-0.65-0.08-1.07c-0.03-0.18-0.05-0.3-0.06-0.43    c-0.04-0.28-0.08-0.58-0.14-0.87l-0.11-0.42c-0.07-0.27-0.13-0.52-0.21-0.78c-0.04-0.12-0.09-0.24-0.13-0.36    c-0.12-0.33-0.2-0.57-0.3-0.8c-0.07-0.16-0.15-0.32-0.22-0.48c-0.1-0.21-0.21-0.43-0.33-0.64c-0.08-0.16-0.17-0.32-0.27-0.48    c-0.12-0.2-0.25-0.39-0.38-0.58c-0.14-0.21-0.24-0.35-0.34-0.49c-0.14-0.18-0.29-0.35-0.44-0.53l-0.21-0.25    c-0.06-0.07-0.12-0.15-0.18-0.22c-0.06-0.06-0.13-0.14-0.21-0.23C89.91,232.61,79.07,226,70.36,226h-0.25    c-3.41,0.05-6.61,1.43-8.99,3.88c-2.38,2.45-3.67,5.68-3.62,9.1C57.56,242.91,59.39,246.55,62.54,248.96z"/>
<path class="st3" d="M114.23,387.82c2.12-0.29,4.26,0.42,5.8,1.92c1.54,1.49,2.31,3.61,2.08,5.74c-0.05,0.46-0.07,0.91-0.07,1.37    c0,3.45,1.37,6.73,3.86,9.15c2.45,2.39,5.68,3.7,9.1,3.62c3.42-0.04,6.62-1.42,9-3.87c6.1-6.28,8.8-18.77,7.81-36.14    c-0.01-0.11-0.02-0.22-0.02-0.3c-0.01-0.08-0.02-0.18-0.04-0.27l-0.03-0.3c-0.03-0.26-0.05-0.48-0.09-0.7    c-0.03-0.17-0.06-0.33-0.1-0.48c0-0.01-0.02-0.1-0.02-0.1c-0.05-0.23-0.1-0.46-0.16-0.68c-0.05-0.18-0.11-0.36-0.16-0.54    c-0.08-0.22-0.16-0.45-0.25-0.68c-0.06-0.16-0.12-0.32-0.19-0.48c-0.1-0.23-0.21-0.46-0.33-0.68l-0.05-0.11    c-0.06-0.11-0.11-0.21-0.17-0.32c-0.13-0.24-0.28-0.46-0.42-0.69l-0.25-0.39c-0.15-0.22-0.34-0.45-0.53-0.69l-0.21-0.28    c-0.27-0.31-0.53-0.59-0.79-0.85c-0.03-0.03-0.06-0.06-0.1-0.1c-0.24-0.23-0.52-0.48-0.83-0.72l-0.33-0.24    c-0.25-0.19-0.48-0.37-0.73-0.53l-0.36-0.22c-0.25-0.15-0.48-0.28-0.71-0.41c-0.11-0.06-0.22-0.1-0.32-0.15l-0.14-0.07    c-0.21-0.1-0.44-0.2-0.67-0.29c-0.17-0.07-0.32-0.13-0.49-0.19c-0.22-0.08-0.46-0.15-0.69-0.22c-0.16-0.05-0.34-0.1-0.53-0.15    c-0.23-0.06-0.46-0.1-0.68-0.14c-0.25-0.05-0.42-0.08-0.59-0.11c-0.21-0.03-0.44-0.04-0.66-0.06l-0.32-0.03    c-0.1-0.01-0.21-0.02-0.31-0.02c-0.11-0.01-0.21-0.01-0.31-0.02c-17.38-0.51-29.78,2.56-35.88,8.83    c-4.92,5.06-4.81,13.17,0.25,18.09C106.43,387.07,110.3,388.34,114.23,387.82z"/>
<path class="st3" d="M127.68,103.6c-2.75,2.83-4.02,6.7-3.5,10.63c0.29,2.12-0.42,4.26-1.92,5.8c-1.49,1.54-3.61,2.31-5.74,2.08    c-3.94-0.41-7.78,0.97-10.52,3.79c-4.92,5.06-4.81,13.18,0.25,18.1c6.28,6.1,18.77,8.8,36.14,7.81c0.11-0.01,0.22-0.02,0.3-0.02    c0.08-0.01,0.18-0.02,0.27-0.04l0.3-0.03c0.26-0.03,0.48-0.05,0.7-0.09c0.17-0.03,0.33-0.06,0.49-0.1    c0.32-0.07,0.55-0.12,0.77-0.18c0.17-0.05,0.35-0.1,0.53-0.16c0.23-0.08,0.46-0.16,0.69-0.25c0.16-0.06,0.32-0.12,0.48-0.19    c0.23-0.1,0.45-0.21,0.68-0.33l0.1-0.05c0.11-0.06,0.22-0.11,0.32-0.17c0.24-0.13,0.47-0.28,0.7-0.42l0.38-0.24    c0.23-0.16,0.46-0.35,0.69-0.53l0.3-0.23c0.31-0.27,0.6-0.53,0.86-0.8l0.1-0.1c0.01-0.01,0.01-0.01,0.02-0.02    c0.18-0.19,0.42-0.46,0.68-0.78c0.11-0.15,0.18-0.25,0.25-0.35c0.19-0.24,0.37-0.48,0.53-0.73l0.21-0.36    c0.15-0.24,0.28-0.47,0.41-0.7c0.06-0.12,0.11-0.23,0.16-0.34c0-0.01,0.05-0.1,0.05-0.1c0.11-0.23,0.21-0.46,0.31-0.7    c0.06-0.15,0.12-0.32,0.18-0.49c0.08-0.22,0.15-0.44,0.22-0.67c0.05-0.19,0.11-0.37,0.15-0.55c0.05-0.22,0.1-0.44,0.14-0.67    c0.05-0.25,0.08-0.42,0.11-0.59c0.03-0.22,0.04-0.45,0.06-0.69l0.03-0.31c0.01-0.09,0.02-0.18,0.02-0.28    c0.01-0.11,0.01-0.21,0.02-0.31c0.5-17.38-2.55-29.79-8.83-35.89C140.71,98.43,132.59,98.54,127.68,103.6z"/>
<path class="st3" d="M248.96,449.46c1.3-1.71,3.31-2.72,5.46-2.75c2.14-0.06,4.19,0.92,5.54,2.59c2.49,3.08,6.21,4.81,10.12,4.76    c3.41-0.05,6.61-1.42,8.99-3.87c2.38-2.45,3.67-5.69,3.62-9.1c-0.12-8.76-7.05-19.51-20.03-31.09c-0.08-0.06-0.17-0.13-0.22-0.18    c-0.07-0.06-0.15-0.12-0.22-0.18l-0.24-0.19c-0.21-0.16-0.38-0.3-0.57-0.44c-0.12-0.08-0.26-0.17-0.41-0.27    c-0.27-0.17-0.47-0.3-0.67-0.41c-0.16-0.09-0.32-0.17-0.48-0.25c-0.23-0.12-0.44-0.23-0.67-0.32c-0.14-0.07-0.3-0.14-0.47-0.2    c-0.24-0.1-0.48-0.18-0.73-0.26l-0.1-0.03c-0.11-0.04-0.22-0.08-0.34-0.11c-0.27-0.08-0.53-0.13-0.79-0.19l-0.44-0.1    c-0.28-0.05-0.58-0.08-0.88-0.12l-0.38-0.04c-0.39-0.03-0.77-0.05-1.11-0.05h-0.17c-0.34,0.01-0.7,0.04-1.08,0.08l-0.4,0.06    c-0.32,0.04-0.61,0.08-0.9,0.15l-0.43,0.1c-0.25,0.07-0.51,0.13-0.76,0.21c-0.14,0.04-0.24,0.08-0.35,0.12l-0.13,0.05    c-0.22,0.08-0.46,0.16-0.69,0.26c-0.16,0.07-0.32,0.15-0.48,0.22c-0.21,0.1-0.43,0.21-0.64,0.33c-0.16,0.09-0.32,0.17-0.48,0.27    c-0.2,0.12-0.39,0.25-0.58,0.38c-0.2,0.14-0.34,0.23-0.48,0.34c-0.2,0.14-0.37,0.3-0.55,0.45l-0.24,0.2    c-0.07,0.06-0.15,0.12-0.22,0.18c-0.07,0.06-0.14,0.13-0.22,0.2c-12.65,11.95-19.26,22.88-19.14,31.62c0.05,3.42,1.43,6.62,3.88,9    c2.45,2.38,5.66,3.7,9.1,3.62C242.91,454.44,246.55,452.61,248.96,449.46z"/>
<path class="st3" d="M249.34,102c0.08,0.06,0.17,0.13,0.22,0.18c0.08,0.06,0.15,0.12,0.22,0.18l0.23,0.18    c0.2,0.16,0.38,0.31,0.58,0.44c0.12,0.1,0.26,0.18,0.4,0.27l0.08,0.05c0.2,0.13,0.4,0.26,0.6,0.37c0.16,0.09,0.32,0.17,0.49,0.26    c0.21,0.11,0.43,0.21,0.65,0.31c0.16,0.07,0.32,0.14,0.48,0.2c0.24,0.09,0.47,0.18,0.71,0.25l0.12,0.04    c0.12,0.04,0.23,0.08,0.34,0.11c0.26,0.07,0.52,0.13,0.79,0.19l0.44,0.1c0.28,0.05,0.57,0.08,0.87,0.11    c0.12,0.02,0.26,0.04,0.4,0.05c0.43,0.04,0.81,0.05,1.18,0.05h0.1c0.27-0.01,0.65-0.03,1.07-0.08c0.18-0.03,0.3-0.05,0.43-0.06    c0.28-0.04,0.58-0.08,0.87-0.14l0.42-0.11c0.27-0.07,0.52-0.13,0.78-0.21c0.12-0.04,0.24-0.09,0.36-0.13    c0.33-0.12,0.57-0.2,0.8-0.3c0.16-0.07,0.32-0.15,0.48-0.22c0.21-0.1,0.43-0.21,0.64-0.33c0.16-0.08,0.32-0.17,0.48-0.27    c0.2-0.12,0.39-0.25,0.58-0.38c0.21-0.14,0.35-0.24,0.49-0.34c0.18-0.14,0.35-0.29,0.53-0.44l0.25-0.21    c0.07-0.06,0.15-0.12,0.22-0.18c0.06-0.06,0.14-0.13,0.23-0.21C279.5,89.8,286.12,78.87,286,70.11c-0.05-3.41-1.43-6.61-3.88-8.99    c-2.45-2.38-5.66-3.66-9.1-3.62c-3.93,0.06-7.57,1.89-9.98,5.04c-1.3,1.71-3.31,2.72-5.46,2.75h-0.1c-2.11,0-4.11-0.95-5.44-2.59    c-2.49-3.08-6.21-4.83-10.12-4.76c-3.41,0.05-6.61,1.42-8.99,3.87c-2.38,2.46-3.67,5.69-3.62,9.1    C229.43,79.67,236.36,90.41,249.34,102z"/>
<path class="st3" d="M349.58,264.14c-0.16-0.06-0.31-0.14-0.46-0.21c-3.19-1.56-4.73-5.31-3.48-8.71    c3.52-9.5,5.25-18.7,5.12-27.36c-0.38-27.04-22.67-48.75-49.72-48.34c-15.1,0.21-29.04,7.25-38.26,19.3    c-1.3,1.7-3.31,2.72-5.46,2.75h-0.1c-2.11,0-4.1-0.95-5.43-2.6c-9.56-11.78-23.72-18.41-38.79-18.21    c-27.03,0.38-48.72,22.69-48.34,49.72c0.41,28.93,21,61.76,61.22,97.58c0.18,0.14,0.33,0.27,0.48,0.4    c0.39,0.34,0.78,0.64,1.16,0.94l0.56,0.44c0.8,0.64,1.52,1.21,2.2,1.69c0.55,0.39,1.11,0.75,1.68,1.11l0.18,0.12    c0.69,0.45,1.51,0.96,2.31,1.42c0.61,0.35,1.24,0.67,1.87,1c0.85,0.43,1.7,0.83,2.53,1.2c0.6,0.26,1.21,0.52,1.82,0.76    c0.83,0.33,1.73,0.65,2.76,0.98l0.3,0.1c0.48,0.16,0.97,0.32,1.46,0.45c1.03,0.3,2.1,0.54,3.01,0.73l0.67,0.15    c0.31,0.08,0.63,0.15,0.95,0.21c1.16,0.21,2.37,0.35,3.4,0.46c0.26,0.03,0.53,0.07,0.8,0.11c0.17,0.02,0.34,0.05,0.52,0.06    c1.65,0.14,3.17,0.19,4.65,0.18c0.08-0.01,0.17-0.01,0.25-0.01c1.38-0.02,2.91-0.12,4.59-0.31c0.17-0.01,0.34-0.05,0.52-0.08    c0.26-0.04,0.53-0.08,0.8-0.12c1.02-0.14,2.22-0.32,3.37-0.56c0.32-0.07,0.64-0.15,0.97-0.24l0.64-0.16    c0.91-0.22,1.97-0.49,2.98-0.81c0.51-0.16,1-0.34,1.5-0.51l0.26-0.1c1.03-0.36,1.91-0.71,2.71-1.04c0.61-0.27,1.22-0.55,1.83-0.83    c0.8-0.38,1.63-0.81,2.45-1.26c0.64-0.35,1.26-0.69,1.88-1.07c0.77-0.46,1.56-1,2.24-1.46l0.16-0.11    c0.57-0.39,1.14-0.77,1.69-1.19c0.64-0.48,1.32-1.05,2.03-1.66l0.65-0.54c0.38-0.31,0.76-0.63,1.13-0.96    c0.15-0.15,0.32-0.29,0.48-0.43c10.82-10.19,20.27-20.27,28.12-29.96c2.43-3,6.84-3.47,9.84-1.03c0.04,0.03,0.07,0.07,0.11,0.1    c0.13,0.11,0.25,0.22,0.37,0.34c0.12,0.12,0.23,0.24,0.35,0.37c0.01-0.02,0.03-0.04,0.04-0.06c2.51-3.14,4.8-6.26,6.81-9.25    c0.02-0.03,0.04-0.05,0.06-0.08c-0.16-0.07-0.32-0.13-0.47-0.2c-0.15-0.07-0.29-0.16-0.44-0.25c-2.1-1.2-3.54-3.45-3.54-6.05    c0-3.87,3.13-7,7-7h0.01c1.35,0,2.61,0.4,3.68,1.08c0.14,0.08,0.29,0.16,0.43,0.26c0.14,0.1,0.26,0.21,0.39,0.32    c0.02-0.03,0.04-0.06,0.05-0.09c2.05-3.95,3.7-7.76,4.92-11.31c-0.09-0.03-0.18-0.06-0.27-0.09    C349.71,264.2,349.64,264.17,349.58,264.14z M281.77,315.08c-0.06,0.06-0.14,0.13-0.21,0.19c-0.16,0.14-0.32,0.28-0.47,0.43    c-0.08,0.06-0.15,0.13-0.23,0.19l-1.34,1.12c-0.35,0.31-0.7,0.61-1.07,0.89c-0.05,0.04-0.1,0.08-0.16,0.12    c-0.22,0.16-0.47,0.33-0.74,0.51l-0.4,0.27c-0.25,0.18-1.08,0.73-1.5,0.99c-0.4,0.24-0.81,0.46-1.21,0.68    c-0.63,0.35-1.17,0.63-1.69,0.87c-0.41,0.2-0.82,0.38-1.23,0.56c-0.47,0.2-1.07,0.43-1.83,0.7l-0.39,0.14    c-0.24,0.09-0.47,0.17-0.7,0.25c-0.04,0.01-0.08,0.03-0.12,0.04c-0.52,0.16-1.5,0.41-1.9,0.51l-1.07,0.27    c-0.14,0.03-0.28,0.07-0.43,0.09c-0.59,0.11-1.5,0.24-1.87,0.29c-0.39,0.06-0.71,0.11-1.03,0.16c-0.15,0.02-0.3,0.04-0.45,0.06    c-0.84,0.08-1.64,0.13-2.37,0.15h-1.35c-0.52-0.01-1.06-0.04-1.64-0.08c-0.14-0.01-0.29-0.02-0.43-0.04    c-0.33-0.04-0.66-0.09-0.99-0.12c-0.37-0.04-1.31-0.15-1.95-0.25c-0.14-0.02-0.28-0.05-0.42-0.08l-1.06-0.24    c-0.34-0.07-1.38-0.3-1.96-0.47c-0.04-0.01-0.07-0.02-0.1-0.03c-0.19-0.05-0.41-0.13-0.64-0.2l-0.45-0.15    c-0.76-0.24-1.35-0.45-1.84-0.65c-0.44-0.17-0.85-0.34-1.26-0.53c-0.5-0.22-1.08-0.49-1.67-0.79c-0.46-0.24-0.87-0.45-1.29-0.68    c-0.42-0.24-1.26-0.78-1.53-0.96l-0.36-0.23c-0.28-0.17-0.56-0.35-0.83-0.54c-0.06-0.04-0.11-0.07-0.16-0.11    c-0.16-0.12-0.74-0.58-1.21-0.95l-1.21-0.96c-0.07-0.05-0.14-0.11-0.21-0.17c-0.17-0.14-0.33-0.28-0.49-0.41    c-0.08-0.06-0.15-0.13-0.22-0.19c-17.16-15.33-30.54-30.05-39.77-43.77c-1.93-2.87-1.45-6.65,0.97-8.96    c-5.15-9.07-8.19-19.61-9.68-25.85c-3.77-0.01-6.9-3.08-6.95-6.89c-0.12-8.81,3.2-17.16,9.35-23.49    c6.16-6.33,14.41-9.89,23.22-10.01l0.42-0.01c10.03,0,19.37,4.49,25.7,12.3l18.4,22.7l17.74-23.21    c6.22-8.13,15.61-12.88,25.78-13.02l0.42-0.01c18.01,0,32.82,14.62,33.08,32.58C335,244.69,326,273.26,281.77,315.08z"/>
<path class="st9" d="M320.77,228.28c0.16,11.29-5.94,36.24-48.51,76.53c-0.17,0.15-0.34,0.3-0.51,0.45l-1.32,1.11    c-0.15,0.13-0.29,0.25-0.45,0.38c-0.08,0.05-0.16,0.11-0.25,0.17l-0.47,0.32c-0.16,0.11-0.6,0.41-0.86,0.57    c-0.22,0.14-0.44,0.25-0.7,0.39c-0.35,0.19-0.66,0.36-0.95,0.49c-0.23,0.11-0.46,0.22-0.7,0.32c-0.28,0.12-0.63,0.25-1.06,0.41    l-0.75,0.26c-0.32,0.1-0.82,0.22-1.11,0.29l-0.81,0.2c-0.37,0.07-0.84,0.13-1.07,0.16c-0.37,0.05-0.73,0.11-1.08,0.16    c-0.4,0.04-0.77,0.06-1.09,0.07h-0.82c-0.23,0-0.47-0.02-0.72-0.03c-0.35-0.05-0.71-0.09-1.08-0.13c-0.2-0.02-0.68-0.07-1.08-0.13    l-0.87-0.19c-0.2-0.05-0.72-0.16-1.06-0.25l-0.77-0.25c-0.43-0.13-0.76-0.25-1.04-0.36c-0.25-0.1-0.48-0.2-0.72-0.31    c-0.29-0.12-0.62-0.28-1-0.48c-0.23-0.11-0.45-0.22-0.68-0.35c-0.26-0.15-0.72-0.45-0.9-0.57l-0.41-0.26    c-0.1-0.06-0.19-0.12-0.28-0.18c-0.18-0.14-0.46-0.37-0.71-0.56l-1.14-0.9c-0.16-0.14-0.32-0.28-0.48-0.41    c-16.24-14.52-28.82-28.33-37.39-41.06c-2.16-3.21-6.51-4.06-9.71-1.9c-0.05,0.04-0.1,0.08-0.15,0.11    c-0.28,0.2-0.54,0.42-0.78,0.65c-5.15-9.07-8.19-19.61-9.68-25.85c0.05,0,0.1,0.01,0.15,0.01c0.29-0.01,0.58-0.03,0.86-0.07    c3.45-0.48,6.09-3.46,6.04-7.03c-0.07-5.07,1.84-9.88,5.39-13.53c3.55-3.65,8.3-5.7,13.33-5.77l0.33-0.01    c5.72,0,11.11,2.59,14.77,7.11l23.99,29.61c1.35,1.67,3.43,2.61,5.54,2.59c2.14-0.03,4.16-1.04,5.46-2.75l23.15-30.27    c3.59-4.7,9-7.44,14.8-7.52l0.33-0.01C312.09,209.51,320.62,217.93,320.77,228.28z"/>
<path class="st3" d="M369.6,360.19c-0.09,0.01-0.18,0.02-0.24,0.02c-0.14,0.01-0.23,0.02-0.32,0.04l-0.29,0.03    c-0.25,0.03-0.49,0.05-0.72,0.09c-0.17,0.03-0.33,0.07-0.49,0.1c-0.31,0.07-0.53,0.12-0.75,0.18c-0.2,0.05-0.38,0.11-0.55,0.17    c-0.22,0.07-0.45,0.15-0.68,0.24c-0.15,0.05-0.31,0.12-0.47,0.19c-0.24,0.1-0.46,0.21-0.69,0.33c-0.19,0.09-0.31,0.15-0.42,0.22    c-0.24,0.13-0.47,0.27-0.7,0.42l-0.37,0.24c-0.24,0.16-0.47,0.35-0.71,0.54c-0.09,0.07-0.2,0.16-0.31,0.24    c-0.31,0.27-0.59,0.53-0.84,0.78c-0.03,0.03-0.06,0.06-0.08,0.08c-0.24,0.25-0.47,0.52-0.72,0.82c-0.11,0.15-0.18,0.25-0.26,0.36    c-0.18,0.23-0.35,0.47-0.52,0.72l-0.21,0.36c-0.15,0.24-0.28,0.46-0.41,0.7c-0.06,0.12-0.11,0.22-0.16,0.33l-0.05,0.11    c-0.11,0.23-0.21,0.46-0.31,0.7c-0.06,0.15-0.12,0.32-0.18,0.49c-0.08,0.22-0.15,0.44-0.22,0.67c-0.05,0.19-0.11,0.37-0.15,0.55    c-0.05,0.22-0.1,0.44-0.14,0.67c-0.05,0.25-0.08,0.42-0.11,0.59c-0.03,0.22-0.04,0.45-0.06,0.69l-0.03,0.31    c-0.01,0.09-0.02,0.18-0.02,0.28c-0.01,0.11-0.01,0.21-0.02,0.31c-0.5,17.38,2.55,29.79,8.83,35.89c2.45,2.38,5.69,3.68,9.1,3.62    c3.42-0.05,6.61-1.42,8.99-3.87c2.75-2.83,4.02-6.7,3.5-10.63c-0.29-2.12,0.42-4.26,1.92-5.8c1.49-1.54,3.61-2.3,5.75-2.08    c3.93,0.41,7.77-0.97,10.51-3.79c4.92-5.06,4.81-13.18-0.25-18.1C399.47,361.9,386.97,359.2,369.6,360.19z"/>
<path class="st3" d="M397.77,124.18c-2.12,0.29-4.26-0.42-5.8-1.92c-1.54-1.49-2.31-3.61-2.08-5.74    c0.41-3.95-0.97-7.78-3.79-10.52c-5.06-4.92-13.18-4.81-18.1,0.25c-6.1,6.28-8.8,18.77-7.81,36.14c0.01,0.11,0.02,0.22,0.02,0.3    c0.01,0.08,0.02,0.18,0.04,0.27l0.03,0.3c0.03,0.26,0.05,0.48,0.09,0.7c0.03,0.17,0.06,0.33,0.1,0.49    c0.07,0.32,0.12,0.55,0.18,0.77c0.05,0.17,0.1,0.35,0.16,0.53c0.08,0.23,0.16,0.46,0.25,0.69c0.06,0.16,0.12,0.32,0.19,0.48    c0.1,0.23,0.21,0.45,0.33,0.68l0.05,0.1c0.06,0.11,0.11,0.22,0.17,0.32c0.13,0.24,0.28,0.47,0.42,0.7l0.24,0.38    c0.16,0.23,0.35,0.46,0.53,0.69l0.25,0.32c0.26,0.3,0.52,0.59,0.78,0.84c0.03,0.03,0.07,0.07,0.1,0.1    c0.01,0.01,0.01,0.01,0.02,0.02c0.19,0.18,0.46,0.42,0.78,0.68c0.15,0.11,0.25,0.18,0.35,0.25c0.24,0.19,0.48,0.37,0.73,0.53    l0.36,0.21c0.24,0.15,0.47,0.28,0.7,0.41c0.12,0.06,0.23,0.11,0.34,0.16c0.01,0,0.1,0.05,0.1,0.05c0.23,0.11,0.46,0.21,0.7,0.31    c0.15,0.06,0.32,0.12,0.49,0.18c0.22,0.08,0.44,0.15,0.67,0.22c0.19,0.05,0.37,0.11,0.55,0.15c0.22,0.05,0.44,0.1,0.67,0.14    c0.25,0.05,0.42,0.08,0.59,0.11c0.22,0.03,0.45,0.04,0.69,0.06l0.31,0.03c0.09,0.01,0.18,0.02,0.28,0.02    c0.11,0.01,0.21,0.01,0.31,0.02c17.38,0.5,29.79-2.55,35.89-8.83c4.92-5.06,4.81-13.17-0.25-18.09    C405.57,124.93,401.7,123.66,397.77,124.18z"/>
<path class="st3" d="M449.46,263.04c-1.71-1.3-2.72-3.32-2.75-5.46c-0.03-2.15,0.93-4.19,2.59-5.54    c3.08-2.49,4.82-6.18,4.76-10.12c-0.05-3.41-1.42-6.61-3.87-8.99c-2.45-2.38-5.66-3.67-9.1-3.62c-8.76,0.12-19.5,7.05-31.09,20.03    c-0.06,0.08-0.13,0.17-0.18,0.22c-0.06,0.08-0.12,0.15-0.18,0.22l-0.18,0.23c-0.16,0.2-0.31,0.38-0.44,0.58    c-0.1,0.12-0.18,0.26-0.27,0.4l-0.05,0.08c-0.13,0.2-0.26,0.4-0.37,0.6c-0.09,0.16-0.17,0.32-0.26,0.49    c-0.11,0.21-0.21,0.43-0.31,0.65c-0.07,0.16-0.14,0.32-0.2,0.48c-0.09,0.24-0.18,0.47-0.25,0.71l-0.04,0.12    c-0.04,0.12-0.08,0.23-0.11,0.34c-0.07,0.26-0.13,0.52-0.19,0.79l-0.1,0.44c-0.05,0.28-0.08,0.57-0.11,0.87    c-0.02,0.12-0.04,0.26-0.05,0.4c-0.04,0.43-0.05,0.81-0.05,1.18v0.1c0.01,0.27,0.03,0.65,0.08,1.07c0.03,0.18,0.05,0.31,0.06,0.44    c0.04,0.27,0.08,0.57,0.14,0.86l0.11,0.42c0.07,0.27,0.13,0.52,0.21,0.78c0.04,0.12,0.09,0.25,0.13,0.37    c0.12,0.32,0.2,0.56,0.3,0.79c0.07,0.16,0.15,0.33,0.23,0.49c0.09,0.2,0.2,0.42,0.32,0.63c0.08,0.16,0.18,0.32,0.27,0.48    c0.12,0.2,0.26,0.4,0.39,0.59c0.13,0.2,0.23,0.34,0.34,0.49c0.13,0.17,0.27,0.34,0.42,0.51l0.21,0.25    c0.06,0.08,0.12,0.15,0.19,0.23c0.06,0.07,0.13,0.14,0.2,0.22C422.1,279.39,432.94,286,441.64,286h0.25    c3.41-0.05,6.61-1.43,8.99-3.88c2.38-2.45,3.67-5.68,3.62-9.1C454.44,269.09,452.61,265.45,449.46,263.04z"/>
<path class="st6" d="M347.58,281.05c0,3.86-3.14,7-7,7c-0.91,0-1.77-0.18-2.56-0.5c-0.16-0.07-0.32-0.13-0.47-0.2    c-0.15-0.07-0.29-0.16-0.44-0.25c-2.1-1.2-3.54-3.45-3.54-6.05c0-3.87,3.13-7,7-7h0.01c1.35,0,2.61,0.4,3.68,1.08    c0.14,0.08,0.29,0.16,0.43,0.26c0.14,0.1,0.26,0.21,0.39,0.32C346.61,276.99,347.58,278.9,347.58,281.05z"/>
<path class="st6" d="M364.76,227.66c0.15,10.39-1.87,21.3-5.99,32.43c-1.31,3.53-5.17,5.37-8.72,4.22    c-0.09-0.03-0.18-0.06-0.27-0.09c-0.07-0.02-0.14-0.05-0.2-0.08c-0.16-0.06-0.31-0.14-0.46-0.21c-3.19-1.56-4.73-5.31-3.48-8.71    c3.52-9.5,5.25-18.7,5.12-27.36c-0.38-27.04-22.67-48.75-49.72-48.34c-15.1,0.21-29.04,7.25-38.26,19.3    c-1.3,1.7-3.31,2.72-5.46,2.75h-0.1c-2.11,0-4.1-0.95-5.43-2.6c-9.56-11.78-23.72-18.41-38.79-18.21    c-27.03,0.38-48.72,22.69-48.34,49.72c0.41,28.93,21,61.76,61.22,97.58c0.18,0.14,0.33,0.27,0.48,0.4    c0.39,0.34,0.78,0.64,1.16,0.94l0.56,0.44c0.8,0.64,1.52,1.21,2.2,1.69c0.55,0.39,1.11,0.75,1.68,1.11l0.18,0.12    c0.69,0.45,1.51,0.96,2.31,1.42c0.61,0.35,1.24,0.67,1.87,1c0.85,0.43,1.7,0.83,2.53,1.2c0.6,0.26,1.21,0.52,1.82,0.76    c0.83,0.33,1.73,0.65,2.76,0.98l0.3,0.1c0.48,0.16,0.97,0.32,1.46,0.45c1.03,0.3,2.1,0.54,3.01,0.73l0.67,0.15    c0.31,0.08,0.63,0.15,0.95,0.21c1.16,0.21,2.37,0.35,3.4,0.46c0.26,0.03,0.53,0.07,0.8,0.11c0.17,0.02,0.34,0.05,0.52,0.06    c1.65,0.14,3.17,0.19,4.65,0.18c0.08-0.01,0.17-0.01,0.25-0.01c1.38-0.02,2.91-0.12,4.59-0.31c0.17-0.01,0.34-0.05,0.52-0.08    c0.26-0.04,0.53-0.08,0.8-0.12c1.02-0.14,2.22-0.32,3.37-0.56c0.32-0.07,0.64-0.15,0.97-0.24l0.64-0.16    c0.91-0.22,1.97-0.49,2.98-0.81c0.51-0.16,1-0.34,1.5-0.51l0.26-0.1c1.03-0.36,1.91-0.71,2.71-1.04c0.61-0.27,1.22-0.55,1.83-0.83    c0.8-0.38,1.63-0.81,2.45-1.26c0.64-0.35,1.26-0.69,1.88-1.07c0.77-0.46,1.56-1,2.24-1.46l0.16-0.11    c0.57-0.39,1.14-0.77,1.69-1.19c0.64-0.48,1.32-1.05,2.03-1.66l0.65-0.54c0.38-0.31,0.76-0.63,1.13-0.96    c0.15-0.15,0.32-0.29,0.48-0.43c10.82-10.19,20.27-20.27,28.12-29.96c2.43-3,6.84-3.47,9.84-1.03c0.04,0.03,0.07,0.07,0.11,0.1    c0.13,0.11,0.25,0.22,0.37,0.34c0.12,0.12,0.23,0.24,0.35,0.37c2.24,2.5,2.39,6.33,0.21,9.03c-8.26,10.21-18.19,20.79-29.5,31.45    c-0.19,0.17-0.38,0.33-0.57,0.49c-0.52,0.47-1.05,0.92-1.58,1.36l-0.57,0.48c-0.84,0.7-1.7,1.43-2.65,2.15    c-0.73,0.55-1.48,1.06-2.23,1.57l-0.15,0.11c-0.83,0.56-1.83,1.23-2.88,1.87c-0.79,0.48-1.6,0.93-2.42,1.38    c-1.04,0.57-2.11,1.12-3.16,1.61c-0.78,0.38-1.57,0.73-2.36,1.07c-1.05,0.45-2.18,0.89-3.47,1.35l-0.26,0.09    c-0.67,0.24-1.34,0.48-2.02,0.69c-1.37,0.43-2.7,0.77-3.81,1.04l-0.52,0.13c-0.52,0.14-1.04,0.27-1.57,0.38    c-1.57,0.33-3.07,0.56-4.33,0.73c-0.15,0.02-0.29,0.04-0.44,0.07c-0.42,0.07-0.84,0.13-1.26,0.18c-2.15,0.24-4.13,0.37-6.08,0.39    h-0.1c-0.01,0-0.02,0-0.02,0c-0.25,0.01-0.51,0.01-0.76,0.01c-1.64,0-3.38-0.08-5.23-0.23c-0.42-0.03-0.83-0.09-1.24-0.14    c-0.15-0.02-0.3-0.04-0.44-0.06c-1.28-0.14-2.79-0.32-4.37-0.61c-0.52-0.09-1.04-0.2-1.56-0.32l-0.53-0.12    c-1.13-0.24-2.46-0.55-3.87-0.95c-0.66-0.18-1.32-0.4-1.97-0.61l-0.29-0.09c-1.3-0.42-2.46-0.84-3.55-1.26    c-0.79-0.31-1.57-0.64-2.35-0.99c-1.08-0.47-2.17-0.99-3.25-1.54c-0.82-0.42-1.62-0.84-2.42-1.3c-1.1-0.62-2.11-1.26-2.96-1.81    l-0.18-0.11c-0.75-0.48-1.5-0.96-2.23-1.48c-1-0.71-1.9-1.43-2.78-2.13l-0.52-0.42c-0.54-0.42-1.08-0.85-1.61-1.31    c-0.22-0.16-0.4-0.31-0.58-0.47c-43.34-38.58-65.55-74.9-66.02-107.94c-0.24-16.84,6.1-32.76,17.84-44.83    c11.73-12.07,27.47-18.85,44.3-19.09c16.65-0.2,32.39,6.01,44.28,17.34c11.56-11.66,27.11-18.35,43.76-18.58    c16.86-0.21,32.76,6.1,44.83,17.83C357.75,195.09,364.52,210.83,364.76,227.66z"/>
<path class="st6" d="M334.77,228.09c0.23,16.6-8.77,45.17-53,86.99c-0.06,0.06-0.14,0.13-0.21,0.19    c-0.16,0.14-0.32,0.28-0.47,0.43c-0.08,0.06-0.15,0.13-0.23,0.19l-1.34,1.12c-0.35,0.31-0.7,0.61-1.07,0.89    c-0.05,0.04-0.1,0.08-0.16,0.12c-0.22,0.16-0.47,0.33-0.74,0.51l-0.4,0.27c-0.25,0.18-1.08,0.73-1.5,0.99    c-0.4,0.24-0.81,0.46-1.21,0.68c-0.63,0.35-1.17,0.63-1.69,0.87c-0.41,0.2-0.82,0.38-1.23,0.56c-0.47,0.2-1.07,0.43-1.83,0.7    l-0.39,0.14c-0.24,0.09-0.47,0.17-0.7,0.25c-0.04,0.01-0.08,0.03-0.12,0.04c-0.52,0.16-1.5,0.41-1.9,0.51l-1.07,0.27    c-0.14,0.03-0.28,0.07-0.43,0.09c-0.59,0.11-1.5,0.24-1.87,0.29c-0.39,0.06-0.71,0.11-1.03,0.16c-0.15,0.02-0.3,0.04-0.45,0.06    c-0.84,0.08-1.64,0.13-2.37,0.15h-1.35c-0.52-0.01-1.06-0.04-1.64-0.08c-0.14-0.01-0.29-0.02-0.43-0.04    c-0.33-0.04-0.66-0.09-0.99-0.12c-0.37-0.04-1.31-0.15-1.95-0.25c-0.14-0.02-0.28-0.05-0.42-0.08l-1.06-0.24    c-0.34-0.07-1.38-0.3-1.96-0.47c-0.04-0.01-0.07-0.02-0.1-0.03c-0.19-0.05-0.41-0.13-0.64-0.2l-0.45-0.15    c-0.76-0.24-1.35-0.45-1.84-0.65c-0.44-0.17-0.85-0.34-1.26-0.53c-0.5-0.22-1.08-0.49-1.67-0.79c-0.46-0.24-0.87-0.45-1.29-0.68    c-0.42-0.24-1.26-0.78-1.53-0.96l-0.36-0.23c-0.28-0.17-0.56-0.35-0.83-0.54c-0.06-0.04-0.11-0.07-0.16-0.11    c-0.16-0.12-0.74-0.58-1.21-0.95l-1.21-0.96c-0.07-0.05-0.14-0.11-0.21-0.17c-0.17-0.14-0.33-0.28-0.49-0.41    c-0.08-0.06-0.15-0.13-0.22-0.19c-17.16-15.33-30.54-30.05-39.77-43.77c-1.93-2.87-1.45-6.65,0.97-8.96    c0.24-0.23,0.5-0.45,0.78-0.65c0.05-0.03,0.1-0.07,0.15-0.11c3.2-2.16,7.55-1.31,9.71,1.9c8.57,12.73,21.15,26.54,37.39,41.06    c0.16,0.13,0.32,0.27,0.48,0.41l1.14,0.9c0.25,0.19,0.53,0.42,0.71,0.56c0.09,0.06,0.18,0.12,0.28,0.18l0.41,0.26    c0.18,0.12,0.64,0.42,0.9,0.57c0.23,0.13,0.45,0.24,0.68,0.35c0.38,0.2,0.71,0.36,1,0.48c0.24,0.11,0.47,0.21,0.72,0.31    c0.28,0.11,0.61,0.23,1.04,0.36l0.77,0.25c0.34,0.09,0.86,0.2,1.06,0.25l0.87,0.19c0.4,0.06,0.88,0.11,1.08,0.13    c0.37,0.04,0.73,0.08,1.08,0.13c0.25,0.01,0.49,0.03,0.72,0.03h0.82c0.32-0.01,0.69-0.03,1.09-0.07c0.35-0.05,0.71-0.11,1.08-0.16    c0.23-0.03,0.7-0.09,1.07-0.16l0.81-0.2c0.29-0.07,0.79-0.19,1.11-0.29l0.75-0.26c0.43-0.16,0.78-0.29,1.06-0.41    c0.24-0.1,0.47-0.21,0.7-0.32c0.29-0.13,0.6-0.3,0.95-0.49c0.26-0.14,0.48-0.25,0.7-0.39c0.26-0.16,0.7-0.46,0.86-0.57l0.47-0.32    c0.09-0.06,0.17-0.12,0.25-0.17c0.16-0.13,0.3-0.25,0.45-0.38l1.32-1.11c0.17-0.15,0.34-0.3,0.51-0.45    c42.57-40.29,48.67-65.24,48.51-76.53c-0.15-10.35-8.68-18.77-19.02-18.77l-0.33,0.01c-5.8,0.08-11.21,2.82-14.8,7.52    l-23.15,30.27c-1.3,1.71-3.32,2.72-5.46,2.75c-2.11,0.02-4.19-0.92-5.54-2.59l-23.99-29.61c-3.66-4.52-9.05-7.11-14.77-7.11    l-0.33,0.01c-5.03,0.07-9.78,2.12-13.33,5.77c-3.55,3.65-5.46,8.46-5.39,13.53c0.05,3.57-2.59,6.55-6.04,7.03    c-0.28,0.04-0.57,0.06-0.86,0.07c-0.05,0-0.1-0.01-0.15-0.01c-3.77-0.01-6.9-3.08-6.95-6.89c-0.12-8.81,3.2-17.16,9.35-23.49    c6.16-6.33,14.41-9.89,23.22-10.01l0.42-0.01c10.03,0,19.37,4.49,25.7,12.3l18.4,22.7l17.74-23.21    c6.22-8.13,15.61-12.88,25.78-13.02l0.42-0.01C319.7,195.51,334.51,210.13,334.77,228.09z"/>
<path class="st6" d="M240.49,112.84c0.21,0.18,0.42,0.35,0.64,0.52l0.16,0.13c0.39,0.31,0.78,0.62,1.19,0.91    c0.31,0.22,0.63,0.43,1.02,0.68c0.41,0.26,0.83,0.52,1.26,0.77c0.34,0.19,0.69,0.37,1.03,0.55c0.46,0.23,0.92,0.45,1.38,0.65    c0.33,0.15,0.67,0.29,1,0.42c0.5,0.2,1.01,0.38,1.52,0.54l0.1,0.03c0.28,0.1,0.57,0.19,0.86,0.27c0.54,0.16,1.09,0.28,1.64,0.4    l0.14,0.03c0.25,0.06,0.5,0.12,0.75,0.16c0.61,0.11,1.23,0.19,1.9,0.27c0.22,0.03,0.45,0.05,0.67,0.07    c0.79,0.07,1.52,0.1,2.19,0.1h0.4c0.83-0.02,1.68-0.07,2.59-0.17c0.23-0.03,0.45-0.06,0.72-0.1c0.62-0.09,1.23-0.19,1.84-0.31    c0.25-0.06,0.5-0.12,0.75-0.18l0.13-0.04c0.55-0.13,1.09-0.28,1.63-0.45c0.3-0.09,0.59-0.19,0.97-0.33    c0.49-0.17,0.99-0.36,1.47-0.57c0.34-0.14,0.67-0.29,1.01-0.45c0.46-0.22,0.9-0.45,1.35-0.69c0.35-0.19,0.69-0.39,1.02-0.59    c0.42-0.25,0.83-0.52,1.28-0.83c0.32-0.22,0.64-0.44,0.97-0.68c0.38-0.29,0.75-0.6,1.16-0.95l0.15-0.12    c0.21-0.17,0.41-0.34,0.63-0.54c0.11-0.1,0.24-0.21,0.33-0.29c15.88-14.96,23.84-29.14,23.66-42.13    c-0.21-14.78-12.39-26.6-27.17-26.42c-5.68,0.08-11.05,1.92-15.48,5.2c-4.53-3.15-9.97-4.82-15.62-4.76    c-7.16,0.1-13.85,2.98-18.84,8.12c-4.99,5.13-7.68,11.9-7.58,19.05c0.18,12.99,8.54,26.94,24.8,41.42    C240.24,112.64,240.36,112.74,240.49,112.84z M229.31,70.91c-0.05-3.41,1.24-6.64,3.62-9.1c2.38-2.45,5.58-3.82,8.99-3.87    c3.91-0.07,7.63,1.68,10.12,4.76c1.33,1.64,3.33,2.59,5.44,2.59h0.1c2.15-0.03,4.16-1.04,5.46-2.75c2.41-3.15,6.05-4.98,9.98-5.04    c3.44-0.04,6.65,1.24,9.1,3.62c2.45,2.38,3.83,5.58,3.88,8.99c0.12,8.76-6.5,19.69-19.13,31.62c-0.09,0.08-0.17,0.15-0.23,0.21    c-0.07,0.06-0.15,0.12-0.22,0.18l-0.25,0.21c-0.18,0.15-0.35,0.3-0.53,0.44c-0.14,0.1-0.28,0.2-0.49,0.34    c-0.19,0.13-0.38,0.26-0.58,0.38c-0.16,0.1-0.32,0.19-0.48,0.27c-0.21,0.12-0.43,0.23-0.64,0.33c-0.16,0.07-0.32,0.15-0.48,0.22    c-0.23,0.1-0.47,0.18-0.8,0.3c-0.12,0.04-0.24,0.09-0.36,0.13c-0.26,0.08-0.51,0.14-0.78,0.21l-0.42,0.11    c-0.29,0.06-0.59,0.1-0.87,0.14c-0.13,0.01-0.25,0.03-0.43,0.06c-0.42,0.05-0.8,0.07-1.07,0.08h-0.1c-0.37,0-0.75-0.01-1.18-0.05    c-0.14-0.01-0.28-0.03-0.4-0.05c-0.3-0.03-0.59-0.06-0.87-0.11l-0.44-0.1c-0.27-0.06-0.53-0.12-0.79-0.19    c-0.11-0.03-0.22-0.07-0.34-0.11l-0.12-0.04c-0.24-0.07-0.47-0.16-0.71-0.25c-0.16-0.06-0.32-0.13-0.48-0.2    c-0.22-0.1-0.44-0.2-0.65-0.31c-0.17-0.09-0.33-0.17-0.49-0.26c-0.2-0.11-0.4-0.24-0.6-0.37l-0.08-0.05    c-0.14-0.09-0.28-0.17-0.4-0.27c-0.2-0.13-0.38-0.28-0.58-0.44l-0.23-0.18c-0.07-0.06-0.14-0.12-0.22-0.18    c-0.05-0.05-0.14-0.12-0.22-0.18C236.36,90.41,229.43,79.67,229.31,70.91z"/>
<path class="st6" d="M426.27,136.47c-0.1-7.15-2.98-13.84-8.11-18.83c-4.07-3.95-9.17-6.45-14.62-7.28    c-0.98-5.42-3.62-10.45-7.68-14.4c-0.01,0-0.01,0-0.01,0c-10.59-10.3-27.59-10.06-37.89,0.53c-9.05,9.32-13.01,25.09-11.74,46.87    c0.01,0.15,0.02,0.3,0.04,0.45c0.02,0.27,0.05,0.54,0.08,0.81l0.03,0.25c0.06,0.49,0.12,0.97,0.2,1.44    c0.06,0.38,0.14,0.75,0.24,1.21c0.1,0.48,0.21,0.96,0.35,1.44c0.1,0.37,0.22,0.74,0.34,1.11c0.15,0.49,0.32,0.96,0.51,1.44    c0.13,0.34,0.26,0.67,0.41,1.01c0.21,0.49,0.45,0.97,0.73,1.53c0.14,0.27,0.28,0.54,0.43,0.8c0.27,0.5,0.57,0.98,0.88,1.46    l0.08,0.12c0.13,0.22,0.27,0.43,0.41,0.63c0.41,0.6,0.82,1.12,1.15,1.53c0.13,0.17,0.27,0.35,0.43,0.53    c0.58,0.7,1.16,1.31,1.69,1.83c0.03,0.03,0.05,0.05,0.08,0.07c0.59,0.58,1.23,1.14,1.94,1.71c0.18,0.15,0.36,0.28,0.58,0.44    c0.5,0.37,1,0.74,1.52,1.08c0.22,0.14,0.44,0.27,0.66,0.41l0.12,0.07c0.48,0.29,0.97,0.57,1.46,0.83    c0.28,0.14,0.56,0.28,0.92,0.45c0.48,0.22,0.96,0.44,1.46,0.64c0.34,0.14,0.68,0.26,1.02,0.39c0.48,0.17,0.96,0.32,1.44,0.46    c0.38,0.11,0.76,0.22,1.15,0.31c0.47,0.12,0.95,0.22,1.48,0.32c0.39,0.07,0.77,0.14,1.17,0.2c0.48,0.07,0.97,0.11,1.49,0.15    l0.18,0.02c0.29,0.03,0.58,0.05,0.85,0.07c0.14,0.01,0.29,0.02,0.43,0.02c1.41,0.04,2.79,0.06,4.15,0.06    c19.65,0,33.9-4.4,42.37-13.12C423.68,150.4,426.37,143.63,426.27,136.47z M408.65,145.77c-6.1,6.28-18.51,9.33-35.89,8.83    c-0.1-0.01-0.2-0.01-0.31-0.02c-0.1,0-0.19-0.01-0.28-0.02l-0.31-0.03c-0.24-0.02-0.47-0.03-0.69-0.06    c-0.17-0.03-0.34-0.06-0.59-0.11c-0.23-0.04-0.45-0.09-0.67-0.14c-0.18-0.04-0.36-0.1-0.55-0.15c-0.23-0.07-0.45-0.14-0.67-0.22    c-0.17-0.06-0.34-0.12-0.49-0.18c-0.24-0.1-0.47-0.2-0.7-0.31c0,0-0.09-0.05-0.1-0.05c-0.11-0.05-0.22-0.1-0.34-0.16    c-0.23-0.13-0.46-0.26-0.7-0.41l-0.36-0.21c-0.25-0.16-0.49-0.34-0.73-0.53c-0.1-0.07-0.2-0.14-0.35-0.25    c-0.32-0.26-0.59-0.5-0.78-0.68c-0.01-0.01-0.01-0.01-0.02-0.02c-0.03-0.03-0.07-0.07-0.1-0.1c-0.26-0.25-0.52-0.54-0.78-0.84    l-0.25-0.32c-0.18-0.23-0.37-0.46-0.53-0.69l-0.24-0.38c-0.14-0.23-0.29-0.46-0.42-0.7c-0.06-0.1-0.11-0.21-0.17-0.32l-0.05-0.1    c-0.12-0.23-0.23-0.45-0.33-0.68c-0.07-0.16-0.13-0.32-0.19-0.48c-0.09-0.23-0.17-0.46-0.25-0.69c-0.06-0.18-0.11-0.36-0.16-0.53    c-0.06-0.22-0.11-0.45-0.18-0.77c-0.04-0.16-0.07-0.32-0.1-0.49c-0.04-0.22-0.06-0.44-0.09-0.7l-0.03-0.3    c-0.02-0.09-0.03-0.19-0.04-0.27c0-0.08-0.01-0.19-0.02-0.3c-0.99-17.37,1.71-29.86,7.81-36.14c4.92-5.06,13.04-5.17,18.1-0.25    c2.82,2.74,4.2,6.57,3.79,10.52c-0.23,2.13,0.54,4.25,2.08,5.74c1.54,1.5,3.68,2.21,5.8,1.92c3.93-0.52,7.8,0.75,10.63,3.5    C413.46,132.6,413.57,140.71,408.65,145.77z"/>
<path class="st6" d="M468.06,241.73c-0.1-7.16-2.98-13.85-8.12-18.84c-5.13-4.99-11.88-7.66-19.05-7.58    c-12.99,0.18-26.94,8.54-41.42,24.8c-0.11,0.13-0.21,0.25-0.31,0.38c-0.18,0.21-0.35,0.42-0.52,0.64l-0.13,0.16    c-0.31,0.39-0.62,0.78-0.91,1.19c-0.22,0.31-0.43,0.63-0.68,1.02c-0.26,0.41-0.52,0.83-0.77,1.26c-0.19,0.34-0.37,0.69-0.55,1.03    c-0.23,0.46-0.45,0.92-0.65,1.38c-0.15,0.33-0.29,0.67-0.42,1c-0.2,0.5-0.38,1.01-0.54,1.52l-0.03,0.1    c-0.1,0.28-0.19,0.57-0.27,0.86c-0.16,0.54-0.28,1.09-0.4,1.64l-0.03,0.14c-0.06,0.25-0.12,0.5-0.16,0.75    c-0.11,0.61-0.19,1.23-0.27,1.9c-0.03,0.22-0.05,0.45-0.07,0.67c-0.08,0.91-0.11,1.76-0.1,2.49v0.1c0.02,0.83,0.07,1.68,0.17,2.59    c0.02,0.23,0.06,0.45,0.1,0.72c0.09,0.62,0.19,1.23,0.31,1.84l0.18,0.75l0.04,0.13c0.13,0.55,0.28,1.09,0.45,1.63    c0.09,0.31,0.2,0.6,0.32,0.97c0.18,0.49,0.37,0.99,0.58,1.48c0.14,0.33,0.29,0.66,0.45,1c0.22,0.45,0.45,0.9,0.69,1.36    c0.19,0.34,0.38,0.68,0.59,1.02c0.25,0.41,0.52,0.81,0.83,1.28c0.22,0.31,0.44,0.63,0.68,0.95c0.29,0.38,0.59,0.75,0.94,1.17    l0.13,0.15c0.17,0.2,0.35,0.41,0.54,0.63c0.1,0.11,0.2,0.23,0.29,0.33c14.8,15.7,28.82,23.66,41.69,23.66h0.44    c7.16-0.1,13.85-2.99,18.84-8.12s7.68-11.9,7.58-19.05c-0.08-5.68-1.92-11.05-5.2-15.48C466.45,252.82,468.14,247.4,468.06,241.73    z M450.88,282.12c-2.38,2.45-5.58,3.83-8.99,3.88h-0.25c-8.7,0-19.54-6.61-31.38-19.14c-0.07-0.08-0.14-0.15-0.2-0.22    c-0.07-0.08-0.13-0.15-0.19-0.23l-0.21-0.25c-0.15-0.17-0.29-0.34-0.42-0.51c-0.11-0.15-0.21-0.29-0.34-0.49    c-0.13-0.19-0.27-0.39-0.39-0.59c-0.09-0.16-0.19-0.32-0.27-0.48c-0.12-0.21-0.23-0.43-0.32-0.63c-0.08-0.16-0.16-0.33-0.23-0.49    c-0.1-0.23-0.18-0.47-0.3-0.79c-0.04-0.12-0.09-0.25-0.13-0.37c-0.08-0.26-0.14-0.51-0.21-0.78l-0.11-0.42    c-0.06-0.29-0.1-0.59-0.14-0.86c-0.01-0.13-0.03-0.26-0.06-0.44c-0.05-0.42-0.07-0.8-0.08-1.07v-0.1c0-0.37,0.01-0.75,0.05-1.18    c0.01-0.14,0.03-0.28,0.05-0.4c0.03-0.3,0.06-0.59,0.11-0.87l0.1-0.44c0.06-0.27,0.12-0.53,0.19-0.79    c0.03-0.11,0.07-0.22,0.11-0.34l0.04-0.12c0.07-0.24,0.16-0.47,0.25-0.71c0.06-0.16,0.13-0.32,0.2-0.48    c0.1-0.22,0.2-0.44,0.31-0.65c0.09-0.17,0.17-0.33,0.26-0.49c0.11-0.2,0.24-0.4,0.37-0.6l0.05-0.08c0.09-0.14,0.17-0.28,0.27-0.4    c0.13-0.2,0.28-0.38,0.44-0.58l0.18-0.23c0.06-0.07,0.12-0.14,0.18-0.22c0.05-0.05,0.12-0.14,0.18-0.22    c11.59-12.98,22.33-19.91,31.09-20.03c3.44-0.05,6.65,1.24,9.1,3.62c2.45,2.38,3.82,5.58,3.87,8.99    c0.06,3.94-1.68,7.63-4.76,10.12c-1.66,1.35-2.62,3.39-2.59,5.54c0.03,2.14,1.04,4.16,2.75,5.46c3.15,2.41,4.98,6.05,5.04,9.98    C454.55,276.44,453.26,279.67,450.88,282.12z"/>
<path class="st6" d="M368.64,346.22c-0.15,0.01-0.29,0.02-0.44,0.04c-0.28,0.02-0.56,0.05-0.83,0.09l-0.17,0.02    c-0.51,0.05-1.01,0.11-1.51,0.2c-0.39,0.06-0.77,0.14-1.2,0.24c-0.49,0.1-0.97,0.22-1.43,0.34c-0.37,0.11-0.75,0.22-1.13,0.34    c-0.48,0.16-0.96,0.33-1.45,0.52c-0.34,0.13-0.67,0.27-1,0.41c-0.49,0.21-0.97,0.45-1.49,0.71c-0.28,0.15-0.57,0.29-0.85,0.45    c-0.49,0.27-0.97,0.57-1.44,0.87l-0.12,0.08c-0.22,0.14-0.44,0.28-0.64,0.42c-0.51,0.35-1.01,0.73-1.54,1.16    c-0.17,0.13-0.35,0.27-0.52,0.42c-0.67,0.57-1.28,1.12-1.84,1.7c-0.02,0.02-0.04,0.05-0.07,0.07c-0.58,0.6-1.13,1.23-1.71,1.95    c-0.14,0.17-0.27,0.35-0.43,0.57c-0.37,0.5-0.74,1-1.08,1.52c-0.14,0.22-0.27,0.44-0.41,0.66l-0.07,0.12    c-0.29,0.49-0.57,0.97-0.82,1.46c-0.15,0.27-0.28,0.55-0.41,0.83l-0.05,0.09c-0.22,0.47-0.44,0.96-0.64,1.47    c-0.14,0.33-0.26,0.67-0.39,1.01c-0.17,0.48-0.32,0.96-0.46,1.44c-0.11,0.38-0.22,0.76-0.31,1.15c-0.12,0.47-0.22,0.95-0.32,1.48    c-0.07,0.38-0.14,0.77-0.2,1.17c-0.07,0.48-0.11,0.97-0.15,1.49l-0.02,0.18c-0.03,0.3-0.05,0.59-0.07,0.85    c-0.01,0.14-0.02,0.29-0.02,0.43c-0.65,21.81,3.74,37.46,13.06,46.52c5.04,4.9,11.65,7.58,18.67,7.58h0.39    c7.15-0.1,13.84-2.98,18.83-8.11c3.95-4.07,6.45-9.17,7.27-14.62c5.43-0.98,10.46-3.62,14.41-7.68v-0.01    c10.3-10.59,10.06-27.59-0.53-37.89C406.19,348.91,390.42,344.96,368.64,346.22z M406,386.1c-2.74,2.82-6.58,4.2-10.51,3.79    c-2.14-0.22-4.26,0.54-5.75,2.08c-1.5,1.54-2.21,3.68-1.92,5.8c0.52,3.93-0.75,7.8-3.5,10.63c-2.38,2.45-5.57,3.82-8.99,3.87    c-3.41,0.06-6.65-1.24-9.1-3.62c-6.28-6.1-9.33-18.51-8.83-35.89c0.01-0.1,0.01-0.2,0.02-0.31c0-0.1,0.01-0.19,0.02-0.28    l0.03-0.31c0.02-0.24,0.03-0.47,0.06-0.69c0.03-0.17,0.06-0.34,0.11-0.59c0.04-0.23,0.09-0.45,0.14-0.67    c0.04-0.18,0.1-0.36,0.15-0.55c0.07-0.23,0.14-0.45,0.22-0.67c0.06-0.17,0.12-0.34,0.18-0.49c0.1-0.24,0.2-0.47,0.31-0.7    l0.05-0.11c0.05-0.11,0.1-0.21,0.16-0.33c0.13-0.24,0.26-0.46,0.41-0.7l0.21-0.36c0.17-0.25,0.34-0.49,0.52-0.72    c0.08-0.11,0.15-0.21,0.26-0.36c0.25-0.3,0.48-0.57,0.72-0.82c0.02-0.02,0.05-0.05,0.08-0.08c0.25-0.25,0.53-0.51,0.84-0.78    c0.11-0.08,0.22-0.17,0.31-0.24c0.24-0.19,0.47-0.38,0.71-0.54l0.37-0.24c0.23-0.15,0.46-0.29,0.7-0.42    c0.11-0.07,0.23-0.13,0.42-0.22c0.23-0.12,0.45-0.23,0.69-0.33c0.16-0.07,0.32-0.14,0.47-0.19c0.23-0.09,0.46-0.17,0.68-0.24    c0.17-0.06,0.35-0.12,0.55-0.17c0.22-0.06,0.44-0.11,0.75-0.18c0.16-0.03,0.32-0.07,0.49-0.1c0.23-0.04,0.47-0.06,0.72-0.09    l0.29-0.03c0.09-0.02,0.18-0.03,0.32-0.04c0.06,0,0.15-0.01,0.24-0.02c17.37-0.99,29.87,1.71,36.15,7.81    C410.81,372.92,410.92,381.04,406,386.1z"/>
<path class="st6" d="M239.17,468.5c5.68-0.08,11.05-1.92,15.48-5.2c4.53,3.15,9.97,4.86,15.62,4.76    c7.16-0.1,13.85-2.98,18.84-8.12c4.99-5.13,7.68-11.9,7.58-19.05c-0.18-13-8.54-26.94-24.8-41.42c-0.13-0.11-0.25-0.21-0.38-0.31    c-0.21-0.18-0.42-0.35-0.63-0.51l-0.21-0.17c-0.38-0.3-0.75-0.6-1.16-0.89c-0.31-0.22-0.63-0.42-1.01-0.67    c-0.41-0.26-0.83-0.52-1.26-0.76c-0.34-0.2-0.69-0.38-1.03-0.56c-0.45-0.23-0.91-0.45-1.4-0.66c-0.33-0.15-0.65-0.28-0.98-0.41    c-0.5-0.2-1-0.37-1.53-0.55l-0.1-0.03c-0.28-0.09-0.57-0.18-0.84-0.26c-0.55-0.15-1.1-0.28-1.63-0.4l-0.15-0.03    c-0.25-0.06-0.5-0.11-0.76-0.16c-0.61-0.11-1.23-0.19-1.89-0.27c-0.23-0.03-0.45-0.05-0.68-0.07c-0.77-0.07-1.53-0.1-2.2-0.1    c-0.1,0-0.15,0.01-0.29,0h-0.12c-0.82,0.02-1.69,0.07-2.59,0.17c-0.22,0.03-0.44,0.06-0.69,0.1c-0.62,0.09-1.24,0.19-1.83,0.31    c-0.26,0.05-0.51,0.12-0.76,0.18l-0.14,0.04c-0.55,0.13-1.1,0.28-1.61,0.44c-0.29,0.09-0.58,0.19-0.87,0.29l-0.12,0.05    c-0.49,0.17-0.99,0.36-1.48,0.57c-0.34,0.14-0.67,0.29-1,0.45c-0.46,0.22-0.9,0.45-1.35,0.69c-0.35,0.19-0.69,0.39-1.03,0.59    c-0.42,0.25-0.82,0.52-1.24,0.81c-0.34,0.23-0.67,0.46-0.99,0.69c-0.39,0.3-0.77,0.62-1.17,0.96l-0.15,0.12    c-0.21,0.18-0.42,0.35-0.63,0.54c-0.11,0.1-0.23,0.2-0.33,0.29c-15.88,14.96-23.84,29.14-23.66,42.13    c0.1,7.16,2.99,13.85,8.12,18.84c5.04,4.9,11.65,7.58,18.67,7.58H239.17z M226,441.88c-0.12-8.74,6.49-19.67,19.14-31.62    c0.08-0.07,0.15-0.14,0.22-0.2c0.07-0.06,0.15-0.12,0.22-0.18l0.24-0.2c0.18-0.15,0.35-0.31,0.55-0.45    c0.14-0.11,0.28-0.2,0.48-0.34c0.19-0.13,0.38-0.26,0.58-0.38c0.16-0.1,0.32-0.18,0.48-0.27c0.21-0.12,0.43-0.23,0.64-0.33    c0.16-0.07,0.32-0.15,0.48-0.22c0.23-0.1,0.47-0.18,0.69-0.26l0.13-0.05c0.11-0.04,0.21-0.08,0.35-0.12    c0.25-0.08,0.51-0.14,0.76-0.21l0.43-0.1c0.29-0.07,0.58-0.11,0.9-0.15l0.4-0.06c0.38-0.04,0.74-0.07,1.08-0.08h0.17    c0.34,0,0.72,0.02,1.11,0.05l0.38,0.04c0.3,0.04,0.6,0.07,0.88,0.12l0.44,0.1c0.26,0.06,0.52,0.11,0.79,0.19    c0.12,0.03,0.23,0.07,0.34,0.11l0.1,0.03c0.25,0.08,0.49,0.16,0.73,0.26c0.17,0.06,0.33,0.13,0.47,0.2    c0.23,0.09,0.44,0.2,0.67,0.32c0.16,0.08,0.32,0.16,0.48,0.25c0.2,0.11,0.4,0.24,0.67,0.41c0.15,0.1,0.29,0.19,0.41,0.27    c0.19,0.14,0.36,0.28,0.57,0.44l0.24,0.19c0.07,0.06,0.15,0.12,0.22,0.18c0.05,0.05,0.14,0.12,0.22,0.18    c12.98,11.58,19.91,22.33,20.03,31.09c0.05,3.41-1.24,6.65-3.62,9.1c-2.38,2.45-5.58,3.82-8.99,3.87    c-3.91,0.05-7.63-1.68-10.12-4.76c-1.35-1.67-3.4-2.65-5.54-2.59c-2.15,0.03-4.16,1.04-5.46,2.75c-2.41,3.15-6.05,4.98-9.98,5.04    c-3.44,0.08-6.65-1.24-9.1-3.62C227.43,448.5,226.05,445.3,226,441.88z"/>
<path class="st6" d="M93.84,394.36c4.07,3.95,9.17,6.45,14.62,7.27c0.98,5.43,3.62,10.46,7.68,14.41h0.01    c5.03,4.9,11.65,7.58,18.66,7.58h0.39c7.16-0.1,13.85-2.98,18.84-8.11c9.05-9.32,13.01-25.09,11.74-46.88    c-0.01-0.14-0.02-0.29-0.04-0.44c-0.02-0.27-0.05-0.54-0.08-0.81l-0.03-0.24c-0.06-0.49-0.12-0.98-0.2-1.45    c-0.06-0.38-0.14-0.74-0.24-1.21c-0.1-0.48-0.21-0.96-0.35-1.44c-0.1-0.37-0.21-0.73-0.34-1.11c-0.15-0.49-0.32-0.96-0.5-1.43    c-0.14-0.34-0.27-0.68-0.42-1.02c-0.21-0.49-0.44-0.97-0.69-1.45l-0.05-0.09c-0.13-0.27-0.27-0.53-0.41-0.79    c-0.28-0.49-0.58-0.97-0.89-1.47l-0.09-0.13c-0.12-0.2-0.25-0.4-0.4-0.61c-0.36-0.52-0.74-1.01-1.16-1.53    c-0.13-0.18-0.27-0.36-0.42-0.53c-0.58-0.69-1.16-1.31-1.69-1.83c-0.03-0.03-0.07-0.07-0.11-0.1c-0.58-0.57-1.23-1.14-1.92-1.69    c-0.18-0.14-0.36-0.27-0.57-0.43c-0.5-0.37-1-0.74-1.5-1.06c-0.23-0.16-0.46-0.3-0.7-0.44l-0.1-0.05    c-0.48-0.3-0.97-0.58-1.46-0.84c-0.26-0.13-0.52-0.26-0.79-0.38l-0.13-0.07c-0.48-0.23-0.96-0.44-1.45-0.64    c-0.34-0.13-0.69-0.27-1.04-0.39c-0.47-0.17-0.95-0.32-1.45-0.47c-0.38-0.11-0.75-0.21-1.12-0.3c-0.47-0.12-0.96-0.22-1.49-0.32    c-0.39-0.07-0.77-0.14-1.17-0.2c-0.47-0.07-0.95-0.11-1.48-0.15l-0.18-0.02c-0.29-0.03-0.57-0.05-0.84-0.06    c-0.15-0.02-0.3-0.03-0.45-0.03c-21.81-0.65-37.46,3.74-46.52,13.06C83.01,367.06,83.25,384.06,93.84,394.36z M103.35,366.23    c6.1-6.27,18.5-9.34,35.88-8.83c0.1,0.01,0.2,0.01,0.31,0.02c0.1,0,0.21,0.01,0.31,0.02l0.32,0.03c0.22,0.02,0.45,0.03,0.66,0.06    c0.17,0.03,0.34,0.06,0.59,0.11c0.22,0.04,0.45,0.08,0.68,0.14c0.19,0.05,0.37,0.1,0.53,0.15c0.23,0.07,0.47,0.14,0.69,0.22    c0.17,0.06,0.32,0.12,0.49,0.19c0.23,0.09,0.46,0.19,0.67,0.29l0.14,0.07c0.1,0.05,0.21,0.09,0.32,0.15    c0.23,0.13,0.46,0.26,0.71,0.41l0.36,0.22c0.25,0.16,0.48,0.34,0.73,0.53l0.33,0.24c0.31,0.24,0.59,0.49,0.83,0.72    c0.04,0.04,0.07,0.07,0.1,0.1c0.26,0.26,0.52,0.54,0.79,0.85l0.21,0.28c0.19,0.24,0.38,0.47,0.53,0.69l0.25,0.39    c0.14,0.23,0.29,0.45,0.42,0.69c0.06,0.11,0.11,0.21,0.17,0.32l0.05,0.11c0.12,0.22,0.23,0.45,0.33,0.68    c0.07,0.16,0.13,0.32,0.19,0.48c0.09,0.23,0.17,0.46,0.25,0.68c0.05,0.18,0.11,0.36,0.16,0.54c0.06,0.22,0.11,0.45,0.16,0.68    c0,0,0.02,0.09,0.02,0.1c0.04,0.15,0.07,0.31,0.1,0.48c0.04,0.22,0.06,0.44,0.09,0.7l0.03,0.3c0.02,0.09,0.03,0.19,0.04,0.27    c0,0.08,0.01,0.19,0.02,0.3c0.99,17.37-1.71,29.86-7.81,36.14c-2.38,2.45-5.58,3.83-9,3.87c-3.42,0.08-6.65-1.23-9.1-3.62    c-2.49-2.42-3.86-5.7-3.86-9.15c0-0.46,0.02-0.91,0.07-1.37c0.23-2.13-0.54-4.25-2.08-5.74c-1.54-1.5-3.68-2.21-5.8-1.92    c-3.93,0.52-7.8-0.75-10.63-3.5C98.54,379.4,98.43,371.29,103.35,366.23z"/>
<path class="st6" d="M43.5,239.17c0.08,5.68,1.92,11.05,5.2,15.48c-3.15,4.53-4.84,9.95-4.76,15.62    c0.21,14.65,12.19,26.42,26.79,26.42h0.38c12.99-0.18,26.94-8.54,41.42-24.8c0.11-0.13,0.21-0.25,0.31-0.38    c0.18-0.21,0.35-0.42,0.52-0.64l0.14-0.17c0.31-0.39,0.62-0.78,0.89-1.17c0.22-0.31,0.42-0.61,0.62-0.92l0.07-0.11    c0.26-0.41,0.52-0.83,0.76-1.25c0.2-0.35,0.38-0.7,0.56-1.04c0.23-0.45,0.45-0.91,0.65-1.38c0.15-0.33,0.29-0.67,0.42-1    c0.2-0.5,0.38-1.01,0.54-1.51l0.03-0.11c0.1-0.28,0.19-0.57,0.27-0.86c0.16-0.54,0.28-1.09,0.4-1.64l0.03-0.14    c0.06-0.25,0.12-0.5,0.16-0.75c0.11-0.61,0.19-1.23,0.27-1.9c0.03-0.22,0.05-0.45,0.07-0.67c0.08-0.91,0.11-1.76,0.1-2.49v-0.1    c-0.02-0.83-0.07-1.68-0.17-2.59c-0.03-0.23-0.06-0.45-0.1-0.72c-0.09-0.62-0.19-1.23-0.31-1.84l-0.18-0.75l-0.04-0.13    c-0.13-0.55-0.28-1.09-0.45-1.63c-0.09-0.3-0.19-0.59-0.33-0.97c-0.17-0.49-0.36-0.99-0.57-1.47c-0.14-0.34-0.29-0.67-0.45-1.01    c-0.22-0.46-0.45-0.9-0.69-1.35c-0.19-0.35-0.39-0.69-0.59-1.02c-0.25-0.42-0.52-0.83-0.83-1.28c-0.22-0.32-0.44-0.64-0.68-0.97    c-0.29-0.38-0.6-0.75-0.95-1.16l-0.12-0.15c-0.17-0.21-0.34-0.41-0.54-0.63c-0.1-0.11-0.21-0.24-0.29-0.33    C97.09,219.78,82.9,211.83,69.92,212C55.14,212.21,43.29,224.4,43.5,239.17z M61.12,229.88c2.38-2.45,5.58-3.83,8.99-3.88h0.25    c8.71,0,19.55,6.61,31.37,19.13c0.08,0.09,0.15,0.17,0.21,0.23c0.06,0.07,0.12,0.15,0.18,0.22l0.21,0.25    c0.15,0.18,0.3,0.35,0.44,0.53c0.1,0.14,0.2,0.28,0.34,0.49c0.13,0.19,0.26,0.38,0.38,0.58c0.1,0.16,0.19,0.32,0.27,0.48    c0.12,0.21,0.23,0.43,0.33,0.64c0.07,0.16,0.15,0.32,0.22,0.48c0.1,0.23,0.18,0.47,0.3,0.8c0.04,0.12,0.09,0.24,0.13,0.36    c0.08,0.26,0.14,0.51,0.21,0.78l0.11,0.42c0.06,0.29,0.1,0.59,0.14,0.87c0.01,0.13,0.03,0.25,0.06,0.43    c0.05,0.42,0.07,0.8,0.08,1.07v0.1c0,0.37-0.01,0.75-0.05,1.18c-0.01,0.14-0.03,0.28-0.05,0.4c-0.03,0.3-0.06,0.59-0.11,0.87    l-0.1,0.44c-0.06,0.27-0.12,0.53-0.19,0.79c-0.03,0.11-0.07,0.22-0.11,0.34l-0.04,0.12c-0.07,0.24-0.15,0.47-0.25,0.71    c-0.06,0.16-0.13,0.32-0.2,0.48c-0.09,0.22-0.2,0.43-0.31,0.66c-0.09,0.16-0.17,0.32-0.26,0.48c-0.11,0.2-0.24,0.4-0.36,0.59    l-0.07,0.11c-0.09,0.13-0.17,0.26-0.26,0.39c-0.13,0.19-0.28,0.37-0.44,0.57l-0.18,0.23c-0.06,0.07-0.12,0.15-0.16,0.19    c-0.05,0.07-0.13,0.16-0.2,0.25c-11.59,12.98-22.33,19.91-31.09,20.03c-7.04,0.1-12.87-5.56-12.97-12.61    c-0.06-3.94,1.68-7.63,4.76-10.12c1.66-1.35,2.62-3.39,2.59-5.54c-0.03-2.15-1.04-4.16-2.75-5.46c-3.15-2.41-4.98-6.05-5.04-9.98    C57.45,235.56,58.74,232.33,61.12,229.88z"/>
<path class="st6" d="M136.47,85.73c-7.15,0.1-13.84,2.98-18.83,8.11c-3.95,4.07-6.45,9.17-7.28,14.62    c-5.42,0.98-10.45,3.62-14.4,7.68c0,0.01,0,0.01,0,0.01c-10.3,10.59-10.06,27.59,0.53,37.89c8.19,7.95,21.35,11.97,39.2,11.97    c2.47,0,5.03-0.08,7.67-0.23c0.15-0.01,0.3-0.02,0.45-0.04c0.27-0.02,0.54-0.05,0.81-0.08l0.25-0.03c0.49-0.06,0.97-0.12,1.44-0.2    c0.38-0.06,0.75-0.14,1.21-0.24c0.48-0.1,0.96-0.21,1.44-0.35c0.37-0.1,0.74-0.22,1.11-0.34c0.49-0.15,0.96-0.32,1.44-0.51    c0.34-0.13,0.67-0.26,1.01-0.41c0.49-0.21,0.97-0.45,1.53-0.73c0.27-0.14,0.54-0.28,0.8-0.43c0.5-0.27,0.98-0.57,1.46-0.88    l0.12-0.08c0.22-0.13,0.43-0.27,0.63-0.41c0.6-0.41,1.12-0.82,1.53-1.15c0.17-0.13,0.35-0.27,0.53-0.43    c0.7-0.58,1.31-1.16,1.83-1.69c0.03-0.03,0.05-0.05,0.07-0.08c0.58-0.59,1.14-1.23,1.71-1.94c0.15-0.18,0.28-0.36,0.44-0.58    c0.37-0.5,0.74-1,1.08-1.52c0.14-0.22,0.27-0.44,0.41-0.66l0.07-0.12c0.29-0.48,0.57-0.97,0.83-1.46    c0.14-0.28,0.28-0.56,0.45-0.92c0.22-0.48,0.44-0.96,0.64-1.46c0.14-0.34,0.26-0.68,0.39-1.02c0.17-0.48,0.32-0.96,0.46-1.44    c0.11-0.38,0.22-0.76,0.31-1.15c0.12-0.47,0.22-0.95,0.32-1.48c0.07-0.39,0.14-0.77,0.2-1.17c0.07-0.48,0.11-0.97,0.15-1.49    l0.02-0.18c0.03-0.29,0.05-0.58,0.07-0.85c0.01-0.14,0.02-0.29,0.02-0.43c0.65-21.81-3.74-37.46-13.06-46.52    C150.4,88.32,143.65,85.62,136.47,85.73z M154.6,139.24c-0.01,0.1-0.01,0.2-0.02,0.31c0,0.1-0.01,0.19-0.02,0.28l-0.03,0.31    c-0.02,0.24-0.03,0.47-0.06,0.69c-0.03,0.17-0.06,0.34-0.11,0.59c-0.04,0.23-0.09,0.45-0.14,0.67c-0.04,0.18-0.1,0.36-0.15,0.55    c-0.07,0.23-0.14,0.45-0.22,0.67c-0.06,0.17-0.12,0.34-0.18,0.49c-0.1,0.24-0.2,0.47-0.31,0.7c0,0-0.05,0.09-0.05,0.1    c-0.05,0.11-0.1,0.22-0.16,0.34c-0.13,0.23-0.26,0.46-0.41,0.7l-0.21,0.36c-0.16,0.25-0.34,0.49-0.53,0.73    c-0.07,0.1-0.14,0.2-0.25,0.35c-0.26,0.32-0.5,0.59-0.68,0.78c-0.01,0.01-0.01,0.01-0.02,0.02l-0.1,0.1    c-0.26,0.27-0.55,0.53-0.86,0.8l-0.3,0.23c-0.23,0.18-0.46,0.37-0.69,0.53l-0.38,0.24c-0.23,0.14-0.46,0.29-0.7,0.42    c-0.1,0.06-0.21,0.11-0.32,0.17l-0.1,0.05c-0.23,0.12-0.45,0.23-0.68,0.33c-0.16,0.07-0.32,0.13-0.48,0.19    c-0.23,0.09-0.46,0.17-0.69,0.25c-0.18,0.06-0.36,0.11-0.53,0.16c-0.22,0.06-0.45,0.11-0.77,0.18c-0.16,0.04-0.32,0.07-0.49,0.1    c-0.22,0.04-0.44,0.06-0.7,0.09l-0.3,0.03c-0.09,0.02-0.19,0.03-0.27,0.04c-0.08,0-0.19,0.01-0.3,0.02    c-17.37,0.99-29.86-1.71-36.14-7.81c-5.06-4.92-5.17-13.04-0.25-18.1c2.74-2.82,6.58-4.2,10.52-3.79    c2.13,0.23,4.25-0.54,5.74-2.08c1.5-1.54,2.21-3.68,1.92-5.8c-0.52-3.93,0.75-7.8,3.5-10.63c4.91-5.06,13.03-5.17,18.09-0.25    C152.05,109.45,155.1,121.86,154.6,139.24z"/>
<path class="st6" d="M305.08,130.75c0.25,0.39,0.55,0.74,0.87,1.07c0.32,0.32,0.68,0.61,1.06,0.87c0.38,0.25,0.79,0.47,1.21,0.64    c0.42,0.18,0.86,0.31,1.31,0.4c0.45,0.09,0.91,0.14,1.37,0.14c0.45,0,0.91-0.05,1.37-0.14c0.44-0.09,0.88-0.22,1.31-0.4    c0.42-0.17,0.82-0.39,1.2-0.64c0.39-0.26,0.75-0.55,1.07-0.87c0.32-0.33,0.61-0.68,0.87-1.07c0.25-0.38,0.47-0.78,0.64-1.21    c0.18-0.42,0.31-0.86,0.4-1.31s0.14-0.91,0.14-1.36c0-1.85-0.75-3.65-2.05-4.95c-0.32-0.32-0.68-0.62-1.07-0.87    c-0.38-0.26-0.78-0.47-1.2-0.65c-0.43-0.17-0.87-0.31-1.31-0.4c-0.91-0.18-1.84-0.18-2.74,0c-0.45,0.09-0.89,0.23-1.31,0.4    c-0.42,0.18-0.83,0.39-1.21,0.65c-0.38,0.25-0.74,0.55-1.06,0.87c-0.32,0.32-0.62,0.68-0.87,1.06s-0.47,0.79-0.65,1.21    c-0.17,0.42-0.3,0.86-0.39,1.31c-0.1,0.45-0.14,0.91-0.14,1.37c0,0.45,0.04,0.91,0.14,1.36c0.09,0.45,0.22,0.89,0.39,1.31    C304.61,129.97,304.83,130.37,305.08,130.75z"/>
<path class="st6" d="M393.13,203.51c0-0.46-0.05-0.92-0.14-1.37c-0.09-0.45-0.22-0.89-0.4-1.31c-0.17-0.42-0.39-0.83-0.64-1.21    c-0.26-0.38-0.55-0.74-0.87-1.06c-0.32-0.33-0.68-0.62-1.06-0.87s-0.79-0.47-1.21-0.65c-0.43-0.17-0.87-0.3-1.31-0.39    c-0.91-0.19-1.84-0.19-2.74,0c-0.45,0.09-0.89,0.22-1.31,0.39c-0.42,0.18-0.83,0.4-1.21,0.65s-0.74,0.54-1.06,0.87    c-0.32,0.32-0.62,0.68-0.87,1.06s-0.47,0.79-0.64,1.21c-0.18,0.42-0.31,0.86-0.4,1.31c-0.09,0.45-0.14,0.91-0.14,1.37    c0,0.45,0.05,0.91,0.14,1.37c0.09,0.44,0.22,0.88,0.4,1.31c0.17,0.42,0.39,0.82,0.64,1.2c0.25,0.39,0.55,0.75,0.87,1.07    c0.32,0.32,0.68,0.61,1.06,0.87c0.38,0.25,0.79,0.47,1.21,0.64c0.42,0.18,0.86,0.31,1.31,0.4s0.91,0.14,1.37,0.14    c1.84,0,3.65-0.75,4.95-2.05c0.32-0.32,0.61-0.68,0.87-1.07c0.25-0.38,0.47-0.78,0.64-1.2c0.18-0.43,0.31-0.87,0.4-1.31    C393.08,204.42,393.13,203.96,393.13,203.51z"/>
<path class="st6" d="M382.46,317.36c0.42,0.18,0.86,0.31,1.3,0.4c0.46,0.09,0.92,0.14,1.37,0.14c0.46,0,0.92-0.05,1.37-0.14    c0.45-0.09,0.89-0.22,1.31-0.4c0.42-0.17,0.83-0.39,1.21-0.64c0.38-0.26,0.74-0.55,1.06-0.87c1.31-1.31,2.05-3.11,2.05-4.95    c0-0.46-0.04-0.92-0.13-1.37c-0.09-0.45-0.23-0.89-0.4-1.31c-0.18-0.42-0.39-0.83-0.65-1.21c-0.25-0.38-0.54-0.74-0.87-1.06    c-1.62-1.63-4.04-2.37-6.32-1.92c-0.44,0.09-0.88,0.23-1.3,0.4c-0.43,0.18-0.83,0.4-1.21,0.65c-0.39,0.25-0.74,0.55-1.07,0.87    c-0.32,0.32-0.61,0.68-0.87,1.06c-0.25,0.38-0.47,0.79-0.64,1.21c-0.18,0.42-0.31,0.86-0.4,1.31c-0.09,0.45-0.14,0.91-0.14,1.37    c0,1.84,0.75,3.65,2.05,4.95c0.33,0.32,0.68,0.61,1.07,0.87C381.63,316.97,382.03,317.19,382.46,317.36z"/>
<path class="st6" d="M311.17,379.66c-0.42-0.17-0.86-0.31-1.31-0.39c-2.27-0.46-4.69,0.28-6.32,1.91c-1.3,1.3-2.05,3.1-2.05,4.95    c0,0.45,0.05,0.92,0.14,1.37c0.09,0.44,0.22,0.88,0.4,1.31c0.17,0.42,0.39,0.82,0.64,1.2c0.26,0.39,0.55,0.75,0.87,1.07    c1.31,1.3,3.11,2.05,4.95,2.05c0.46,0,0.92-0.05,1.37-0.14c0.45-0.09,0.89-0.22,1.31-0.4c0.42-0.17,0.83-0.39,1.21-0.64    c0.38-0.26,0.74-0.55,1.06-0.87c0.32-0.32,0.62-0.68,0.87-1.07c0.25-0.38,0.47-0.78,0.65-1.2c0.17-0.43,0.31-0.87,0.4-1.31    c0.09-0.46,0.13-0.92,0.13-1.37c0-1.84-0.74-3.65-2.05-4.95c-0.32-0.32-0.68-0.62-1.06-0.87    C312,380.06,311.59,379.84,311.17,379.66z"/>
<path class="st6" d="M206.92,381.25c-0.25-0.39-0.55-0.74-0.87-1.07c-1.3-1.3-3.1-2.05-4.95-2.05c-1.84,0-3.64,0.75-4.95,2.05    c-0.32,0.33-0.61,0.68-0.87,1.07c-0.25,0.38-0.47,0.78-0.64,1.21c-0.18,0.42-0.31,0.86-0.4,1.31s-0.14,0.91-0.14,1.36    c0,0.46,0.05,0.92,0.14,1.37s0.22,0.89,0.4,1.31c0.17,0.42,0.39,0.83,0.64,1.21c0.26,0.38,0.55,0.74,0.87,1.06    c1.31,1.31,3.11,2.05,4.95,2.05c0.46,0,0.92-0.04,1.37-0.13c0.45-0.09,0.89-0.23,1.31-0.4c0.42-0.18,0.83-0.4,1.21-0.65    s0.74-0.55,1.06-0.87s0.62-0.68,0.87-1.06c0.25-0.38,0.47-0.79,0.65-1.21c0.17-0.42,0.31-0.86,0.39-1.31    c0.1-0.45,0.14-0.91,0.14-1.37c0-0.45-0.04-0.91-0.14-1.36c-0.08-0.45-0.22-0.89-0.39-1.31    C207.39,382.03,207.17,381.63,206.92,381.25z"/>
<path class="st6" d="M119.01,309.86c0.09,0.45,0.22,0.89,0.4,1.31c0.17,0.42,0.39,0.83,0.64,1.21c0.26,0.38,0.55,0.74,0.87,1.06    c0.32,0.33,0.68,0.62,1.07,0.87c0.37,0.25,0.78,0.47,1.2,0.65c0.43,0.17,0.87,0.31,1.31,0.39c0.45,0.1,0.91,0.14,1.37,0.14    c0.46,0,0.92-0.04,1.37-0.14c0.44-0.08,0.88-0.22,1.31-0.39c0.42-0.18,0.83-0.4,1.21-0.65s0.74-0.54,1.06-0.87    c0.32-0.32,0.62-0.68,0.87-1.06s0.47-0.79,0.64-1.21c0.18-0.42,0.31-0.86,0.4-1.31c0.09-0.45,0.14-0.91,0.14-1.37    c0-1.84-0.75-3.64-2.05-4.95c-0.32-0.32-0.68-0.61-1.06-0.87c-0.38-0.25-0.79-0.47-1.21-0.64c-0.42-0.18-0.86-0.31-1.31-0.4    c-2.28-0.46-4.69,0.29-6.32,1.91c-1.3,1.31-2.05,3.11-2.05,4.95C118.87,308.95,118.92,309.41,119.01,309.86z"/>
<path class="st6" d="M122.98,206.92c0.38,0.25,0.79,0.47,1.21,0.65c0.42,0.17,0.86,0.3,1.31,0.39c0.45,0.1,0.91,0.14,1.37,0.14    c0.45,0,0.91-0.04,1.36-0.14c0.45-0.09,0.89-0.22,1.31-0.39c0.43-0.18,0.83-0.4,1.21-0.65c0.39-0.25,0.74-0.55,1.07-0.87    c1.3-1.3,2.05-3.1,2.05-4.95c0-1.84-0.75-3.65-2.05-4.95c-0.33-0.32-0.68-0.61-1.07-0.87c-0.38-0.25-0.78-0.47-1.21-0.64    c-0.42-0.18-0.86-0.31-1.31-0.4c-0.9-0.18-1.83-0.18-2.73,0c-0.45,0.09-0.89,0.22-1.31,0.4c-0.42,0.17-0.83,0.39-1.21,0.64    c-0.38,0.26-0.74,0.55-1.06,0.87c-1.31,1.31-2.05,3.11-2.05,4.95s0.74,3.65,2.05,4.95C122.24,206.37,122.6,206.67,122.98,206.92z"/>
<path class="st6" d="M197.69,129.76c0.25,0.38,0.55,0.74,0.87,1.06c1.3,1.3,3.1,2.05,4.95,2.05c1.84,0,3.64-0.75,4.95-2.05    c1.3-1.3,2.05-3.11,2.05-4.95s-0.75-3.65-2.05-4.95c-1.31-1.3-3.11-2.05-4.95-2.05c-1.85,0-3.65,0.75-4.95,2.05    c-1.31,1.3-2.05,3.11-2.05,4.95c0,0.46,0.04,0.92,0.13,1.37c0.09,0.44,0.23,0.89,0.4,1.31    C197.22,128.97,197.44,129.38,197.69,129.76z"/>
</g>
</g>
</svg>