<?xml version="1.0" ?>
<!-- Uploaded to: SVG Repo, www.svgrepo.com, Generator: SVG Repo Mixer Tools -->
<svg width="800px" height="800px" viewBox="0 0 512 512" version="1.1" xml:space="preserve" xmlns="http://www.w3.org/2000/svg" xmlns:xlink="http://www.w3.org/1999/xlink">
<style type="text/css">
	.st0{display:none;}
	.st1{fill:#FFE2D2;}
	.st2{fill:#FFDE83;}
	.st3{fill:#F57070;}
	.st4{fill:#DBDBEF;}
	.st5{fill:#BCE2FF;}
	.st6{fill:#48446D;}
	.st7{fill:#6E78FF;}
	.st8{fill:#FFBE83;}
	.st9{fill:#F5949E;}
	.st10{fill:#D0FF67;}
	.st11{fill:#C69C6D;}
	.st12{fill:#C5BDD3;}
	.st13{fill:#FFE2B8;}
	.st14{fill:#F54670;}
</style>
<g class="st0" id="Layer_1"/>
<g id="Layer_2">
<path class="st3" d="M190.63,266.64v-33c-0.16-0.02-0.31-0.06-0.47-0.08c-0.14-0.01-0.28-0.03-0.43-0.04   c-0.5-0.05-1.01-0.08-1.55-0.08c-5.78,0-8.4,2.53-12.35,6.36c-4.74,4.58-10.64,10.29-22.08,10.29c-11.43,0-17.33-5.71-22.07-10.29   c-3.95-3.83-6.57-6.36-12.35-6.36c-5.77,0-8.38,2.53-12.34,6.36c-4.74,4.58-10.63,10.29-22.07,10.29c-0.74,0-1.47-0.03-2.19-0.08   C82.65,250,82.55,250,82.47,250v16.64c0,24.63,16.56,46.12,40.31,52.33c0.11,0.02,0.2,0.05,0.29,0.07c8.82,2.27,18.14,2.27,26.95,0   c0.11-0.03,0.22-0.05,0.32-0.07C174.08,312.74,190.63,291.26,190.63,266.64z"/>
<path class="st4" d="M57.5,136.07v28.1c0,3.6-2.71,6.55-6.21,6.94c-0.17,0.01-0.33,0.03-0.5,0.04c-0.1,0.02-0.19,0.02-0.29,0.02   c-0.07,0-0.14-0.01-0.21-0.01v10.15c0.17,0,0.33-0.01,0.5,0s0.33,0.03,0.5,0.05c1.56,0.18,3.05,0.88,4.16,1.99   c1.3,1.3,2.05,3.1,2.05,4.94c0,0.46-0.05,0.92-0.14,1.37c-0.09,0.45-0.22,0.89-0.4,1.31c-0.17,0.43-0.39,0.83-0.64,1.21   c-0.26,0.39-0.55,0.74-0.87,1.07c-1.11,1.11-2.6,1.81-4.16,1.99c-0.17,0.01-0.33,0.03-0.5,0.04c-0.1,0.01-0.19,0.01-0.29,0.01   c-0.07,0-0.14-0.01-0.21-0.01v15.2c0.07,0,0.14-0.01,0.21-0.01c0.1,0,0.19,0,0.29,0.02c0.17,0.01,0.33,0.03,0.5,0.04   c3.5,0.39,6.21,3.34,6.21,6.94v49.17c0,36.1,24.38,67.58,59.28,76.56c3.1,0.8,5.26,3.59,5.26,6.78v75.85   c0,3.02-1.95,5.71-4.82,6.65c-10.06,3.3-19.02,9.11-26.12,16.81H182c-7.09-7.7-16.06-13.52-26.12-16.82   c-2.88-0.95-4.82-3.63-4.82-6.65v-44.99c0-3.57,2.67-6.5,6.12-6.93c0.17-0.02,0.33-0.04,0.5-0.05c0.12-0.02,0.25-0.02,0.38-0.02   c0.04,0,0.08,0.01,0.12,0.01v-16.86c-0.04,0-0.08,0.01-0.12,0.01c-0.13,0-0.26,0-0.38-0.01c-0.17-0.01-0.33-0.05-0.5-0.07   c-2.76-0.35-5.16-2.32-5.9-5.18c-0.96-3.75,1.29-7.56,5.04-8.53c34.9-8.98,59.28-40.46,59.28-76.56V136.07H57.5z M204.63,228.63   v38.01c0,31.09-20.99,58.21-51.05,65.95c-0.11,0.03-0.22,0.05-0.34,0.08c-5.46,1.38-11.08,2.07-16.69,2.07   c-5.63,0-11.25-0.69-16.73-2.08c-0.11-0.02-0.21-0.05-0.31-0.07c-30.05-7.74-51.04-34.86-51.04-65.95v-25.61c0-0.01,0-0.01,0-0.02   v-0.19c0.01-0.24,0.02-0.47,0.05-0.71c0.01-0.07,0.02-0.14,0.03-0.21c0.03-0.22,0.07-0.44,0.12-0.65c0.02-0.06,0.03-0.12,0.04-0.17   c0.08-0.26,0.16-0.53,0.27-0.78c0.01-0.04,0.03-0.08,0.05-0.12c0.07-0.17,0.14-0.34,0.23-0.51c0.02-0.03,0.05-0.07,0.07-0.11   c0.04-0.07,0.09-0.15,0.13-0.23c0.1-0.16,0.21-0.33,0.32-0.48c0.04-0.07,0.09-0.13,0.14-0.2c0.14-0.18,0.29-0.36,0.45-0.52   c0.03-0.03,0.05-0.07,0.08-0.09c0.2-0.21,0.41-0.4,0.62-0.57c0.03-0.03,0.06-0.04,0.09-0.07c0.19-0.15,0.39-0.28,0.59-0.41   c0.03-0.02,0.06-0.04,0.09-0.06c0.03-0.02,0.06-0.03,0.09-0.05c0.2-0.12,0.4-0.22,0.61-0.32c0.05-0.02,0.1-0.05,0.14-0.07   c0.25-0.1,0.5-0.19,0.76-0.27c0.06-0.02,0.13-0.04,0.2-0.05c0.19-0.06,0.39-0.1,0.59-0.14c0.09-0.01,0.17-0.03,0.25-0.04   c0.21-0.03,0.43-0.05,0.64-0.06c0.06,0,0.11-0.01,0.16-0.01c0.28-0.01,0.55,0,0.83,0.03c0.03,0,0.07,0.01,0.11,0.01   c0.23,0.03,0.46,0.06,0.69,0.11c0.08,0.02,0.15,0.03,0.22,0.05c0.2,0.05,0.4,0.11,0.6,0.18c0.07,0.02,0.14,0.05,0.21,0.07   c0.26,0.1,0.52,0.21,0.77,0.34c1.8,0.94,3.77,1.38,6.21,1.38c5.77,0,8.39-2.53,12.34-6.35c4.74-4.59,10.64-10.3,22.07-10.3   c11.44,0,17.34,5.71,22.09,10.3c3.95,3.82,6.56,6.35,12.33,6.35c5.78,0,8.39-2.53,12.34-6.35c4.74-4.59,10.65-10.3,22.09-10.3   c0.64,0,1.27,0.03,1.9,0.06c3.96,0.23,7.51,1.2,10.81,2.94c0.01,0,0.01,0,0.02,0.01c0.25,0.13,0.49,0.28,0.73,0.44   c0.06,0.05,0.12,0.1,0.18,0.14c0.19,0.14,0.36,0.29,0.53,0.44c0.05,0.04,0.1,0.08,0.14,0.12c0.21,0.21,0.41,0.42,0.59,0.64   c0.01,0.02,0.02,0.03,0.03,0.04c0.17,0.21,0.32,0.43,0.46,0.66c0.03,0.06,0.07,0.12,0.11,0.18c0.12,0.21,0.23,0.42,0.33,0.65   c0.02,0.04,0.04,0.08,0.06,0.12c0.11,0.25,0.2,0.52,0.28,0.79c0.02,0.06,0.03,0.13,0.05,0.2c0.06,0.22,0.1,0.44,0.14,0.67   c0.01,0.07,0.02,0.13,0.03,0.2c0.04,0.29,0.06,0.58,0.06,0.87C204.63,228.62,204.63,228.62,204.63,228.63z"/>
<path class="st5" d="M379.7,426.02c-9.2,5.21-16.85,12.68-22.28,21.63l89.11-17.93c-8.47-6.15-18.41-10.08-28.93-11.34   c-3-0.36-5.43-2.6-6.03-5.57l-14.96-74.34c-0.63-3.13,0.94-6.29,3.82-7.69c32.44-15.68,50.13-51.36,43.01-86.75l-4.43-22.04   c-0.77-3.79,1.69-7.49,5.48-8.25c0.14-0.03,0.28-0.03,0.42-0.05c0.17-0.02,0.34-0.05,0.5-0.06c0.17-0.01,0.34-0.01,0.51-0.01   l-2.06-9.38c-0.16,0.06-0.31,0.12-0.47,0.17c-0.16,0.05-0.32,0.09-0.49,0.13c-0.08,0.02-0.17,0.05-0.26,0.07   c-0.45,0.09-0.91,0.14-1.37,0.14s-0.92-0.05-1.37-0.14c-0.45-0.09-0.89-0.23-1.31-0.4c-0.42-0.18-0.83-0.39-1.21-0.64   c-0.38-0.26-0.74-0.55-1.06-0.87c-0.32-0.33-0.62-0.69-0.87-1.07s-0.47-0.78-0.64-1.21c-0.18-0.42-0.31-0.86-0.4-1.31   c-0.09-0.45-0.14-0.91-0.14-1.37c0-0.45,0.05-0.91,0.14-1.36c0.09-0.45,0.22-0.89,0.4-1.31c0.17-0.43,0.39-0.83,0.64-1.21   c0.25-0.39,0.55-0.74,0.87-1.07c0.32-0.32,0.68-0.61,1.06-0.87c0.38-0.25,0.79-0.46,1.21-0.64c0.42-0.17,0.86-0.31,1.31-0.4h0.01   c0.17-0.03,0.32-0.06,0.49-0.07c0.17-0.02,0.34-0.02,0.51-0.03l-2.48-11.33c-0.16,0.05-0.32,0.1-0.48,0.14   c-0.1,0.03-0.21,0.06-0.32,0.08c-0.06,0.01-0.12,0.02-0.17,0.03c-3.73,0.65-7.32-1.78-8.07-5.51l-11.7-58.17L262.7,147.21   l25.75,128c7.12,35.39,37.23,61.45,73.22,63.37c3.86,0.21,6.82,3.5,6.61,7.37c-0.16,3-2.2,5.44-4.91,6.28   c-0.16,0.05-0.32,0.11-0.48,0.15c-0.16,0.04-0.33,0.06-0.49,0.09l2.06,10.45c0.1-0.03,0.2-0.06,0.31-0.08   c0.06-0.01,0.11-0.02,0.17-0.03c0.17-0.03,0.33-0.05,0.5-0.06c3.54-0.38,6.85,2.01,7.57,5.57l10.11,50.23   C383.71,421.51,382.34,424.53,379.7,426.02z M365.92,327.73c-1.12,0-2.24-0.03-3.36-0.09h-0.31c-30.99-1.66-56.92-24.1-63.05-54.59   l-5.05-25.11c0,0,0-0.01-0.01-0.02l-0.01-0.09c-0.01-0.03-0.01-0.06-0.02-0.09c-0.04-0.23-0.07-0.47-0.09-0.71   c-0.01-0.07-0.01-0.14-0.02-0.21c-0.01-0.22-0.01-0.44,0-0.67c0-0.05,0-0.11,0.01-0.17c0.01-0.27,0.05-0.54,0.1-0.82   c0.01-0.04,0.02-0.08,0.03-0.12c0.04-0.18,0.07-0.36,0.13-0.54c0.01-0.04,0.03-0.08,0.04-0.12c0.02-0.09,0.06-0.17,0.09-0.26   c0.06-0.18,0.13-0.36,0.21-0.53c0.03-0.08,0.07-0.15,0.1-0.23c0.1-0.2,0.22-0.4,0.34-0.6c0.02-0.03,0.04-0.07,0.06-0.1   c0.15-0.24,0.32-0.47,0.5-0.69c0.02-0.02,0.04-0.04,0.06-0.07c0.16-0.19,0.33-0.36,0.51-0.53c0.03-0.02,0.05-0.05,0.07-0.07   c0.03-0.03,0.06-0.05,0.08-0.07c0.18-0.16,0.36-0.3,0.55-0.44c0.04-0.03,0.07-0.06,0.11-0.08c0.22-0.16,0.46-0.3,0.7-0.43   c0.05-0.03,0.1-0.05,0.14-0.07c0.2-0.1,0.41-0.19,0.61-0.27c0.07-0.03,0.13-0.05,0.2-0.08c0.22-0.08,0.45-0.15,0.68-0.2   c0.03-0.01,0.06-0.02,0.09-0.03c0.28-0.06,0.56-0.11,0.85-0.14h0.05c0.25-0.03,0.51-0.04,0.76-0.03h0.19   c0.22,0.01,0.44,0.03,0.66,0.06c0.06,0.01,0.13,0.02,0.2,0.03c0.28,0.04,0.55,0.1,0.82,0.18c1.95,0.56,3.97,0.6,6.37,0.12   c3.89-0.78,6.08-2.44,8.08-4.87c0.91-1.11,1.78-2.37,2.76-3.79c3.74-5.43,8.4-12.18,19.61-14.44c11.22-2.26,18.13,2.18,23.68,5.73   c4.63,2.97,7.69,4.93,13.35,3.8c5.65-1.14,7.72-4.13,10.84-8.66c3.75-5.43,8.4-12.19,19.62-14.45c4.64-0.93,8.92-0.79,13.06,0.43   c0.28,0.08,0.56,0.19,0.82,0.3c0.07,0.03,0.14,0.06,0.2,0.1c0.22,0.1,0.42,0.21,0.62,0.33c0.05,0.03,0.1,0.06,0.15,0.09   c0.25,0.15,0.48,0.32,0.71,0.51l0.04,0.04c0.2,0.17,0.39,0.35,0.57,0.54c0.05,0.06,0.1,0.11,0.15,0.16   c0.15,0.18,0.3,0.37,0.44,0.56c0.03,0.04,0.06,0.08,0.09,0.12c0.16,0.23,0.3,0.47,0.43,0.71c0.03,0.07,0.06,0.13,0.09,0.2   c0.1,0.2,0.19,0.41,0.27,0.62c0.02,0.06,0.05,0.13,0.07,0.19c0.09,0.28,0.17,0.56,0.23,0.84c0,0.01,0,0.01,0,0.02l7.5,37.26   c6.13,30.49-9.1,61.21-37.04,74.73c-0.1,0.05-0.21,0.09-0.32,0.14C386.17,325.45,376.07,327.73,365.92,327.73z"/>
<path class="st3" d="M418.97,248.96l-6.51-32.36c-0.16,0.01-0.32,0.01-0.48,0.02c-0.14,0.02-0.29,0.03-0.43,0.04   c-0.5,0.06-1.01,0.13-1.54,0.24c-5.66,1.14-7.73,4.13-10.85,8.66c-3.74,5.43-8.4,12.19-19.61,14.44   c-11.21,2.26-18.12-2.17-23.67-5.73c-4.63-2.97-7.7-4.94-13.36-3.79c-1.06,0.21-2,0.49-2.83,0.83c-3.64,1.48-5.48,4.15-8.01,7.83   c-3.74,5.43-8.4,12.18-19.61,14.44h-0.03c-0.72,0.15-1.43,0.26-2.13,0.35c-0.09,0.01-0.18,0.03-0.27,0.04l3.28,16.32   c4.86,24.15,25.35,41.95,49.86,43.35c0.1,0,0.2,0.01,0.29,0.01c9.09,0.49,18.23-1.35,26.42-5.31c0.1-0.05,0.2-0.1,0.3-0.14   C411.83,297.42,423.82,273.09,418.97,248.96z"/>
<path class="st6" d="M201.94,459.76c-1.25,2.18-3.56,3.53-6.08,3.53H77.23c-2.51,0-4.83-1.35-6.07-3.53   c-1.25-2.18-1.23-4.87,0.05-7.03c8.5-14.42,21.46-25.56,36.83-31.79v-65.69c-38.27-12.27-64.54-47.96-64.54-88.61v-49.17   c0-3.8,3.02-6.88,6.79-6.99c0.07,0,0.14-0.01,0.21-0.01c0.1,0,0.19,0,0.29,0.02c0.17,0.01,0.33,0.03,0.5,0.04   c3.5,0.39,6.21,3.34,6.21,6.94v49.17c0,36.1,24.38,67.58,59.28,76.56c3.1,0.8,5.26,3.59,5.26,6.78v75.85   c0,3.02-1.95,5.71-4.82,6.65c-10.06,3.3-19.02,9.11-26.12,16.81H182c-7.09-7.7-16.06-13.52-26.12-16.82   c-2.88-0.95-4.82-3.63-4.82-6.65v-44.99c0-3.57,2.67-6.5,6.12-6.93c0.17-0.02,0.33-0.04,0.5-0.05c0.12-0.02,0.25-0.02,0.38-0.02   c0.04,0,0.08,0.01,0.12,0.01c3.81,0.06,6.88,3.16,6.88,6.99v40.1c15.38,6.24,28.34,17.38,36.83,31.8   C203.17,454.9,203.19,457.58,201.94,459.76z"/>
<path class="st6" d="M57.5,188.29c0,0.46-0.05,0.92-0.14,1.37c-0.09,0.45-0.22,0.89-0.4,1.31c-0.17,0.43-0.39,0.83-0.64,1.21   c-0.26,0.39-0.55,0.74-0.87,1.07c-1.11,1.11-2.6,1.81-4.16,1.99c-0.17,0.01-0.33,0.03-0.5,0.04c-0.1,0.01-0.19,0.01-0.29,0.01   c-0.07,0-0.14-0.01-0.21-0.01c-0.39-0.01-0.78-0.04-1.16-0.12c-0.44-0.09-0.88-0.23-1.31-0.4c-0.42-0.18-0.83-0.39-1.21-0.64   c-0.38-0.26-0.74-0.55-1.06-0.87c-0.32-0.33-0.62-0.68-0.87-1.07c-0.25-0.38-0.47-0.78-0.64-1.21c-0.18-0.42-0.31-0.86-0.4-1.31   c-0.09-0.45-0.14-0.91-0.14-1.37c0-1.84,0.75-3.64,2.05-4.94c0.32-0.33,0.68-0.62,1.06-0.87c0.38-0.26,0.79-0.47,1.21-0.65   c0.43-0.17,0.87-0.31,1.31-0.4c0.38-0.08,0.77-0.11,1.16-0.12c0.17,0,0.33-0.01,0.5,0s0.33,0.03,0.5,0.05   c1.56,0.18,3.05,0.88,4.16,1.99C56.75,184.65,57.5,186.45,57.5,188.29z"/>
<path class="st6" d="M229.6,129.07v137.57c0,42.49-28.7,79.55-69.79,90.12c-0.55,0.14-1.1,0.21-1.63,0.22   c-0.04,0-0.08,0.01-0.12,0.01c-0.13,0-0.26,0-0.38-0.01c-0.17-0.01-0.33-0.05-0.5-0.07c-2.76-0.35-5.16-2.32-5.9-5.18   c-0.96-3.75,1.29-7.56,5.04-8.53c34.9-8.98,59.28-40.46,59.28-76.56V136.07H57.5v28.1c0,3.6-2.71,6.55-6.21,6.94   c-0.17,0.01-0.33,0.03-0.5,0.04c-0.1,0.02-0.19,0.02-0.29,0.02c-0.07,0-0.14-0.01-0.21-0.01c-3.77-0.11-6.79-3.19-6.79-6.99v-35.1   c0-3.87,3.13-7,7-7h172.1C226.46,122.07,229.6,125.2,229.6,129.07z"/>
<path class="st6" d="M204.57,227.74c-0.01-0.07-0.02-0.13-0.03-0.2c-0.04-0.23-0.08-0.45-0.14-0.67c-0.02-0.07-0.03-0.14-0.05-0.2   c-0.08-0.27-0.17-0.54-0.28-0.79c-0.02-0.04-0.04-0.08-0.06-0.12c-0.1-0.23-0.21-0.44-0.33-0.65c-0.04-0.06-0.08-0.12-0.11-0.18   c-0.14-0.23-0.29-0.45-0.46-0.66c-0.01-0.01-0.02-0.02-0.03-0.04c-0.18-0.22-0.38-0.43-0.59-0.64c-0.04-0.04-0.09-0.08-0.14-0.12   c-0.17-0.15-0.34-0.3-0.53-0.44c-0.06-0.04-0.12-0.09-0.18-0.14c-0.24-0.16-0.48-0.31-0.73-0.44c-0.01-0.01-0.01-0.01-0.02-0.01   c-3.3-1.74-6.85-2.71-10.81-2.94c-0.63-0.03-1.26-0.06-1.9-0.06c-11.44,0-17.35,5.71-22.09,10.3c-3.95,3.82-6.56,6.35-12.34,6.35   c-5.77,0-8.38-2.53-12.33-6.35c-4.75-4.59-10.65-10.3-22.09-10.3c-11.43,0-17.33,5.71-22.07,10.3c-3.95,3.82-6.57,6.35-12.34,6.35   c-2.44,0-4.41-0.44-6.21-1.38c-0.25-0.13-0.51-0.24-0.77-0.34c-0.07-0.02-0.14-0.05-0.21-0.07c-0.2-0.07-0.4-0.13-0.6-0.18   c-0.07-0.02-0.14-0.03-0.22-0.05c-0.23-0.05-0.46-0.08-0.69-0.11c-0.04,0-0.08-0.01-0.11-0.01c-0.28-0.03-0.55-0.04-0.83-0.03   c-0.05,0-0.1,0.01-0.16,0.01c-0.21,0.01-0.43,0.03-0.64,0.06c-0.08,0.01-0.16,0.03-0.25,0.04c-0.2,0.04-0.4,0.08-0.59,0.14   c-0.07,0.01-0.14,0.03-0.2,0.05c-0.26,0.08-0.51,0.17-0.76,0.27c-0.04,0.02-0.09,0.05-0.14,0.07c-0.21,0.1-0.41,0.2-0.61,0.32   c-0.03,0.02-0.06,0.03-0.09,0.05c-0.03,0.02-0.06,0.04-0.09,0.06c-0.2,0.13-0.4,0.26-0.59,0.41c-0.03,0.03-0.06,0.04-0.09,0.07   c-0.21,0.17-0.42,0.36-0.62,0.57c-0.03,0.02-0.05,0.06-0.08,0.09c-0.16,0.16-0.31,0.34-0.45,0.52c-0.05,0.07-0.1,0.13-0.14,0.2   c-0.11,0.15-0.22,0.32-0.32,0.48c-0.04,0.08-0.09,0.16-0.13,0.23c-0.02,0.04-0.05,0.08-0.07,0.11c-0.09,0.17-0.16,0.34-0.23,0.51   c-0.02,0.04-0.04,0.08-0.05,0.12c-0.11,0.25-0.19,0.52-0.27,0.78c-0.01,0.05-0.02,0.11-0.04,0.17c-0.05,0.21-0.09,0.43-0.12,0.65   c-0.01,0.07-0.02,0.14-0.03,0.21c-0.03,0.24-0.04,0.47-0.05,0.71v0.19c0,0.01,0,0.01,0,0.02v25.61c0,31.09,20.99,58.21,51.04,65.95   c0.1,0.02,0.2,0.05,0.31,0.07c5.48,1.39,11.1,2.08,16.73,2.08c5.61,0,11.23-0.69,16.69-2.07c0.12-0.03,0.23-0.05,0.34-0.08   c30.06-7.74,51.05-34.86,51.05-65.95v-38.01c0-0.01,0-0.01,0-0.02C204.63,228.32,204.61,228.03,204.57,227.74z M190.63,266.64   c0,24.62-16.55,46.1-40.29,52.33c-0.1,0.02-0.21,0.04-0.32,0.07c-8.81,2.27-18.13,2.27-26.95,0c-0.09-0.02-0.18-0.05-0.29-0.07   c-23.75-6.21-40.31-27.7-40.31-52.33V250c0.08,0,0.18,0,0.26,0.01c0.72,0.05,1.45,0.08,2.19,0.08c11.44,0,17.33-5.71,22.07-10.29   c3.96-3.83,6.57-6.36,12.34-6.36c5.78,0,8.4,2.53,12.35,6.36c4.74,4.58,10.64,10.29,22.07,10.29c11.44,0,17.34-5.71,22.08-10.29   c3.95-3.83,6.57-6.36,12.35-6.36c0.54,0,1.05,0.03,1.55,0.08c0.15,0.01,0.29,0.03,0.43,0.04c0.16,0.02,0.31,0.06,0.47,0.08V266.64z   "/>
<path class="st6" d="M438.43,179.45c-0.16,0.05-0.32,0.1-0.48,0.14c-0.1,0.03-0.21,0.06-0.32,0.08c-0.06,0.01-0.12,0.02-0.17,0.03   c-3.73,0.65-7.32-1.78-8.07-5.51l-11.7-58.17L262.7,147.21l25.75,128c7.12,35.39,37.23,61.45,73.22,63.37   c3.86,0.21,6.82,3.5,6.61,7.37c-0.16,3-2.2,5.44-4.91,6.28c-0.16,0.05-0.32,0.11-0.48,0.15c-0.16,0.04-0.33,0.06-0.49,0.09   c-0.36,0.06-0.72,0.1-1.1,0.1c-0.13,0-0.25,0-0.38-0.01c-42.37-2.26-77.82-32.93-86.2-74.58l-27.13-134.87   c-0.76-3.79,1.69-7.49,5.48-8.25l168.72-33.94c1.82-0.37,3.71,0,5.26,1.03c1.54,1.03,2.62,2.63,2.98,4.45l13.08,65.03   C443.83,174.94,441.76,178.37,438.43,179.45z"/>
<path class="st6" d="M468.14,436.05c-0.79,2.39-2.8,4.16-5.26,4.66l-116.3,23.4c-0.46,0.09-0.92,0.13-1.38,0.13   c-2,0-3.93-0.85-5.27-2.39c-1.65-1.9-2.17-4.53-1.34-6.9c5.49-15.82,15.99-29.3,29.84-38.43l-9.14-45.44   c-0.75-3.68,1.56-7.26,5.17-8.16c0.1-0.03,0.2-0.06,0.31-0.08c0.06-0.01,0.11-0.02,0.17-0.03c0.17-0.03,0.33-0.05,0.5-0.06   c3.54-0.38,6.85,2.01,7.57,5.57l10.11,50.23c0.59,2.96-0.78,5.98-3.42,7.47c-9.2,5.21-16.85,12.68-22.28,21.63l89.11-17.93   c-8.47-6.15-18.41-10.08-28.93-11.34c-3-0.36-5.43-2.6-6.03-5.57l-14.96-74.34c-0.63-3.13,0.94-6.29,3.82-7.69   c32.44-15.68,50.13-51.36,43.01-86.75l-4.43-22.04c-0.77-3.79,1.69-7.49,5.48-8.25c0.14-0.03,0.28-0.03,0.42-0.05   c0.17-0.02,0.34-0.05,0.5-0.06c0.17-0.01,0.34-0.01,0.51-0.01c3.25,0.01,6.14,2.29,6.81,5.6l4.44,22.05   c8.01,39.86-10.71,80.02-45.8,99.6l12.96,64.39c16.31,3.08,31.21,11.45,42.38,23.91C468.39,431.04,468.93,433.67,468.14,436.05z"/>
<path class="st6" d="M448.27,197.74c0,0.46-0.05,0.92-0.14,1.37s-0.22,0.89-0.4,1.31c-0.17,0.43-0.39,0.83-0.64,1.21   c-0.26,0.38-0.55,0.74-0.87,1.07c-0.32,0.32-0.68,0.61-1.06,0.87c-0.38,0.25-0.79,0.46-1.21,0.64c-0.03,0.01-0.06,0.02-0.09,0.03   c-0.16,0.06-0.31,0.12-0.47,0.17c-0.16,0.05-0.32,0.09-0.49,0.13c-0.08,0.02-0.17,0.05-0.26,0.07c-0.45,0.09-0.91,0.14-1.37,0.14   s-0.92-0.05-1.37-0.14c-0.45-0.09-0.89-0.23-1.31-0.4c-0.42-0.18-0.83-0.39-1.21-0.64c-0.38-0.26-0.74-0.55-1.06-0.87   c-0.32-0.33-0.62-0.69-0.87-1.07s-0.47-0.78-0.64-1.21c-0.18-0.42-0.31-0.86-0.4-1.31c-0.09-0.45-0.14-0.91-0.14-1.37   c0-0.45,0.05-0.91,0.14-1.36c0.09-0.45,0.22-0.89,0.4-1.31c0.17-0.43,0.39-0.83,0.64-1.21c0.25-0.39,0.55-0.74,0.87-1.07   c0.32-0.32,0.68-0.61,1.06-0.87c0.38-0.25,0.79-0.46,1.21-0.64c0.42-0.17,0.86-0.31,1.31-0.4h0.01c0.17-0.03,0.32-0.06,0.49-0.07   c0.17-0.02,0.34-0.02,0.51-0.03c0.58-0.03,1.17-0.02,1.73,0.1c0.44,0.09,0.89,0.23,1.31,0.4c0.42,0.18,0.83,0.39,1.21,0.64   c0.38,0.26,0.74,0.55,1.06,0.87c0.32,0.33,0.61,0.68,0.87,1.07c0.25,0.38,0.47,0.78,0.64,1.21c0.18,0.42,0.31,0.86,0.4,1.31   C448.22,196.83,448.27,197.29,448.27,197.74z"/>
<path class="st6" d="M432.69,246.19l-7.5-37.26c0-0.01,0-0.01,0-0.02c-0.06-0.28-0.14-0.56-0.23-0.84   c-0.02-0.06-0.05-0.13-0.07-0.19c-0.08-0.21-0.17-0.42-0.27-0.62c-0.03-0.07-0.06-0.13-0.09-0.2c-0.13-0.24-0.27-0.48-0.43-0.71   c-0.03-0.04-0.06-0.08-0.09-0.12c-0.14-0.19-0.29-0.38-0.44-0.56c-0.05-0.05-0.1-0.1-0.15-0.16c-0.18-0.19-0.37-0.37-0.57-0.54   l-0.04-0.04c-0.23-0.19-0.46-0.36-0.71-0.51c-0.05-0.03-0.1-0.06-0.15-0.09c-0.2-0.12-0.4-0.23-0.62-0.33   c-0.06-0.04-0.13-0.07-0.2-0.1c-0.26-0.11-0.54-0.22-0.82-0.3c-4.14-1.22-8.42-1.36-13.06-0.43c-11.22,2.26-15.87,9.02-19.62,14.45   c-3.12,4.53-5.19,7.52-10.84,8.66c-5.66,1.13-8.72-0.83-13.35-3.8c-5.55-3.55-12.46-7.99-23.68-5.73   c-11.21,2.26-15.87,9.01-19.61,14.44c-0.98,1.42-1.85,2.68-2.76,3.79c-2,2.43-4.19,4.09-8.08,4.87c-2.4,0.48-4.42,0.44-6.37-0.12   c-0.27-0.08-0.54-0.14-0.82-0.18c-0.07-0.01-0.14-0.02-0.2-0.03c-0.22-0.03-0.44-0.05-0.66-0.06h-0.19c-0.25-0.01-0.51,0-0.76,0.03   h-0.05c-0.29,0.03-0.57,0.08-0.85,0.14c-0.03,0.01-0.06,0.02-0.09,0.03c-0.23,0.05-0.46,0.12-0.68,0.2   c-0.07,0.03-0.13,0.05-0.2,0.08c-0.2,0.08-0.41,0.17-0.61,0.27c-0.04,0.02-0.09,0.04-0.14,0.07c-0.24,0.13-0.48,0.27-0.7,0.43   c-0.04,0.02-0.07,0.05-0.11,0.08c-0.19,0.14-0.37,0.28-0.55,0.44c-0.02,0.02-0.05,0.04-0.08,0.07c-0.02,0.02-0.04,0.05-0.07,0.07   c-0.18,0.17-0.35,0.34-0.51,0.53c-0.02,0.03-0.04,0.05-0.06,0.07c-0.18,0.22-0.35,0.45-0.5,0.69c-0.02,0.03-0.04,0.07-0.06,0.1   c-0.12,0.2-0.24,0.4-0.34,0.6c-0.03,0.08-0.07,0.15-0.1,0.23c-0.08,0.17-0.15,0.35-0.21,0.53c-0.03,0.09-0.07,0.17-0.09,0.26   c-0.01,0.04-0.03,0.08-0.04,0.12c-0.06,0.18-0.09,0.36-0.13,0.54c-0.01,0.04-0.02,0.08-0.03,0.12c-0.05,0.28-0.09,0.55-0.1,0.82   c-0.01,0.06-0.01,0.12-0.01,0.17c-0.01,0.23-0.01,0.45,0,0.67c0.01,0.07,0.01,0.14,0.02,0.21c0.02,0.24,0.05,0.48,0.09,0.71   c0.01,0.03,0.01,0.06,0.02,0.09l0.01,0.09c0.01,0.01,0.01,0.02,0.01,0.02l5.05,25.11c6.13,30.49,32.06,52.93,63.05,54.59h0.31   c1.12,0.06,2.24,0.09,3.36,0.09c10.15,0,20.25-2.28,29.41-6.67c0.11-0.05,0.22-0.09,0.32-0.14   C423.59,307.4,438.82,276.68,432.69,246.19z M389.79,308.2c-0.1,0.04-0.2,0.09-0.3,0.14c-8.19,3.96-17.33,5.8-26.42,5.31   c-0.09,0-0.19-0.01-0.29-0.01c-24.51-1.4-45-19.2-49.86-43.35l-3.28-16.32c0.09-0.01,0.18-0.03,0.27-0.04   c0.7-0.09,1.41-0.2,2.13-0.35h0.03c11.21-2.26,15.87-9.01,19.61-14.44c2.53-3.68,4.37-6.35,8.01-7.83   c0.83-0.34,1.77-0.62,2.83-0.83c5.66-1.15,8.73,0.82,13.36,3.79c5.55,3.56,12.46,7.99,23.67,5.73   c11.21-2.25,15.87-9.01,19.61-14.44c3.12-4.53,5.19-7.52,10.85-8.66c0.53-0.11,1.04-0.18,1.54-0.24c0.14-0.01,0.29-0.02,0.43-0.04   c0.16-0.01,0.32-0.01,0.48-0.02l6.51,32.36C423.82,273.09,411.83,297.42,389.79,308.2z"/>
<path class="st6" d="M222.69,101.32c1.35,1.27,3.08,1.9,4.8,1.9c1.86,0,3.72-0.74,5.1-2.2c2.65-2.82,2.51-7.25-0.3-9.9   l-36.98-34.79c-2.81-2.65-7.24-2.52-9.89,0.3s-2.52,7.25,0.3,9.9L222.69,101.32z"/>
<path class="st6" d="M257.08,107.12c1.15,0.72,2.43,1.06,3.7,1.06c2.33,0,4.62-1.17,5.94-3.29l22.32-35.77   c2.04-3.28,1.04-7.6-2.24-9.65c-3.28-2.04-7.6-1.04-9.64,2.24l-22.31,35.77C252.8,100.76,253.8,105.07,257.08,107.12z"/>
<path class="st6" d="M237.37,82.27c0.63,3.37,3.57,5.73,6.88,5.73c0.42,0,0.85-0.04,1.28-0.12c3.8-0.71,6.31-4.36,5.61-8.16   l-4.87-26.24c-0.71-3.8-4.36-6.31-8.16-5.61c-3.8,0.71-6.31,4.36-5.61,8.16L237.37,82.27z"/>
</g>
</svg>