<?xml version="1.0" ?>
<!-- Uploaded to: SVG Repo, www.svgrepo.com, Generator: SVG Repo Mixer Tools -->
<svg width="800px" height="800px" viewBox="0 0 512 512" version="1.1" xml:space="preserve" xmlns="http://www.w3.org/2000/svg" xmlns:xlink="http://www.w3.org/1999/xlink">
<style type="text/css">
	.st0{display:none;}
	.st1{fill:#FFE2D2;}
	.st2{fill:#FFDE83;}
	.st3{fill:#F57070;}
	.st4{fill:#DBDBEF;}
	.st5{fill:#BCE2FF;}
	.st6{fill:#48446D;}
	.st7{fill:#6E78FF;}
	.st8{fill:#FFBE83;}
	.st9{fill:#F5949E;}
	.st10{fill:#D0FF67;}
	.st11{fill:#C69C6D;}
	.st12{fill:#C5BDD3;}
	.st13{fill:#FFE2B8;}
	.st14{fill:#F54670;}
</style>
<g class="st0" id="Layer_1"/>
<g id="Layer_2">
<g>
<path class="st2" d="M289.36,163.23l-8.63,56.46c0,0.02-0.01,0.04-0.01,0.06l-1.6,10.51h-46.24l-1.6-10.51    c0-0.03-0.01-0.05-0.01-0.07l-8.63-56.45H289.36z"/>
<path class="st4" d="M383.3,280.78c3.54,12.09,5.34,24.67,5.34,37.4c0,73.13-59.5,132.63-132.64,132.63    s-132.64-59.5-132.64-132.63c0-56.79,36.47-107.3,89.62-125.51l4.63,30.38l0.08,0.49l0.08,0.5c-8.97,2.62-15.81,6.8-19.69,9.57    c-0.03-0.03-0.05-0.06-0.07-0.09c-0.08-0.1-0.16-0.2-0.26-0.3c-0.11-0.12-0.23-0.24-0.34-0.35c-2.48-2.43-6.43-2.71-9.23-0.49    c-26.41,20.89-41.55,52.16-41.55,85.8c0,60.3,49.06,109.36,109.37,109.36s109.37-49.06,109.37-109.36    c0-45.55-27.87-85.81-69.94-102.02l3.59-23.48c27.01,9.25,50.49,27.13,66.71,50.96c2.11,3.1,6.25,3.97,9.42,2.04    c0.1-0.06,0.21-0.12,0.31-0.19c0.04-0.03,0.08-0.05,0.11-0.08c0.14-0.1,0.27-0.2,0.4-0.31c0,0.02,0.01,0.03,0.02,0.04    c1.33,2.09,2.77,4.54,4.17,7.08c0.01,0.02,0.02,0.04,0.03,0.06c-0.13,0.05-0.27,0.09-0.4,0.15c-0.02,0.01-0.05,0.02-0.07,0.03    c-0.16,0.06-0.3,0.14-0.45,0.21c-0.24,0.12-0.47,0.25-0.69,0.4c-0.38,0.26-0.74,0.55-1.07,0.87c-0.32,0.33-0.61,0.68-0.87,1.07    c-0.25,0.38-0.46,0.78-0.64,1.21c-0.17,0.42-0.31,0.86-0.4,1.3c-0.09,0.46-0.14,0.92-0.14,1.37c0,0.46,0.05,0.92,0.14,1.37    c0.09,0.45,0.23,0.89,0.4,1.31c0.18,0.42,0.39,0.83,0.64,1.21c0.26,0.38,0.55,0.74,0.87,1.06c0.33,0.33,0.69,0.62,1.07,0.87    c0.38,0.26,0.79,0.47,1.21,0.65c0.42,0.17,0.86,0.31,1.31,0.4c0.45,0.09,0.91,0.13,1.36,0.13c0.46,0,0.92-0.04,1.37-0.13    c0.45-0.09,0.89-0.23,1.31-0.4c0.08-0.03,0.15-0.07,0.22-0.11c0.15-0.07,0.3-0.13,0.45-0.22c0.15-0.07,0.29-0.16,0.43-0.26    c0.01,0.02,0.02,0.04,0.03,0.06c1,2.37,1.91,4.72,2.7,6.97c0.01,0.03,0.02,0.06,0.03,0.08c-0.17,0.03-0.33,0.05-0.5,0.09    c-0.15,0.04-0.31,0.08-0.46,0.12c-0.01,0-0.02,0.01-0.03,0.01C384.32,273.2,382.21,277.08,383.3,280.78z"/>
<path class="st3" d="M294.09,139.44c-0.36-0.21-0.72-0.43-1.05-0.71c-2.98-2.47-3.38-6.88-0.91-9.86    c13.3-16.02,19.96-30.69,19.78-43.59c-0.22-15.67-13.17-28.21-28.81-28.01c-8.75,0.12-16.83,4.2-22.17,11.18    c-1.3,1.71-3.32,2.72-5.46,2.75c-2.12,0.05-4.19-0.92-5.54-2.59c-5.54-6.84-13.71-10.67-22.47-10.56    c-7.59,0.11-14.69,3.17-19.98,8.61c-5.29,5.44-8.14,12.61-8.03,20.2c0.24,17.55,12.99,37.68,37.88,59.83    c0.1,0.08,0.2,0.16,0.29,0.24c0.12,0.11,0.3,0.24,0.47,0.38l0.63,0.5c0.36,0.29,0.72,0.57,1.09,0.83c0.29,0.21,0.58,0.4,0.88,0.59    h47.06c2.25-2.67,4.66-5.77,7.19-9.26c0.02-0.04,0.05-0.07,0.07-0.11c-0.16-0.06-0.32-0.11-0.48-0.18    C294.38,139.61,294.24,139.52,294.09,139.44z M227.55,107.2c-1.07,0.59-2.24,0.87-3.38,0.87c-2.47,0-4.86-1.3-6.13-3.61    c-4.53-8.21-5.54-14.2-5.59-17.78c-0.06-4.11,1.49-8.01,4.36-10.96c2.69-2.77,7.12-2.83,9.89-0.14c2.78,2.69,2.84,7.13,0.14,9.9    c-0.33,0.35-0.4,0.64-0.39,1.01c0.01,1.31,0.43,5.01,3.84,11.2C232.16,101.07,230.93,105.33,227.55,107.2z"/>
<path class="st6" d="M227.55,107.2c-1.07,0.59-2.24,0.87-3.38,0.87c-2.47,0-4.86-1.3-6.13-3.61c-4.53-8.21-5.54-14.2-5.59-17.78    c-0.06-4.11,1.49-8.01,4.36-10.96c2.69-2.77,7.12-2.83,9.89-0.14c2.78,2.69,2.84,7.13,0.14,9.9c-0.33,0.35-0.4,0.64-0.39,1.01    c0.01,1.31,0.43,5.01,3.84,11.2C232.16,101.07,230.93,105.33,227.55,107.2z"/>
<path class="st6" d="M389.46,258.89c0,0.46-0.04,0.92-0.13,1.37c-0.09,0.45-0.23,0.89-0.4,1.31c-0.18,0.42-0.39,0.83-0.65,1.21    c-0.25,0.38-0.54,0.74-0.87,1.06c-0.32,0.33-0.68,0.62-1.06,0.87c-0.03,0.02-0.07,0.04-0.11,0.06c-0.14,0.1-0.28,0.19-0.43,0.26    c-0.15,0.09-0.3,0.15-0.45,0.22c-0.07,0.04-0.14,0.08-0.22,0.11c-0.42,0.17-0.86,0.31-1.31,0.4c-0.45,0.09-0.91,0.13-1.37,0.13    c-0.45,0-0.91-0.04-1.36-0.13c-0.45-0.09-0.89-0.23-1.31-0.4c-0.42-0.18-0.83-0.39-1.21-0.65c-0.38-0.25-0.74-0.54-1.07-0.87    c-0.32-0.32-0.61-0.68-0.87-1.06c-0.25-0.38-0.46-0.79-0.64-1.21c-0.17-0.42-0.31-0.86-0.4-1.31c-0.09-0.45-0.14-0.91-0.14-1.37    c0-0.45,0.05-0.91,0.14-1.37c0.09-0.44,0.23-0.88,0.4-1.3c0.18-0.43,0.39-0.83,0.64-1.21c0.26-0.39,0.55-0.74,0.87-1.07    c0.33-0.32,0.69-0.61,1.07-0.87c0.22-0.15,0.45-0.28,0.69-0.4c0.15-0.07,0.29-0.15,0.45-0.21c0.02-0.01,0.05-0.02,0.07-0.03    c0.13-0.06,0.27-0.1,0.4-0.15c0.3-0.1,0.6-0.19,0.91-0.25c0.9-0.18,1.83-0.18,2.73,0c0.45,0.09,0.89,0.22,1.31,0.4    c0.42,0.17,0.83,0.39,1.21,0.64c0.38,0.26,0.74,0.55,1.06,0.87c0.33,0.33,0.62,0.68,0.87,1.07c0.26,0.38,0.47,0.78,0.65,1.21    c0.17,0.42,0.31,0.86,0.4,1.3C389.42,257.98,389.46,258.44,389.46,258.89z"/>
<path class="st6" d="M396.73,276.84c-0.99-3.39-4.33-5.45-7.73-4.96c-0.17,0.03-0.33,0.05-0.5,0.09    c-0.15,0.04-0.31,0.08-0.46,0.12c-0.01,0-0.02,0.01-0.03,0.01c-3.69,1.1-5.8,4.98-4.71,8.68c3.54,12.09,5.34,24.67,5.34,37.4    c0,73.13-59.5,132.63-132.64,132.63s-132.64-59.5-132.64-132.63c0-56.79,36.47-107.3,89.62-125.51l4.63,30.38l0.08,0.49l0.08,0.5    l2.18,14.28c0.52,3.41,3.46,5.94,6.92,5.94h58.26c3.46,0,6.4-2.53,6.92-5.94l1.22-7.96c35.07,14.82,58.1,49.14,58.1,87.82    c0,52.58-42.78,95.36-95.37,95.36s-95.37-42.78-95.37-95.36c0-29.33,13.21-56.6,36.23-74.82c3-2.38,3.53-6.72,1.22-9.75    c-0.03-0.03-0.05-0.06-0.07-0.09c-0.08-0.1-0.16-0.2-0.26-0.3c-0.11-0.12-0.23-0.24-0.34-0.35c-2.48-2.43-6.43-2.71-9.23-0.49    c-26.41,20.89-41.55,52.16-41.55,85.8c0,60.3,49.06,109.36,109.37,109.36s109.37-49.06,109.37-109.36    c0-45.55-27.87-85.81-69.94-102.02l3.59-23.48c27.01,9.25,50.49,27.13,66.71,50.96c2.11,3.1,6.25,3.97,9.42,2.04    c0.1-0.06,0.21-0.12,0.31-0.19c0.04-0.03,0.08-0.05,0.11-0.08c0.14-0.1,0.27-0.2,0.4-0.31c2.76-2.27,3.38-6.32,1.33-9.33    c-18.4-27.04-45.26-47.15-76.13-57.13l3.26-21.35c0.31-2.02-0.28-4.07-1.61-5.62c-1.33-1.55-3.27-2.44-5.31-2.44h-56.82    c-0.3-0.19-0.59-0.38-0.88-0.59c-0.37-0.26-0.73-0.54-1.09-0.83l-0.63-0.5c-0.17-0.14-0.35-0.27-0.47-0.38    c-0.09-0.08-0.19-0.16-0.29-0.24c-24.89-22.15-37.64-42.28-37.88-59.83c-0.11-7.59,2.74-14.76,8.03-20.2    c5.29-5.44,12.39-8.5,19.98-8.61c8.76-0.11,16.93,3.72,22.47,10.56c1.35,1.67,3.42,2.64,5.54,2.59c2.14-0.03,4.16-1.04,5.46-2.75    c5.34-6.98,13.42-11.06,22.17-11.18c15.64-0.2,28.59,12.34,28.81,28.01c0.18,12.9-6.48,27.57-19.78,43.59    c-2.47,2.98-2.07,7.39,0.91,9.86c0.33,0.28,0.69,0.5,1.05,0.71c0.15,0.08,0.29,0.17,0.44,0.24c0.16,0.07,0.32,0.12,0.48,0.18    c2.73,1.04,5.93,0.32,7.89-2.04c15.49-18.66,23.23-36.4,23.01-52.74c-0.34-23.39-19.64-42.16-43.01-41.81    c-10.37,0.15-20.11,4.01-27.67,10.81c-7.75-6.59-17.61-10.16-27.97-10.03c-11.33,0.16-21.92,4.73-29.81,12.85    c-7.9,8.12-12.16,18.83-12,30.16c0.27,19.32,11.73,40.2,34.1,62.17h-5.06c-2.04,0-3.98,0.89-5.31,2.44    c-1.33,1.55-1.92,3.6-1.61,5.62l3.26,21.34c-60.05,19.42-101.47,75.92-101.47,139.55c0,80.85,65.78,146.63,146.64,146.63    s146.64-65.78,146.64-146.63C402.64,304.12,400.65,290.21,396.73,276.84z M289.36,163.23l-8.63,56.46c0,0.02-0.01,0.04-0.01,0.06    l-1.6,10.51h-46.24l-1.6-10.51c0-0.03-0.01-0.05-0.01-0.07l-8.63-56.45H289.36z"/>
<path class="st6" d="M378.55,87.76c-3.86,0-7,3.14-7,7v6.47h-6.47c-3.87,0-7,3.14-7,7c0,3.87,3.13,7,7,7h6.47v6.48    c0,3.86,3.14,7,7,7c3.87,0,7-3.14,7-7v-6.48h6.48c3.86,0,7-3.13,7-7c0-3.86-3.14-7-7-7h-6.48v-6.47    C385.55,90.9,382.42,87.76,378.55,87.76z"/>
<path class="st6" d="M133.45,87.76c-3.87,0-7,3.14-7,7v6.47h-6.48c-3.86,0-7,3.14-7,7c0,3.87,3.14,7,7,7h6.48v6.48    c0,3.86,3.13,7,7,7c3.86,0,7-3.14,7-7v-6.48h6.47c3.87,0,7-3.13,7-7c0-3.86-3.13-7-7-7h-6.47v-6.47    C140.45,90.9,137.31,87.76,133.45,87.76z"/>
</g>
</g>
</svg>