<?xml version="1.0" encoding="iso-8859-1"?>
<!-- Uploaded to: SVG Repo, www.svgrepo.com, Generator: SVG Repo Mixer Tools -->
<svg version="1.1" id="Layer_1" xmlns="http://www.w3.org/2000/svg" xmlns:xlink="http://www.w3.org/1999/xlink" 
	 viewBox="0 0 511.999 511.999" xml:space="preserve">
<path style="fill:#C60024;" d="M228.94,158.186c-1.765-4.945-3.882-11.39-10.615-18.123c-14.88-14.88-38.654-15.231-53.534-0.351
	c-10.361,10.361-13.505,25.207-9.436,38.29c-13.084-4.07-27.929-0.926-38.29,9.436c-14.88,14.88-14.472,38.596,0.408,53.477
	c7.043,7.043,13.063,8.976,18.066,10.672c20.656,7.002,93.569,0.172,93.571,0.171l0,0
	C229.111,251.757,236.167,178.429,228.94,158.186z"/>
<path style="fill:#971052;" d="M427.048,276.279l3.305,33.082l12.93,129.392h28.616l14.621-157.244l3.436-36.959
	C489.957,244.549,452.902,258.354,427.048,276.279z"/>
<path style="fill:#EF539D;" d="M473.724,93.67c-5.649-5.725-12.187-11.213-19.728-16.423l-3.421-2.363l-191.29,235.304
	c-35.522,43.695-69.874,58.212-122.149,37.275l-8.633-3.188c0,0-67.272,30.902-95.004,49.1c-14.22,9.331-21.978,17.86-24.712,24.99
	c-5.002,13.042,6.82,21.401,26.755,21.401h155.792c24.244,0,48.104-3.463,70.929-10.096
	c58.874-17.112,107.439-58.582,135.395-113.149c8.268-16.138,18.72-32.844,29.392-40.244c25.854-17.925,62.909-31.73,62.909-31.73
	C508.203,190.682,515.192,135.703,473.724,93.67z"/>
<path style="fill:#880E47;" d="M489.957,244.549c0,0-37.055,13.805-62.909,31.73l3.305,33.082
	c16.394-12.724,35.801-21.208,56.167-27.853L489.957,244.549z"/>
<path style="fill:#EB358A;" d="M473.724,93.67c26.369,39.192,19.089,86.99,3.186,133.937c0,0-36.755,13.693-62.399,31.473
	c-10.586,7.339-20.952,23.909-29.153,39.918c-27.729,54.124-75.9,95.258-134.297,112.231c-22.639,6.58-46.306,10.014-70.353,10.014
	H26.179c-6.901,0-12.818-1.013-17.392-2.877c-5.002,13.042,6.82,21.401,26.755,21.401h155.792c24.244,0,48.104-3.463,70.929-10.096
	c58.874-17.112,107.439-58.582,135.395-113.149c8.268-16.138,18.72-32.844,29.392-40.244c25.854-17.925,62.909-31.73,62.909-31.73
	C508.203,190.682,515.192,135.703,473.724,93.67z"/>
<path style="fill:#A50020;" d="M229.111,251.757c0,0,7.056-73.328-0.172-93.571c-1.765-4.945-3.882-11.39-10.615-18.123
	c-14.88-14.88-38.654-15.231-53.534-0.351c-10.361,10.361-13.505,25.207-9.436,38.29L229.111,251.757L229.111,251.757z"/>
<path d="M132.768,258.685l0.327,0.111c7.949,2.695,22.139,3.574,37.272,3.574c25.932,0,54.636-2.581,59.454-3.033l6.265-0.587
	l0.603-6.264c0.739-7.678,7-75.631-0.579-96.86l-0.204-0.573c-1.797-5.052-4.511-12.687-12.198-20.374l0,0
	c-17.826-17.826-46.669-17.982-64.3-0.351c-9.229,9.229-13.934,21.715-13.355,34.371c-12.666-0.579-25.144,4.127-34.371,13.355
	c-8.631,8.631-13.313,20.067-13.185,32.203c0.127,12.023,4.955,23.403,13.594,32.04
	C120.236,254.443,127.479,256.895,132.768,258.685z M122.449,192.821c5.817-5.816,13.573-8.938,21.535-8.938
	c3.039,0,6.109,0.455,9.111,1.389l13.833,4.302l-4.302-13.833c-3.379-10.867-0.486-22.609,7.549-30.646
	c5.718-5.718,13.286-8.852,21.315-8.754c8.035,0.073,15.653,3.307,21.452,9.106c5.257,5.258,7.043,10.278,8.618,14.708l0.211,0.592
	c4.958,13.886,2.293,60.602,0.328,83.98c-23.297,1.904-69.88,4.475-84.113-0.351l-0.334-0.113
	c-4.505-1.525-9.163-3.101-14.793-8.732C110.768,223.441,110.589,204.681,122.449,192.821z"/>
<path d="M510.89,153.265c-4.334-33.496-22.019-61.18-52.567-82.282l-9.215-6.365l-195.73,240.767
	c-35.497,43.666-67.295,53.482-113.411,35.01l-11.779-4.353l-2.862,1.315c-2.768,1.272-68.113,31.352-96.004,49.654
	C0.827,405.709-1.903,420.514,0.825,429.644c3.318,11.106,16.297,17.737,34.716,17.737h155.792c24.736,0,49.314-3.499,73.053-10.399
	c59.818-17.386,110.863-60.026,140.045-116.988c6.434-12.558,11.997-21.168,16.627-27.077l15.333,153.449h42.445l18.621-200.256
	C509.987,208.857,514.262,179.328,510.89,153.265z M390.88,313.05c-27.28,53.246-74.933,93.088-130.744,109.309
	c-22.358,6.499-45.508,9.794-68.804,9.794H35.54c-12.418,0-19.138-3.561-20.127-6.869c-1.015-3.396,2.532-12.597,22.262-25.544
	c23.734-15.574,78.113-41.157,91.159-47.228l5.568,2.056c27.355,10.938,51.064,12.809,72.483,5.721
	c20.049-6.635,38.577-21.029,58.308-45.3l186.831-229.82c46.556,33.432,56.137,79.671,31.846,153.567
	c-0.119,0.047-0.254,0.1-0.379,0.15c-0.191,0.075-0.375,0.148-0.578,0.229c-0.35,0.139-0.719,0.286-1.104,0.442
	c-0.183,0.074-0.381,0.153-0.572,0.23c-0.254,0.103-0.505,0.204-0.772,0.313c-0.217,0.088-0.444,0.181-0.669,0.273
	c-0.258,0.106-0.518,0.212-0.788,0.323c-0.241,0.099-0.485,0.2-0.735,0.304c-0.274,0.114-0.553,0.229-0.837,0.347
	c-0.257,0.107-0.513,0.213-0.778,0.325c-0.326,0.136-0.662,0.278-0.999,0.42c-0.237,0.099-0.466,0.196-0.708,0.298
	c-0.566,0.241-1.145,0.487-1.74,0.743c-0.204,0.087-0.416,0.181-0.623,0.27c-0.426,0.184-0.855,0.37-1.295,0.56
	c-0.262,0.114-0.53,0.232-0.797,0.349c-0.395,0.173-0.792,0.347-1.196,0.526c-0.291,0.129-0.586,0.259-0.882,0.391
	c-0.402,0.179-0.809,0.36-1.22,0.545c-0.296,0.133-0.591,0.265-0.891,0.4c-0.455,0.205-0.918,0.416-1.382,0.627
	c-0.264,0.12-0.524,0.238-0.791,0.36c-0.717,0.329-1.442,0.664-2.178,1.006c-0.176,0.082-0.356,0.167-0.533,0.25
	c-0.584,0.273-1.169,0.548-1.763,0.829c-0.281,0.133-0.566,0.27-0.85,0.405c-0.495,0.237-0.992,0.474-1.493,0.716
	c-0.314,0.151-0.628,0.304-0.944,0.457c-0.489,0.238-0.981,0.477-1.474,0.72c-0.318,0.156-0.634,0.312-0.953,0.469
	c-0.528,0.261-1.06,0.527-1.592,0.794c-0.281,0.141-0.56,0.279-0.843,0.422c-0.804,0.406-1.612,0.816-2.423,1.233
	c-0.124,0.064-0.248,0.129-0.371,0.193c-0.696,0.359-1.395,0.723-2.095,1.091c-0.291,0.153-0.584,0.31-0.876,0.464
	c-0.539,0.285-1.079,0.573-1.619,0.863c-0.324,0.174-0.648,0.349-0.971,0.525c-0.522,0.283-1.045,0.568-1.566,0.856
	c-0.319,0.176-0.637,0.351-0.956,0.528c-0.558,0.311-1.117,0.624-1.674,0.939c-0.276,0.156-0.553,0.311-0.829,0.468
	c-0.825,0.47-1.649,0.944-2.469,1.423c-0.063,0.037-0.126,0.075-0.189,0.112c-0.758,0.445-1.515,0.893-2.268,1.346
	c-0.274,0.164-0.547,0.332-0.82,0.498c-0.545,0.331-1.089,0.663-1.63,0.998c-0.306,0.189-0.609,0.379-0.913,0.568
	c-0.518,0.324-1.033,0.651-1.546,0.979c-0.297,0.19-0.594,0.38-0.89,0.57c-0.544,0.352-1.084,0.707-1.621,1.062
	c-0.251,0.165-0.503,0.33-0.751,0.496c-0.781,0.523-1.556,1.048-2.321,1.577l-3.683,2.554l0.029,0.29
	C410.064,280.588,400.605,294.07,390.88,313.05z M464.961,431.139h-14.787l-15.096-151.076c0.155-0.102,0.31-0.203,0.466-0.305
	c0.609-0.395,1.224-0.786,1.843-1.176c0.301-0.19,0.6-0.381,0.903-0.569c0.818-0.51,1.643-1.014,2.474-1.515
	c0.103-0.062,0.202-0.124,0.305-0.186c0.936-0.561,1.879-1.116,2.826-1.666c0.291-0.168,0.584-0.335,0.876-0.502
	c0.665-0.382,1.331-0.761,1.999-1.137c0.348-0.196,0.696-0.389,1.045-0.583c0.627-0.348,1.255-0.694,1.883-1.036
	c0.347-0.19,0.695-0.379,1.043-0.566c0.666-0.359,1.332-0.714,1.997-1.066c0.296-0.156,0.593-0.316,0.888-0.471
	c1.914-1.005,3.821-1.979,5.702-2.921c0.299-0.149,0.595-0.295,0.893-0.443c0.643-0.319,1.283-0.634,1.919-0.945
	c0.344-0.168,0.687-0.334,1.029-0.5c0.599-0.29,1.194-0.577,1.786-0.859c0.327-0.156,0.654-0.313,0.978-0.466
	c0.643-0.305,1.278-0.603,1.909-0.898c0.252-0.118,0.508-0.239,0.758-0.354c0.877-0.408,1.744-0.807,2.594-1.195
	c0.082-0.038,0.161-0.073,0.244-0.111c0.766-0.349,1.521-0.689,2.262-1.021c0.265-0.119,0.523-0.232,0.784-0.349
	c0.554-0.247,1.102-0.49,1.639-0.727c0.279-0.123,0.554-0.244,0.827-0.363c0.517-0.226,1.025-0.448,1.524-0.663
	c0.249-0.108,0.499-0.216,0.743-0.322c0.558-0.241,1.102-0.473,1.634-0.699c0.122-0.052,0.25-0.107,0.37-0.158L464.961,431.139z"/>
<g>
	<path style="fill:#FFFFFF;" d="M193.656,424.397V409.17c28.333,0,44.653-4.348,50.479-8.417l8.719,12.483
		C242.549,420.433,221.526,424.397,193.656,424.397z"/>
	
		<rect x="356.783" y="210.229" transform="matrix(-0.776 -0.6308 0.6308 -0.776 506.2379 626.6158)" style="fill:#FFFFFF;" width="15.228" height="26.356"/>
	
		<rect x="400.308" y="128.548" transform="matrix(-0.776 -0.6308 0.6308 -0.776 617.3093 558.9805)" style="fill:#FFFFFF;" width="15.228" height="82.635"/>
</g>
</svg>