<?xml version="1.0" encoding="UTF-8" standalone="no"?><svg xmlns="http://www.w3.org/2000/svg" xmlns:xlink="http://www.w3.org/1999/xlink" height="45.922" viewBox="0 0 46.427 45.922" width="46.427"><defs><linearGradient gradientUnits="objectBoundingBox" id="a" x1="-0.165" x2="1.671" y1="6.389" y2="5.432"><stop offset="0" stop-color="#e2edf2"/><stop offset="1" stop-color="#9fc7e2"/></linearGradient><linearGradient id="b" x1="0.327" x2="1.19" xlink:href="#a" y1="14.772" y2="14.472"><stop offset="0" stop-color="#e2edf2"/><stop offset="1" stop-color="#9fc7e2"/></linearGradient><linearGradient gradientUnits="objectBoundingBox" id="c" x1="0.222" x2="0.552" y1="3.723" y2="3.486"><stop offset="0" stop-color="#816965"/><stop offset="1" stop-color="#654e48"/></linearGradient><linearGradient gradientUnits="objectBoundingBox" id="d" x1="0.496" x2="0.496" y1="-1.376" y2="-2.261"><stop offset="0" stop-color="#ffe7a5"/><stop offset="0.966" stop-color="#ffbf5c"/></linearGradient><linearGradient gradientUnits="objectBoundingBox" id="e" x1="0.496" x2="0.496" y1="-2.745" y2="-3.629"><stop offset="0" stop-color="#ff5d00"/><stop offset="1" stop-color="#d54003"/></linearGradient><linearGradient id="f" x1="0.484" x2="0.484" xlink:href="#d" y1="-1.376" y2="-2.261"><stop offset="0" stop-color="#ffe7a5"/><stop offset="0.966" stop-color="#ffbf5c"/></linearGradient><linearGradient gradientUnits="objectBoundingBox" id="g" x1="0.461" x2="-0.572" y1="-2.91" y2="-1.997"><stop offset="0" stop-color="#ff5d00" stop-opacity="0"/><stop offset="1" stop-color="#d54003"/></linearGradient><linearGradient id="h" x1="0.486" x2="0.486" xlink:href="#e" y1="-2.745" y2="-3.629"><stop offset="0" stop-color="#ff5d00"/><stop offset="1" stop-color="#d54003"/></linearGradient><linearGradient gradientUnits="objectBoundingBox" id="i" x1="0.496" x2="0.496" y1="0.436" y2="-0.269"><stop offset="0" stop-color="#ffe7a5"/><stop offset="0.966" stop-color="#ffbf5c"/><stop offset="1" stop-color="#db9e36"/></linearGradient><linearGradient id="j" x1="0.389" x2="0.1" xlink:href="#g" y1="0.668" y2="0.86"><stop offset="0" stop-color="#ff5d00" stop-opacity="0"/><stop offset="1" stop-color="#d54003"/></linearGradient><linearGradient id="k" x1="0.534" x2="0.421" xlink:href="#g" y1="-0.597" y2="0.401"><stop offset="0" stop-color="#ff5d00" stop-opacity="0"/><stop offset="1" stop-color="#d54003"/></linearGradient><linearGradient id="l" x1="0.402" x2="-0.176" xlink:href="#g" y1="-1.411" y2="-0.614"><stop offset="0" stop-color="#ff5d00" stop-opacity="0"/><stop offset="1" stop-color="#d54003"/></linearGradient><linearGradient id="m" x1="0.777" x2="-0.169" xlink:href="#g" y1="-1.28" y2="-0.77"><stop offset="0" stop-color="#ff5d00" stop-opacity="0"/><stop offset="1" stop-color="#d54003"/></linearGradient><linearGradient gradientUnits="objectBoundingBox" id="n" x1="0.215" x2="0.83" y1="-6.139" y2="-7.039"><stop offset="0" stop-color="#9eb644"/><stop offset="1" stop-color="#738611"/></linearGradient><linearGradient id="o" x1="0.211" x2="0.826" xlink:href="#n" y1="-9.114" y2="-10.014"><stop offset="0" stop-color="#9eb644"/><stop offset="1" stop-color="#738611"/></linearGradient><linearGradient id="p" x1="0.201" x2="0.816" xlink:href="#n" y1="-5.022" y2="-5.922"><stop offset="0" stop-color="#9eb644"/><stop offset="1" stop-color="#738611"/></linearGradient><linearGradient id="q" x1="0.586" x2="-0.107" xlink:href="#g" y1="0.599" y2="1.076"><stop offset="0" stop-color="#ff5d00" stop-opacity="0"/><stop offset="1" stop-color="#d54003"/></linearGradient><linearGradient id="r" x1="0.496" x2="0.496" xlink:href="#e" y1="-0.533" y2="-1.854"><stop offset="0" stop-color="#ff5d00"/><stop offset="1" stop-color="#d54003"/></linearGradient><linearGradient id="s" x1="0.497" x2="0.497" xlink:href="#e" y1="1.536" y2="0.781"><stop offset="0" stop-color="#ff5d00"/><stop offset="1" stop-color="#d54003"/></linearGradient><linearGradient id="t" x1="0.693" x2="0.202" xlink:href="#g" y1="1.401" y2="1.858"><stop offset="0" stop-color="#ff5d00" stop-opacity="0"/><stop offset="1" stop-color="#d54003"/></linearGradient></defs><g transform="translate(0 -2.784)"><path d="M43.091,28.341a1.813,1.813,0,0,1,1.756-2.6,3.09,3.09,0,0,1,5.9,1.072,1.788,1.788,0,1,1-1.414,2.8,3.124,3.124,0,0,1-.324.182,3.091,3.091,0,0,1-3.528-.593A1.814,1.814,0,0,1,43.091,28.341Z" fill="url(#a)" transform="translate(-39.019 -19.219)"/><circle cx="1.517" cy="1.517" fill="url(#b)" r="1.517" transform="translate(3.012 2.784)"/><path d="M103.23,93.819H99.572a.937.937,0,0,1-.937-.937V87.046a.937.937,0,0,1,.937-.937h3.658a.937.937,0,0,1,.937.937v5.835A.937.937,0,0,1,103.23,93.819Z" fill="url(#c)" transform="translate(-89.691 -75.769)"/><rect fill="url(#d)" height="14.019" transform="translate(1.457 34.687)" width="10.924"/><path d="M20.732,336.618H9.377a.693.693,0,0,1-.663-.895l1.127-3.711a.693.693,0,0,1,.663-.492H20.732v5.1Z" fill="url(#e)" transform="translate(-7.896 -298.927)"/><rect fill="url(#f)" height="14.019" transform="translate(34.046 34.687)" width="10.924"/><path d="M386.391,395.108l-7.339-7.34h-3.584V398.78h10.924Z" fill="url(#g)" transform="translate(-341.421 -350.075)"/><path d="M370.447,336.618H381.8a.693.693,0,0,0,.663-.895l-1.127-3.711a.693.693,0,0,0-.663-.492H370.447Z" fill="url(#h)" transform="translate(-336.856 -298.927)"/><path d="M125.822,47.57v29H96.979v-29L111.4,33.433Z" fill="url(#i)" transform="translate(-88.185 -27.87)"/><path d="M96.979,47.57v1.662l27.343,27.343h1.5v-29L111.4,33.433Z" fill="url(#j)" transform="translate(-88.185 -27.87)"/><path d="M125.822,286.013v20.239h-9.106L96.979,286.515v-.5Z" fill="url(#k)" transform="translate(-88.185 -257.547)"/><path d="M140.994,345.991H126.888l-7.754-7.754a1.241,1.241,0,0,1-.569-1.041v-6.241a1.242,1.242,0,0,1,1.24-1.24h4.5a1.241,1.241,0,0,1,1.042.569l-.034.027Z" fill="url(#l)" transform="translate(-107.814 -297.286)"/><path d="M131.6,345h-4.5a.514.514,0,0,1-.514-.514v-6.24a.514.514,0,0,1,.514-.514h4.5a.514.514,0,0,1,.514.514v6.24A.514.514,0,0,1,131.6,345Z" fill="#503837" transform="translate(-115.105 -304.578)"/><path d="M124.3,338.438h-4.5a1.242,1.242,0,0,1-1.241-1.241v-6.24a1.242,1.242,0,0,1,1.241-1.241h4.5a1.242,1.242,0,0,1,1.241,1.241v6.24A1.242,1.242,0,0,1,124.3,338.438Zm-4.285-1.454h4.072V331.17h-4.072Z" fill="#fff" transform="translate(-107.813 -297.287)"/><path d="M327.161,332.289v13.7h-.443l-7.754-7.754a1.239,1.239,0,0,1-.57-1.041v-6.241a1.242,1.242,0,0,1,1.241-1.24h4.5a1.241,1.241,0,0,1,1.042.569l.018.014-.012.013Z" fill="url(#m)" transform="translate(-289.524 -297.286)"/><path d="M331.43,345h-4.5a.514.514,0,0,1-.514-.514v-6.24a.514.514,0,0,1,.514-.514h4.5a.514.514,0,0,1,.514.514v6.24A.514.514,0,0,1,331.43,345Z" fill="#503837" transform="translate(-296.819 -304.578)"/><path d="M324.139,338.438h-4.5A1.242,1.242,0,0,1,318.4,337.2v-6.24a1.242,1.242,0,0,1,1.241-1.241h4.5a1.242,1.242,0,0,1,1.241,1.241v6.24A1.242,1.242,0,0,1,324.139,338.438Zm-4.286-1.454h4.072V331.17h-4.072Z" fill="#fff" transform="translate(-289.528 -297.287)"/><path d="M222.877,338.577V322.82a1.258,1.258,0,0,1,1.258-1.258h3.494a1.258,1.258,0,0,1,1.258,1.258v15.757Z" fill="#816965" transform="translate(-202.667 -289.872)"/><path d="M222.169,331.114H220.68V315.787a.946.946,0,0,0-.943-.943H217.1a.943.943,0,0,0-.943.943v15.328h-1.488V314.8a1.447,1.447,0,0,1,1.447-1.447h4.6a1.447,1.447,0,0,1,1.447,1.447v16.312Z" fill="#503837" transform="translate(-195.203 -282.409)"/><circle cx="0.679" cy="0.679" fill="#fff" r="0.679" transform="translate(21.47 36.926)"/><rect fill="#654e48" height="3.971" transform="translate(8.793 44.734)" width="28.845"/><path d="M8.477,449.592a4.223,4.223,0,0,1-.293,1.552H.293a4.24,4.24,0,1,1,8.184-1.552Z" fill="url(#n)" transform="translate(0 -402.439)"/><path d="M61.962,465.964a3.065,3.065,0,0,1-.212,1.126H56.025a3.076,3.076,0,1,1,5.937-1.126Z" fill="url(#o)" transform="translate(-50.752 -418.384)"/><path d="M412.906,439.715a4.924,4.924,0,0,1-.341,1.809h-9.2a4.942,4.942,0,1,1,9.54-1.809Z" fill="url(#p)" transform="translate(-366.479 -392.819)"/><path d="M222.9,109.971v15.373l-18.553-18.554a1.251,1.251,0,0,1-.609-1.072v-3.486a4.737,4.737,0,0,1,8.295-3.128Z" fill="url(#q)" transform="translate(-185.262 -86.121)"/><path d="M138.1,218.606H113.858a1.05,1.05,0,0,0-1.048,1.048v4.655h.728v-4.655a.321.321,0,0,1,.32-.32h1.45v4.975h.728v-4.975H118.2v4.975h.728v-4.975h2.163v4.975h.728v-4.975h2.163v4.975h.728v-4.975h2.164v4.975h.728v-4.975h2.163v4.975h.728v-4.975h2.163v4.975h.728v-4.975h2.163v4.975h.728v-4.975H138.1a.321.321,0,0,1,.32.32v4.655h.728v-4.655A1.049,1.049,0,0,0,138.1,218.606Z" fill="#654e48" transform="translate(-102.581 -196.252)"/><path d="M120.388,266.867V269.2a.628.628,0,0,1-.628.628H90.974a.628.628,0,0,1-.628-.628v-2.335a.628.628,0,0,1,.628-.628H119.76A.628.628,0,0,1,120.388,266.867Z" fill="url(#r)" transform="translate(-82.154 -239.566)"/><path d="M76.552,26.413,57.929,7.784a1.359,1.359,0,0,0-1.922,0L37.378,26.412a.889.889,0,0,0,0,1.258l.794.794a.889.889,0,0,0,1.258,0L56.714,11.178a.358.358,0,0,1,.506,0L74.5,28.465a.889.889,0,0,0,1.258,0l.794-.794A.889.889,0,0,0,76.552,26.413Z" fill="url(#s)" transform="translate(-33.752 -4.184)"/><path d="M256.987,7.784a1.355,1.355,0,0,0-.961-.4v3.688a.357.357,0,0,1,.253.1l17.28,17.286a.889.889,0,0,0,1.258,0l.794-.794a.889.889,0,0,0,0-1.258Z" fill="url(#t)" transform="translate(-232.81 -4.185)"/><path d="M219.548,113.794h-6.97a.5.5,0,0,1-.5-.5v-3.485a3.983,3.983,0,0,1,3.983-3.983h0a3.983,3.983,0,0,1,3.983,3.983V113.3A.5.5,0,0,1,219.548,113.794Z" fill="#654e48" transform="translate(-192.85 -93.701)"/><path d="M208.48,97.49a4.744,4.744,0,0,0-4.739,4.739v3.485a1.255,1.255,0,0,0,1.254,1.254h6.97a1.255,1.255,0,0,0,1.254-1.254v-3.485A4.744,4.744,0,0,0,208.48,97.49Zm3.2,4.335h-2.444V99.093A3.234,3.234,0,0,1,211.68,101.825Zm-3.956-2.733v2.733h-2.444A3.234,3.234,0,0,1,207.723,99.093Zm-2.47,4.245h2.47v2.117h-2.47Zm3.983,2.117v-2.117h2.47v2.117Z" fill="#fff" transform="translate(-185.266 -86.118)"/></g></svg>