<svg xmlns="http://www.w3.org/2000/svg" width="24.176" height="44.475" viewBox="0 0 24.176 44.475"><g transform="translate(-116.845 0)"><path d="M200.738,256.949l1.35-5.1-.364-1.319.773-.228.506-1.912.255-1.8.507-1.083.859-3.246.023-1.462.772-1.544,1.238-4.676L205.29,233.3h-9.807l4.337,24.187A.748.748,0,0,0,200.738,256.949Z" transform="translate(-71.807 -213.035)" fill="#ffe07d"/><path d="M184.48,234.056l-1.179-.589-5.611,3.825-2.04-1.391-.223-2.6-4.386,1.283,1.238,4.675.96,1.776-.164,1.23.859,3.246.752,1.489.01,1.392.506,1.912.758.721-.348.826,1.35,5.1a.735.735,0,0,0,.54.538l-.561-6.543.75-.511,2.079,1.417.409-1.547-1.149-.784,1.655-1.129.763-2.881-2.418-1.649,2.81-1.916.467.319.8-3.006-1.263.861-2.81-1.916,5.311-3.621Zm-8.129,4.149-.476.324-.059-.689Zm-.019,5.645.02.013-.017.012Zm4.169,2.842-2.81,1.916-1.01-.688-.2-2.319,1.209-.824Zm0-5.658-2.81,1.916-1.525-1.04-.142-1.655,1.667-1.136Z" transform="translate(-49.489 -213.036)" fill="#ffd064"/><g transform="translate(121.412 20.563)"><path d="M206.016,363l1.328-.905-.259-3.027-1.8-1.227,1.6-1.091-.148-1.725-2.4,1.637.763,2.88,1.655,1.129-1.149.784Z" transform="translate(-201.306 -344.746)" fill="#ffc250"/><path d="M185.287,294.213l.8,3.006.467-.319,2.79,1.9-.166-1.939-1.285-.876,1.143-.779-.148-1.725-2.334,1.591Z" transform="translate(-183.91 -288.552)" fill="#ffc250"/><path d="M174.345,240.962l-.166-1.939-3.377-2.3-1.372.457.14.528Z" transform="translate(-169.43 -236.72)" fill="#ffc250"/></g><path d="M170.2,69.323a.755.755,0,0,1-.639-.351l-.754-1.194a.755.755,0,0,1,1.276-.806l.754,1.194a.754.754,0,0,1-.637,1.157Z" transform="translate(-47.341 -60.833)" fill="#ffe07d"/><path d="M218.327,4.216c-.046-.248.1-.624-.106-.84-1.011-1.048-3.651-1.722-5.2-2.041l-1.009.926c-.415,1.259.121,3.711-2.758,6.559a26.519,26.519,0,0,1,2.717-.749C217.245,7.178,218.7,6.228,218.327,4.216Z" transform="translate(-84.379 -1.219)" fill="#ead1ff"/><path d="M196.434,2.853a1.412,1.412,0,0,0-.394-.7,2.48,2.48,0,0,1-1.131,1.356,15.335,15.335,0,0,1-3.9,1.212.88.88,0,0,1-1-1.173,12.291,12.291,0,0,0,.83-3.436c-.19-.039-.37-.075-.522-.1a.748.748,0,0,0-.85.507,18.322,18.322,0,0,1-4.5,7.082c.476-.116.983-.208,1.5-.288l0,0c1.154-.179,2.35-.3,3.331-.464,5.278-.893,7.025-1.988,6.648-4Z" transform="translate(-62.198 0)" fill="#d6bdef"/><path d="M151.227,43.755c-1.371.232-2.983.457-4.477.83-2.961.738-4.495,2.393-3.743,5.484,0,0,15.182-1.363,15.559-1.5s2.221-4.06,2.221-4.06l.344-1.341c-.135-.884-.851-1.875-3.142-2.363C157.825,42.307,155.851,42.973,151.227,43.755Z" transform="translate(-23.717 -37.257)" fill="#ff9a9f"/><path d="M151.587,68a1.6,1.6,0,0,1-.286.372c-1.355,1.273-6.009,2.072-9.379,2.383-1.59.147-3.179.367-4.755.654a.781.781,0,0,1-.766-1.239,4.4,4.4,0,0,1,.8-.747c-2.923.742-5.454,2.085-4.709,5.146,0,0,16.148-1.025,16.525-1.167s2.216-3.678,2.216-3.678A2.783,2.783,0,0,0,151.587,68Z" transform="translate(-14.172 -62.096)" fill="#ff8086"/><path d="M142.619,87.652c-1.322,1.826-5.17,2.179-9.2,2.551a53.359,53.359,0,0,0-6.267.958c-.412.088-.8.419-1.211.517-5,1.6-2.753,5.064-.717,5.69l16.765-3.6,4.438-1.956.016-.052c.675-2.233-1.621-3.882-3.821-4.1Z" transform="translate(-5.54 -80.038)" fill="#ead1ff"/><path d="M118.6,134.563l17.681-3.087c2.33-.42,4.094-1.218,4.6-2.786a26.74,26.74,0,0,1-7.968,1.649c-1.582.149-3.3.206-4.953.256a43.307,43.307,0,0,0-6.406.485,1.156,1.156,0,0,1-1.281-1.64,3.9,3.9,0,0,1,1.333-1.395l-1.234.279C115.377,129.926,116.562,133.937,118.6,134.563Z" transform="translate(0 -116.921)" fill="#d6bdef"/><path d="M159.461,163.793a27.153,27.153,0,0,1-4.6.691c-3.662.358-7.853.178-10.807.65-1.308.209-1.9,1.192-2.575,1.761-2.033,1.728.371,3.257,2.823,3.257h12.487l3.046-.84C161.1,168.082,161.553,166.075,159.461,163.793Z" transform="translate(-21.796 -149.565)" fill="#ff9a9f"/><path d="M140.421,183.171c-2.273,0-3.964-2.242-2.58-3.946a6.316,6.316,0,0,0-3.044,1.114c-2.033,1.728-.251,4.338,2.2,4.338h13.579a4.555,4.555,0,0,0,3.263-1.506Z" transform="translate(-15.585 -163.656)" fill="#ff8086"/><path d="M207.094,116.849a.646.646,0,0,1-.066,0,.754.754,0,0,1-.686-.817l.126-1.446a.764.764,0,0,1,.817-.686.754.754,0,0,1,.686.817l-.126,1.446A.754.754,0,0,1,207.094,116.849Z" transform="translate(-81.72 -104)" fill="#b3e59f"/><path d="M336.533,123.737a.752.752,0,0,1-.388-.108l-.629-.377a.754.754,0,0,1,.776-1.294l.629.377a.754.754,0,0,1-.389,1.4Z" transform="translate(-199.342 -111.266)" fill="#fff"/><path d="M184.432,218.825a.754.754,0,0,1-.709-.5l-.5-1.383a.754.754,0,1,1,1.417-.516l.5,1.383a.755.755,0,0,1-.709,1.012Z" transform="translate(-60.568 -197.176)" fill="#a4ccff"/><path d="M271.971,197.5a.754.754,0,0,1-.192-.025l-1.195-.314a.754.754,0,1,1,.383-1.459l1.195.314a.754.754,0,0,1-.191,1.484Z" transform="translate(-139.87 -178.678)" fill="#b3e59f"/><path d="M259.713,47.488a.754.754,0,0,1-.608-.306l-.88-1.194a.754.754,0,1,1,1.214-.9l.88,1.194a.754.754,0,0,1-.606,1.2Z" transform="translate(-128.964 -40.895)" fill="#a4ccff"/><path d="M347.617,213.6a.749.749,0,0,1-.478-.172l-1.1-.9a.754.754,0,1,1,.958-1.165l1.1.9a.754.754,0,0,1-.48,1.337Z" transform="translate(-209.033 -192.843)" fill="#ffe07d"/><path d="M149.092,163.733a.754.754,0,0,1-.681-.429l-.621-1.3a.755.755,0,1,1,1.361-.651l.621,1.3a.754.754,0,0,1-.68,1.08Z" transform="translate(-28.189 -146.947)" fill="#ffe07d"/></g></svg>