<?xml version="1.0" ?>
<!-- Uploaded to: SVG Repo, www.svgrepo.com, Generator: SVG Repo Mixer Tools -->
<svg width="800px" height="800px" viewBox="0 0 512 512" version="1.1" xml:space="preserve" xmlns="http://www.w3.org/2000/svg" xmlns:xlink="http://www.w3.org/1999/xlink">
<style type="text/css">
	.st0{display:none;}
	.st1{fill:#FFE2D2;}
	.st2{fill:#FFDE83;}
	.st3{fill:#F57070;}
	.st4{fill:#DBDBEF;}
	.st5{fill:#BCE2FF;}
	.st6{fill:#48446D;}
	.st7{fill:#6E78FF;}
	.st8{fill:#FFBE83;}
	.st9{fill:#F5949E;}
	.st10{fill:#D0FF67;}
	.st11{fill:#C69C6D;}
	.st12{fill:#C5BDD3;}
	.st13{fill:#FFE2B8;}
	.st14{fill:#F54670;}
</style>
<g class="st0" id="Layer_1"/>
<g id="Layer_2">
<g>
<path class="st3" d="M175.86,112.03c0.11,0.03,0.21,0.06,0.32,0.09c0.11,0.04,0.22,0.07,0.33,0.1l0.3,0.09    c0.28,0.08,0.54,0.16,0.8,0.22c0.2,0.04,0.4,0.08,0.6,0.11c0.32,0.06,0.59,0.11,0.86,0.14c0.2,0.03,0.41,0.05,0.62,0.06    c0.28,0.03,0.56,0.04,0.83,0.05c0.19,0,0.38,0.01,0.57,0c0.32,0,0.61-0.02,0.89-0.04c0.23-0.02,0.39-0.03,0.55-0.05    c0.3-0.04,0.61-0.09,0.91-0.14l0.5-0.09c0.33-0.07,0.66-0.16,0.98-0.26c0.13-0.03,0.27-0.07,0.42-0.11    c0.46-0.15,0.87-0.3,1.24-0.46c0.04-0.01,0.07-0.03,0.11-0.04c0.37-0.16,0.75-0.35,1.17-0.58c0.17-0.1,0.29-0.17,0.4-0.24    c0.3-0.17,0.59-0.35,0.87-0.54l0.41-0.3c0.24-0.18,0.49-0.36,0.72-0.56c0.11-0.09,0.22-0.19,0.33-0.29l0.08-0.07    c0.22-0.2,0.43-0.39,0.62-0.59c0.16-0.16,0.29-0.3,0.43-0.45c0.18-0.2,0.35-0.41,0.53-0.63c0.13-0.16,0.26-0.33,0.39-0.5    c0.15-0.21,0.3-0.43,0.45-0.66c0.16-0.24,0.27-0.4,0.37-0.57c0.13-0.22,0.25-0.47,0.38-0.71l0.15-0.29c0.05-0.1,0.11-0.2,0.16-0.3    c0.04-0.1,0.09-0.2,0.14-0.31c7.88-17.5,10.02-31.51,6.16-40.48c-3.18-7.42-11.81-10.87-19.24-7.69c-4.14,1.78-7.19,5.31-8.36,9.7    c-0.55,2.07-2.03,3.77-4,4.62c-1.97,0.84-4.22,0.74-6.11-0.28c-3.98-2.17-8.65-2.4-12.79-0.62c-7.42,3.19-10.87,11.82-7.68,19.24    C146.12,97.57,157.73,105.67,175.86,112.03z"/>
<path class="st3" d="M317.87,104.45c0.03,0.07,0.09,0.17,0.14,0.27l0.15,0.29c0.13,0.24,0.25,0.49,0.39,0.72    c0.09,0.16,0.2,0.32,0.31,0.49c0.2,0.3,0.35,0.52,0.5,0.74c0.13,0.16,0.26,0.33,0.39,0.5c0.18,0.21,0.35,0.42,0.54,0.62    c0.13,0.15,0.26,0.29,0.41,0.44c0.2,0.21,0.41,0.4,0.62,0.59l0.09,0.08c0.11,0.1,0.22,0.2,0.33,0.3c0.23,0.19,0.48,0.37,0.73,0.55    l0.41,0.31c0.27,0.18,0.56,0.36,0.85,0.53c0.12,0.07,0.24,0.14,0.35,0.21c0.44,0.24,0.84,0.44,1.23,0.61    c0.04,0.01,0.07,0.03,0.11,0.04c0.37,0.16,0.77,0.31,1.21,0.45c0.19,0.05,0.33,0.09,0.46,0.13c0.31,0.09,0.64,0.18,0.97,0.25    l0.48,0.09c0.32,0.05,0.63,0.1,0.93,0.14c0.16,0.02,0.32,0.03,0.47,0.04c0.36,0.03,0.65,0.05,0.94,0.05h0.6    c0.27-0.01,0.55-0.02,0.83-0.05c0.21-0.01,0.42-0.03,0.64-0.06c0.25-0.03,0.52-0.08,0.79-0.13c0.25-0.04,0.45-0.08,0.65-0.12    c0.26-0.06,0.52-0.14,0.79-0.22l0.31-0.09c0.11-0.03,0.22-0.06,0.33-0.09c0.11-0.04,0.22-0.08,0.33-0.11    c18.09-6.33,29.73-14.44,33.58-23.42c3.19-7.42-0.26-16.05-7.68-19.24c-4.15-1.78-8.81-1.55-12.79,0.62    c-1.89,1.02-4.14,1.13-6.11,0.28c-1.97-0.85-3.45-2.55-4-4.62c-1.17-4.39-4.22-7.92-8.36-9.7c-7.43-3.18-16.06,0.27-19.24,7.69    c-3.85,8.97-1.72,22.97,6.16,40.49C317.76,104.23,317.82,104.34,317.87,104.45z"/>
<path class="st5" d="M360.56,190.12c1.64-3.5,0.13-7.67-3.37-9.31c-3.5-1.64-7.67-0.13-9.31,3.37l-35.14,74.96l-45.73-97.56h98.06    l51.22,107.05h-92.54L360.56,190.12z"/>
<path class="st4" d="M384.61,323.07c0.13,0.11,0.28,0.19,0.41,0.29l-4.52,4.92c-0.08-0.09-0.16-0.18-0.25-0.27    c-0.03-0.03-0.06-0.06-0.1-0.09c-0.12-0.12-0.25-0.22-0.37-0.33c-1.25-1.04-2.85-1.63-4.48-1.63c-1.84,0-3.64,0.75-4.95,2.05    c-1.3,1.3-2.04,3.11-2.04,4.95c0,1.83,0.73,3.62,2.01,4.92c0.01,0.01,0.02,0.02,0.03,0.03c0.11,0.11,0.22,0.21,0.34,0.31    c0.13,0.11,0.26,0.21,0.39,0.31l-6.06,6.6c-0.12-0.12-0.23-0.25-0.35-0.36c-0.01-0.02-0.03-0.03-0.05-0.05    c-0.11-0.1-0.22-0.18-0.34-0.27c-2.87-2.3-7.05-2-9.55,0.75l-83.12,91.47l46.33-154.04h93.64l-27.62,30.4    c-2.54,2.79-2.39,7.08,0.28,9.7c0.07,0.06,0.12,0.13,0.19,0.19C384.49,322.97,384.55,323.02,384.61,323.07z"/>
<polygon class="st4" points="301.73,268.63 210.27,268.63 256,171.08   "/>
<polygon class="st5" points="244.99,161.58 199.26,259.14 153.53,161.58   "/>
<path class="st4" d="M240.39,436.67L116.86,300.73c-2.21-2.43-5.72-2.92-8.48-1.44c-0.15,0.08-0.31,0.15-0.46,0.24    c-0.14,0.09-0.26,0.2-0.4,0.3l-15.75-17.2h102.29L240.39,436.67z"/>
<polygon class="st5" points="303.33,282.63 256,439.95 208.67,282.63   "/>
<polygon class="st5" points="188.25,268.63 95.71,268.63 142.45,170.94   "/>
<path class="st6" d="M382.31,332.96c0,1.85-0.75,3.65-2.06,4.95c-1.3,1.3-3.1,2.05-4.95,2.05c-1.52,0-3.01-0.52-4.22-1.43    c-0.13-0.1-0.26-0.2-0.39-0.31c-0.12-0.1-0.23-0.2-0.34-0.31c-0.01-0.01-0.02-0.02-0.03-0.03c-1.28-1.3-2.01-3.09-2.01-4.92    c0-1.84,0.74-3.65,2.04-4.95c1.31-1.3,3.11-2.05,4.95-2.05c1.63,0,3.23,0.59,4.48,1.63c0.12,0.11,0.25,0.21,0.37,0.33    c0.04,0.03,0.07,0.06,0.1,0.09c0.09,0.09,0.17,0.18,0.25,0.27C381.65,329.56,382.31,331.24,382.31,332.96z"/>
<path class="st6" d="M434.34,274.71c-0.01-0.07-0.02-0.15-0.04-0.22c-0.05-0.3-0.11-0.6-0.19-0.88c-0.01-0.01-0.01-0.02-0.01-0.02    c-0.09-0.31-0.22-0.61-0.35-0.9c-0.01-0.03-0.02-0.06-0.03-0.08L375.8,151.56c-1.17-2.43-3.62-3.98-6.32-3.98H142.52    c-0.03,0-0.06,0.01-0.09,0.01c-0.3,0-0.6,0.02-0.91,0.07h-0.01c-0.29,0.04-0.57,0.11-0.85,0.18c-0.07,0.02-0.14,0.04-0.21,0.06    c-0.24,0.08-0.48,0.17-0.72,0.27c-0.04,0.02-0.08,0.03-0.11,0.05c-0.03,0.01-0.05,0.02-0.08,0.03c-0.25,0.12-0.49,0.25-0.73,0.4    c-0.02,0.02-0.05,0.03-0.08,0.05c-0.24,0.15-0.46,0.32-0.68,0.5c-0.02,0.02-0.05,0.04-0.08,0.07c-0.48,0.41-0.9,0.88-1.24,1.39    c-0.02,0.02-0.04,0.05-0.06,0.08c-0.19,0.29-0.37,0.6-0.51,0.92L78.28,272.61c-0.02,0.04-0.03,0.08-0.05,0.11    c-0.06,0.14-0.11,0.27-0.17,0.41c-0.03,0.08-0.06,0.17-0.09,0.26c-0.04,0.12-0.08,0.25-0.11,0.37c-0.03,0.11-0.06,0.22-0.09,0.32    c-0.02,0.11-0.04,0.22-0.06,0.32c-0.02,0.13-0.04,0.26-0.06,0.39c-0.01,0.09-0.02,0.19-0.03,0.28c-0.01,0.14-0.02,0.29-0.02,0.43    v0.27c0.01,0.14,0.01,0.28,0.02,0.42c0.01,0.1,0.02,0.2,0.03,0.3c0.02,0.12,0.04,0.24,0.06,0.35c0.02,0.12,0.04,0.24,0.07,0.35    c0.02,0.1,0.04,0.2,0.07,0.29c0.04,0.13,0.07,0.26,0.12,0.38c0.02,0.09,0.06,0.17,0.09,0.25c0.05,0.13,0.1,0.26,0.15,0.38    c0.04,0.08,0.08,0.17,0.12,0.25c0.06,0.12,0.12,0.23,0.18,0.34c0.05,0.09,0.11,0.18,0.17,0.27c0.06,0.1,0.12,0.19,0.18,0.28    c0.07,0.11,0.14,0.2,0.22,0.3c0.06,0.08,0.12,0.15,0.18,0.23c0.09,0.1,0.18,0.2,0.27,0.29c0.06,0.07,0.13,0.14,0.19,0.2    c0.1,0.09,0.19,0.18,0.29,0.26c0.08,0.07,0.15,0.13,0.23,0.2c0.1,0.07,0.19,0.14,0.29,0.21c0.09,0.07,0.19,0.14,0.29,0.2    c0.09,0.05,0.17,0.11,0.26,0.16c0.12,0.07,0.25,0.13,0.37,0.2c0.04,0.02,0.08,0.04,0.12,0.06s0.08,0.04,0.12,0.05    c0.13,0.06,0.27,0.12,0.4,0.17c0.09,0.03,0.18,0.07,0.27,0.1c0.12,0.04,0.24,0.07,0.36,0.11c0.11,0.03,0.22,0.06,0.33,0.08    c0.1,0.03,0.21,0.05,0.31,0.06c0.14,0.03,0.27,0.05,0.4,0.07c0.09,0.01,0.18,0.01,0.27,0.02c0.15,0.01,0.3,0.02,0.44,0.02    c0.04,0,0.08,0.01,0.13,0.01h109.46l46.33,154.04L116.86,300.73c-2.21-2.43-5.72-2.92-8.48-1.44c-0.15,0.08-0.31,0.15-0.46,0.24    c-0.14,0.09-0.26,0.2-0.4,0.3c-0.18,0.14-0.38,0.26-0.55,0.42c-2.86,2.61-3.07,7.03-0.47,9.89l144.32,158.82    c0.04,0.04,0.08,0.07,0.12,0.11c0.05,0.06,0.1,0.11,0.16,0.16c0.2,0.2,0.42,0.39,0.64,0.57c0.04,0.03,0.08,0.06,0.12,0.09    c0.26,0.19,0.53,0.36,0.82,0.51c0.06,0.04,0.13,0.07,0.2,0.1c0.26,0.13,0.53,0.25,0.8,0.35c0.04,0.01,0.08,0.03,0.12,0.04    c0.31,0.11,0.63,0.18,0.95,0.24c0.08,0.01,0.16,0.03,0.24,0.04c0.33,0.05,0.67,0.08,1.01,0.08s0.68-0.03,1.01-0.08    c0.08-0.01,0.16-0.03,0.24-0.04c0.32-0.06,0.64-0.13,0.95-0.24c0.04-0.01,0.08-0.03,0.12-0.04c0.27-0.1,0.54-0.22,0.8-0.35    c0.07-0.03,0.14-0.06,0.2-0.1c0.29-0.15,0.56-0.32,0.82-0.51c0.04-0.03,0.08-0.06,0.12-0.09c0.22-0.18,0.44-0.37,0.64-0.57    c0.06-0.05,0.11-0.1,0.16-0.16c0.04-0.04,0.08-0.07,0.12-0.11l103.91-114.35c2.47-2.72,2.39-6.84-0.07-9.48    c-0.12-0.12-0.23-0.25-0.35-0.36c-0.01-0.02-0.03-0.03-0.05-0.05c-0.11-0.1-0.22-0.18-0.34-0.27c-2.87-2.3-7.05-2-9.55,0.75    l-83.12,91.47l46.33-154.04h93.64l-27.62,30.4c-2.54,2.79-2.39,7.08,0.28,9.7c0.07,0.06,0.12,0.13,0.19,0.19    c0.06,0.05,0.12,0.1,0.18,0.15c0.13,0.11,0.28,0.19,0.41,0.29c1.23,0.91,2.66,1.38,4.11,1.38c1.91,0,3.81-0.77,5.19-2.29    l38.26-42.11c0.03-0.03,0.05-0.06,0.07-0.09c0.21-0.23,0.4-0.47,0.57-0.73c0.02-0.02,0.03-0.04,0.04-0.06    c0.16-0.24,0.3-0.5,0.43-0.76c0.03-0.06,0.06-0.12,0.08-0.17c0.13-0.28,0.24-0.57,0.33-0.87c0.01-0.02,0.01-0.04,0.02-0.06    c0.08-0.28,0.14-0.55,0.18-0.84c0.02-0.07,0.03-0.14,0.04-0.21c0.04-0.3,0.06-0.61,0.06-0.92c0-0.01,0-0.01,0-0.02    C434.4,275.3,434.38,275,434.34,274.71z M95.71,268.63l46.74-97.69l45.8,97.69H95.71z M153.53,161.58h91.46l-45.73,97.56    L153.53,161.58z M256,171.08l45.73,97.55h-91.46L256,171.08z M256,439.95l-47.33-157.32h94.66L256,439.95z M323.75,268.63    l36.81-78.51c1.64-3.5,0.13-7.67-3.37-9.31c-3.5-1.64-7.67-0.13-9.31,3.37l-35.14,74.96l-45.73-97.56h98.06l51.22,107.05H323.75z"/>
<path class="st6" d="M171.48,125.33c0.13,0.04,0.25,0.08,0.38,0.11c0.28,0.09,0.57,0.18,0.86,0.26l0.18,0.05    c0.52,0.15,1.04,0.3,1.57,0.42c0.42,0.1,0.83,0.17,1.29,0.26c0.52,0.09,1.03,0.18,1.56,0.24c0.41,0.06,0.83,0.09,1.24,0.13    c0.55,0.04,1.09,0.07,1.63,0.08c0.25,0.01,0.49,0.01,0.73,0.01h0.43c0.57-0.01,1.14-0.04,1.76-0.09c0.35-0.03,0.69-0.05,1.03-0.09    c0.6-0.07,1.2-0.17,1.78-0.27l0.16-0.03c0.27-0.05,0.54-0.1,0.8-0.15c0.75-0.16,1.43-0.35,2-0.52c0.24-0.06,0.47-0.12,0.68-0.19    c0.91-0.29,1.78-0.61,2.6-0.96c0.02-0.01,0.04-0.02,0.06-0.03c0.8-0.35,1.6-0.74,2.43-1.19c0.21-0.12,0.42-0.24,0.67-0.4    c0.46-0.27,1.06-0.63,1.69-1.05c0.22-0.16,0.44-0.32,0.65-0.48l0.15-0.1c0.48-0.36,0.95-0.72,1.42-1.11    c0.26-0.21,0.5-0.43,0.81-0.71c0.43-0.38,0.84-0.77,1.23-1.17c0.28-0.28,0.54-0.57,0.82-0.87c0.35-0.39,0.7-0.8,1.04-1.22    c0.27-0.33,0.53-0.66,0.79-1.01c0.3-0.42,0.59-0.85,0.92-1.34c0.23-0.35,0.45-0.69,0.67-1.06c0.27-0.46,0.52-0.93,0.76-1.41    l0.11-0.19c0.13-0.26,0.26-0.51,0.39-0.79c0.07-0.13,0.14-0.27,0.21-0.42c9.74-21.58,11.87-39.05,6.34-51.93    c-6.23-14.52-23.11-21.26-37.63-15.03c-5.72,2.45-10.37,6.61-13.42,11.85c-5.9-1.4-12.12-0.89-17.84,1.56    c-10.84,4.65-17.35,15.25-17.35,26.36c0,3.77,0.75,7.6,2.33,11.27C134.93,107.01,149.07,117.5,171.48,125.33z M149.95,69.36    c4.14-1.78,8.81-1.55,12.79,0.62c1.89,1.02,4.14,1.12,6.11,0.28c1.97-0.85,3.45-2.55,4-4.62c1.17-4.39,4.22-7.92,8.36-9.7    c7.43-3.18,16.06,0.27,19.24,7.69c3.86,8.97,1.72,22.98-6.16,40.48c-0.05,0.11-0.1,0.21-0.14,0.31c-0.05,0.1-0.11,0.2-0.16,0.3    l-0.15,0.29c-0.13,0.24-0.25,0.49-0.38,0.71c-0.1,0.17-0.21,0.33-0.37,0.57c-0.15,0.23-0.3,0.45-0.45,0.66    c-0.13,0.17-0.26,0.34-0.39,0.5c-0.18,0.22-0.35,0.43-0.53,0.63c-0.14,0.15-0.27,0.29-0.43,0.45c-0.19,0.2-0.4,0.39-0.62,0.59    l-0.08,0.07c-0.11,0.1-0.22,0.2-0.33,0.29c-0.23,0.2-0.48,0.38-0.72,0.56l-0.41,0.3c-0.28,0.19-0.57,0.37-0.87,0.54    c-0.11,0.07-0.23,0.14-0.4,0.24c-0.42,0.23-0.8,0.42-1.17,0.58c-0.04,0.01-0.07,0.03-0.11,0.04c-0.37,0.16-0.78,0.31-1.24,0.46    c-0.15,0.04-0.29,0.08-0.42,0.11c-0.32,0.1-0.65,0.19-0.98,0.26l-0.5,0.09c-0.3,0.05-0.61,0.1-0.91,0.14    c-0.16,0.02-0.32,0.03-0.55,0.05c-0.28,0.02-0.57,0.04-0.89,0.04c-0.19,0.01-0.38,0-0.57,0c-0.27-0.01-0.55-0.02-0.83-0.05    c-0.21-0.01-0.42-0.03-0.62-0.06c-0.27-0.03-0.54-0.08-0.86-0.14c-0.2-0.03-0.4-0.07-0.6-0.11c-0.26-0.06-0.52-0.14-0.8-0.22    l-0.3-0.09c-0.11-0.03-0.22-0.06-0.33-0.1c-0.11-0.03-0.21-0.06-0.32-0.09c-18.13-6.36-29.74-14.46-33.59-23.43    C139.08,81.18,142.53,72.55,149.95,69.36z"/>
<path class="st6" d="M305.62,111.25l0.11,0.19c0.24,0.48,0.49,0.95,0.77,1.42c0.21,0.36,0.43,0.7,0.7,1.11    c0.29,0.43,0.58,0.86,0.89,1.29c0.25,0.34,0.51,0.67,0.78,1c0.34,0.42,0.69,0.83,1.05,1.23c0.27,0.29,0.53,0.58,0.8,0.85    c0.4,0.41,0.81,0.8,1.3,1.24c0.25,0.22,0.49,0.44,0.75,0.66c0.47,0.38,0.94,0.74,1.43,1.1l0.14,0.1c0.21,0.16,0.43,0.32,0.65,0.47    c0.63,0.43,1.23,0.79,1.74,1.09c0.2,0.13,0.41,0.25,0.62,0.36c0.83,0.46,1.63,0.85,2.43,1.2c0.02,0.01,0.04,0.02,0.06,0.03    c0.82,0.35,1.69,0.67,2.58,0.95c0.23,0.08,0.46,0.14,0.75,0.22c0.52,0.15,1.2,0.34,1.94,0.5c0.27,0.05,0.54,0.1,0.81,0.15    l0.15,0.02c0.59,0.11,1.19,0.21,1.79,0.28c0.34,0.04,0.68,0.06,1.08,0.09c0.57,0.05,1.14,0.08,1.68,0.09h0.47    c0.24,0,0.48,0,0.72-0.01c0.54-0.01,1.08-0.04,1.63-0.08c0.41-0.04,0.83-0.07,1.25-0.13c0.52-0.06,1.03-0.15,1.59-0.25    c0.42-0.08,0.83-0.15,1.25-0.25c0.53-0.12,1.05-0.27,1.55-0.41l0.2-0.06c0.29-0.08,0.58-0.17,0.87-0.26    c0.12-0.04,0.26-0.08,0.43-0.14c22.35-7.8,36.49-18.29,42.01-31.18c6.24-14.52-0.51-31.4-15.02-37.63    c-3.64-1.55-7.47-2.33-11.29-2.33c-2.2,0-4.39,0.26-6.55,0.77c-3.05-5.24-7.7-9.4-13.42-11.85c-14.52-6.23-31.4,0.51-37.63,15.03    c-5.53,12.88-3.4,30.35,6.35,51.95c0.06,0.14,0.12,0.26,0.19,0.39C305.35,110.72,305.49,110.98,305.62,111.25z M311.55,63.63    c3.18-7.42,11.81-10.87,19.24-7.69c4.14,1.78,7.19,5.31,8.36,9.7c0.55,2.07,2.03,3.77,4,4.62c1.97,0.85,4.22,0.74,6.11-0.28    c3.98-2.17,8.64-2.4,12.79-0.62c7.42,3.19,10.87,11.82,7.68,19.24c-3.85,8.98-15.49,17.09-33.58,23.42    c-0.11,0.03-0.22,0.07-0.33,0.11c-0.11,0.03-0.22,0.06-0.33,0.09l-0.31,0.09c-0.27,0.08-0.53,0.16-0.79,0.22    c-0.2,0.04-0.4,0.08-0.65,0.12c-0.27,0.05-0.54,0.1-0.79,0.13c-0.22,0.03-0.43,0.05-0.64,0.06c-0.28,0.03-0.56,0.04-0.83,0.05    h-0.6c-0.29,0-0.58-0.02-0.94-0.05c-0.15-0.01-0.31-0.02-0.47-0.04c-0.3-0.04-0.61-0.09-0.93-0.14l-0.48-0.09    c-0.33-0.07-0.66-0.16-0.97-0.25c-0.13-0.04-0.27-0.08-0.46-0.13c-0.44-0.14-0.84-0.29-1.21-0.45c-0.04-0.01-0.07-0.03-0.11-0.04    c-0.39-0.17-0.79-0.37-1.23-0.61c-0.11-0.07-0.23-0.14-0.35-0.21c-0.29-0.17-0.58-0.35-0.85-0.53l-0.41-0.31    c-0.25-0.18-0.5-0.36-0.73-0.55c-0.11-0.1-0.22-0.2-0.33-0.3l-0.09-0.08c-0.21-0.19-0.42-0.38-0.62-0.59    c-0.15-0.15-0.28-0.29-0.41-0.44c-0.19-0.2-0.36-0.41-0.54-0.62c-0.13-0.17-0.26-0.34-0.39-0.5c-0.15-0.22-0.3-0.44-0.5-0.74    c-0.11-0.17-0.22-0.33-0.31-0.49c-0.14-0.23-0.26-0.48-0.39-0.72l-0.15-0.29c-0.05-0.1-0.11-0.2-0.14-0.27    c-0.05-0.11-0.11-0.22-0.16-0.33C309.83,86.6,307.7,72.6,311.55,63.63z"/>
<path class="st6" d="M110.07,143.83c0.42,0.17,0.86,0.31,1.31,0.4c0.45,0.09,0.91,0.14,1.37,0.14c0.45,0,0.91-0.05,1.36-0.14    c0.45-0.09,0.89-0.23,1.31-0.4c0.42-0.18,0.83-0.39,1.21-0.64c0.38-0.26,0.74-0.55,1.07-0.87c1.3-1.31,2.04-3.11,2.04-4.95    c0-1.85-0.74-3.65-2.04-4.95c-0.33-0.33-0.69-0.62-1.07-0.87c-0.38-0.26-0.79-0.47-1.21-0.65c-0.42-0.17-0.86-0.31-1.31-0.4    c-0.9-0.18-1.83-0.18-2.73,0c-0.45,0.09-0.89,0.23-1.31,0.4c-0.42,0.18-0.83,0.39-1.21,0.65c-0.38,0.25-0.74,0.54-1.07,0.87    c-0.32,0.32-0.61,0.68-0.87,1.06c-0.25,0.38-0.46,0.79-0.64,1.21c-0.17,0.42-0.31,0.86-0.4,1.31c-0.09,0.45-0.13,0.91-0.13,1.37    c0,1.84,0.74,3.64,2.04,4.95c0.33,0.32,0.69,0.61,1.07,0.87C109.24,143.44,109.65,143.65,110.07,143.83z"/>
<path class="st6" d="M401.81,143.83c0.42,0.17,0.87,0.31,1.31,0.4c0.45,0.09,0.91,0.14,1.37,0.14c0.46,0,0.92-0.05,1.37-0.14    c0.44-0.09,0.88-0.23,1.31-0.4c0.42-0.18,0.83-0.39,1.21-0.64c0.38-0.26,0.74-0.55,1.06-0.87c1.3-1.31,2.05-3.11,2.05-4.95    c0-1.85-0.75-3.65-2.05-4.95c-0.32-0.33-0.68-0.62-1.06-0.87c-0.38-0.26-0.79-0.47-1.21-0.65c-0.43-0.17-0.87-0.31-1.31-0.4    c-0.91-0.18-1.84-0.18-2.74,0c-0.44,0.09-0.89,0.23-1.31,0.4c-0.42,0.18-0.83,0.39-1.21,0.65c-0.38,0.25-0.74,0.54-1.06,0.87    c-0.32,0.32-0.62,0.68-0.87,1.06s-0.47,0.79-0.64,1.21c-0.18,0.42-0.31,0.86-0.4,1.31c-0.09,0.45-0.14,0.91-0.14,1.37    c0,1.84,0.75,3.64,2.05,4.95c0.32,0.32,0.68,0.61,1.06,0.87C400.98,143.44,401.39,143.65,401.81,143.83z"/>
<path class="st6" d="M245.99,109.59c0.25,0.39,0.55,0.74,0.87,1.07c0.32,0.32,0.68,0.61,1.06,0.87c0.38,0.25,0.79,0.47,1.21,0.64    c0.42,0.18,0.86,0.31,1.31,0.4c0.45,0.09,0.91,0.14,1.37,0.14c0.45,0,0.91-0.05,1.37-0.14c0.44-0.09,0.88-0.22,1.31-0.4    c0.42-0.17,0.82-0.39,1.2-0.64c0.39-0.26,0.74-0.55,1.07-0.87c0.32-0.33,0.61-0.68,0.87-1.07c0.25-0.38,0.47-0.78,0.64-1.21    c0.18-0.42,0.31-0.86,0.4-1.31c0.09-0.45,0.14-0.91,0.14-1.36c0-0.46-0.05-0.92-0.14-1.37c-0.09-0.45-0.22-0.89-0.4-1.31    c-0.17-0.42-0.39-0.83-0.64-1.21c-0.26-0.38-0.55-0.74-0.87-1.06c-0.32-0.33-0.68-0.62-1.07-0.87c-0.38-0.26-0.78-0.47-1.2-0.65    c-0.43-0.17-0.87-0.31-1.31-0.4c-0.91-0.18-1.84-0.18-2.74,0c-0.45,0.09-0.89,0.23-1.31,0.4c-0.42,0.18-0.83,0.39-1.21,0.65    c-0.38,0.25-0.74,0.54-1.06,0.87c-0.32,0.32-0.62,0.68-0.87,1.06c-0.25,0.38-0.47,0.79-0.65,1.21c-0.17,0.42-0.3,0.86-0.39,1.31    c-0.1,0.45-0.14,0.91-0.14,1.37c0,0.45,0.04,0.91,0.14,1.36c0.09,0.45,0.22,0.89,0.39,1.31    C245.52,108.81,245.74,109.21,245.99,109.59z"/>
</g>
</g>
</svg>