<?xml version="1.0" encoding="iso-8859-1"?>
<!-- Uploaded to: SVG Repo, www.svgrepo.com, Generator: SVG Repo Mixer Tools -->
<svg height="800px" width="800px" version="1.1" id="Layer_1" xmlns="http://www.w3.org/2000/svg" xmlns:xlink="http://www.w3.org/1999/xlink" 
	 viewBox="0 0 512 512" xml:space="preserve">
<path style="fill:#CA3486;" d="M257.808,255.999c0-10.543-5.562-19.784-13.911-24.957c2.245-9.56-0.354-20.026-7.808-27.479
	c-7.454-7.453-17.919-10.053-27.479-7.808c-5.171-8.349-14.414-13.911-24.957-13.911c-10.543,0-19.784,5.563-24.957,13.912
	c-9.559-2.245-20.025,0.354-27.479,7.808c-7.454,7.454-10.053,17.92-7.808,27.479c-8.349,5.171-13.911,14.414-13.911,24.957
	c0,10.543,5.562,19.784,13.911,24.957c-2.245,9.56,0.354,20.026,7.808,27.48c5.729,5.728,13.236,8.593,20.744,8.593
	c2.262,0,4.522-0.265,6.734-0.785c5.172,8.349,14.414,13.911,24.957,13.911c10.543,0,19.785-5.562,24.957-13.911
	c2.213,0.52,4.473,0.785,6.735,0.785c7.507,0,15.016-2.865,20.745-8.593c7.454-7.454,10.053-17.92,7.808-27.48
	C252.246,275.784,257.808,266.542,257.808,255.999z"/>
<path style="fill:#952967;" d="M257.808,255.999c0-10.543-5.562-19.784-13.911-24.957c2.245-9.56-0.354-20.026-7.808-27.479
	c-7.454-7.453-17.919-10.053-27.479-7.808c-5.171-8.349-14.414-13.911-24.957-13.911c0,22.585,0,129.621,0,148.31
	c10.543,0,19.785-5.562,24.957-13.911c2.213,0.52,4.473,0.785,6.735,0.785c7.507,0,15.016-2.865,20.745-8.593
	c7.454-7.454,10.053-17.92,7.808-27.48C252.246,275.784,257.808,266.542,257.808,255.999z"/>
<path style="fill:#BFE436;" d="M0,330.155V181.844h40.733v112.8h67.262v35.511H0z"/>
<path style="fill:#F1D849;" d="M294.753,181.844l29.035,97.133l28.617-97.133h42.822l-54.52,148.31h-33.839l-55.147-148.31
	L294.753,181.844L294.753,181.844z"/>
<path style="fill:#E49524;" d="M512,294.644v35.511H406.303V181.844H510.12v35.511h-63.084v20.89h53.894v33.004h-53.894v23.396H512z
	"/>
<circle style="fill:#F1D849;" cx="183.652" cy="255.999" r="20.235"/>
<path style="fill:#F1C516;" d="M183.653,235.765c11.175,0,20.234,9.059,20.234,20.234c0,11.175-9.059,20.234-20.234,20.234V235.765z
	"/>
</svg>