<svg xmlns="http://www.w3.org/2000/svg" width="45.969" height="42.628" viewBox="0 0 45.969 42.628"><g transform="translate(0 -18.607)"><path d="M239.716,281.558c-6.269-.652-11.059-3.983-10.7-7.439s5.733-5.729,12-5.077,13.689,4.728,13.378,7.718S245.985,282.211,239.716,281.558Z" transform="translate(-208.438 -227.85)" fill="#5eac24"/><path d="M241.211,269.043c-6.269-.652-11.642,1.62-12,5.077l6.938-1.279a20.733,20.733,0,0,1,11.423,1.126l7.019,2.794C254.9,273.771,247.48,269.7,241.211,269.043Z" transform="translate(-208.63 -227.85)" fill="#4e901e"/><path d="M247.535,322.015l-20.009-2.082a.818.818,0,1,1,.169-1.628l20.009,2.082a.818.818,0,0,1,.729.9A.792.792,0,0,1,247.535,322.015Z" transform="translate(-206.431 -272.787)" fill="#47821c"/><path d="M239.131,305.239c-5.271-3.456-11.088-3.9-12.993-1s.823,8.063,6.094,11.519,13.6,4.986,15.245,2.473S244.4,308.695,239.131,305.239Z" transform="translate(-205.282 -258.245)" fill="#6dc82a"/><path d="M232.23,335.208c-5.271-3.456-8-8.613-6.094-11.519L231.058,330a15.788,15.788,0,0,0,8.382,5.543l8.036,2.141C245.828,340.194,237.5,338.664,232.23,335.208Z" transform="translate(-205.281 -277.691)" fill="#5eac24"/><path d="M246.9,329.431l-5.505-3.61,2.442-.465a.818.818,0,0,0-.306-1.608l-4.106.781-2.95-1.934,2.442-.465a.818.818,0,0,0-.306-1.608l-4.106.781-4.429-2.9a.818.818,0,1,0-.9,1.369l4.429,2.9.92,4.077a.772.772,0,0,0,.978.618.818.818,0,0,0,.618-.978l-.547-2.425,2.95,1.934.92,4.077a.779.779,0,0,0,.978.618.818.818,0,0,0,.618-.978l-.547-2.425L246,330.8a.819.819,0,0,0,.9-1.369Z" transform="translate(-208.266 -272.755)" fill="#47821c"/><path d="M14.69,281.558c6.269-.652,11.059-3.983,10.7-7.439s-5.733-5.729-12-5.077S-.3,273.771.009,276.761,8.421,282.211,14.69,281.558Z" transform="translate(0 -227.85)" fill="#91dc5a"/><path d="M13.387,269.043c6.269-.652,11.642,1.62,12,5.077L17.6,272.412a17.154,17.154,0,0,0-10.98,1.238L.009,276.761C-.3,273.771,7.119,269.7,13.387,269.043Z" transform="translate(0 -227.85)" fill="#6dc82a"/><path d="M47,305.239c5.271-3.456,11.088-3.9,12.993-1s-.823,8.063-6.094,11.519-13.6,4.986-15.245,2.473S41.725,308.695,47,305.239Z" transform="translate(-34.877 -258.245)" fill="#b6e892"/><path d="M57.277,335.208c5.271-3.456,8-8.613,6.094-11.519l-3.5,4.852a19.03,19.03,0,0,1-10.676,7.291l-7.163,1.849C43.679,340.194,52.006,338.664,57.277,335.208Z" transform="translate(-38.258 -277.691)" fill="#91dc5a"/><g transform="translate(3.961 45.511)"><path d="M44.123,321.285a.818.818,0,0,1,.729-.9L64.861,318.3a.818.818,0,0,1,.169,1.628l-20.009,2.082A.736.736,0,0,1,44.123,321.285Z" transform="translate(-44.118 -318.296)" fill="#47821c"/><path d="M95.909,318.637a.818.818,0,0,0-1.133-.236l-4.429,2.9-4.106-.781a.818.818,0,0,0-.306,1.608l2.442.465-2.95,1.934-4.106-.781a.818.818,0,0,0-.306,1.608l2.442.465-5.505,3.61a.818.818,0,0,0-.236,1.133.947.947,0,0,0,1.133.236l5.505-3.61-.547,2.425a.818.818,0,0,0,.618.978.792.792,0,0,0,.978-.618l.92-4.077,2.95-1.934-.547,2.425a.818.818,0,1,0,1.6.36l.92-4.076,4.429-2.9A.818.818,0,0,0,95.909,318.637Z" transform="translate(-74.579 -318.267)" fill="#47821c"/></g><path d="M250.313,28.041s.953-7.866-6.7-6.477a2.064,2.064,0,0,1-1.909-.673c-1.646-1.856-5.859-5.152-10.448,2.768-.217.059,10.1,7.636,10.1,7.636Z" transform="translate(-210.493)" fill="#c70024"/><g transform="translate(6.3 18.607)"><path d="M70.206,28.041s-.953-7.866,6.7-6.477a2.063,2.063,0,0,0,1.909-.673c1.646-1.856,5.859-5.152,10.448,2.768.217.059-10.1,7.636-10.1,7.636Z" transform="translate(-70.168 -18.607)" fill="#d80027"/><path d="M249.536,109.719a14.118,14.118,0,0,1,10.158-.5,1.458,1.458,0,0,1,.8,2.059,23.664,23.664,0,0,0-2.9,11.335c.173,6.98-9.052,13.96-18.321,6.328C239.445,128.694,249.536,109.719,249.536,109.719Z" transform="translate(-224.09 -100.418)" fill="#d80027"/></g><path d="M252.141,112.6c-.176,1.875-.151,4.609,1.066,6.6,2.033,3.327,4.48,12.9-4.322,16.722h0c-2.9.376-6.254-.471-9.612-3.236.172-.25,10.263-19.224,10.263-19.224A12.74,12.74,0,0,1,252.141,112.6Z" transform="translate(-217.79 -85.556)" fill="#c70024"/><path d="M45.615,109.719a14.118,14.118,0,0,0-10.158-.5,1.458,1.458,0,0,0-.8,2.059,23.664,23.664,0,0,1,2.9,11.335c-.173,6.98,9.052,13.96,18.322,6.328C55.706,128.694,45.615,109.719,45.615,109.719Z" transform="translate(-31.392 -81.811)" fill="#ff0c38"/><path d="M98.988,112.6c.176,1.875.151,4.609-1.066,6.6-2.033,3.327-4.48,12.9,4.322,16.722h0c2.9.376,6.254-.471,9.612-3.236-.172-.25-10.263-19.224-10.263-19.224A12.739,12.739,0,0,0,98.988,112.6Z" transform="translate(-87.371 -85.556)" fill="#d80027"/><path d="M223.049,63.415s-5.761-7.313-13.16,4.985c.056.042,5.117,4.067,5.117,4.067Z" transform="translate(-191.045 -38.821)" fill="#ff0c38"/><path d="M210.075,81.377c.317.249,5.1,4.054,5.1,4.054l8.043-9.052a5.6,5.6,0,0,0-.752-.741h0S216.164,74.088,210.075,81.377Z" transform="translate(-191.214 -51.785)" fill="#d80027"/><path d="M155.539,63.415S161.3,56.1,168.7,68.4c-.056.042-5.117,4.067-5.117,4.067Z" transform="translate(-141.575 -38.821)" fill="#ff3f62"/><path d="M163.006,88.2l7.372,8.3s5.061-4.025,5.117-4.067c-.473-.787-.94-1.493-1.4-2.126C173.356,89.586,169.632,86.41,163.006,88.2Z" transform="translate(-148.371 -62.856)" fill="#ff0c38"/><path d="M153.685,116.85c-1.442-2.547-.771-6.477-.771-6.477l-1.755-1.885-7.578,7.143L136,108.487l-1.755,1.885s.671,3.931-.771,6.477c-1.652,2.917-2.787,12.281,10.1,12.281S155.337,119.767,153.685,116.85Z" transform="translate(-120.597 -81.811)" fill="#ff3f62"/><path d="M146.328,113.04l-2.747,2.59L136,108.487l-1.755,1.885s.671,3.931-.771,6.477c-1.652,2.917-2.787,12.281,10.1,12.281a15.058,15.058,0,0,0,7.186-1.476C150.159,120.953,148.425,116.287,146.328,113.04Z" transform="translate(-120.597 -81.811)" fill="#ff0c38"/><path d="M256.012,69.378c-6.4,1.626-9.695,6.822-11.253,10.442l2.052,2.788a17.65,17.65,0,0,0,5.211-2.99,3.021,3.021,0,0,0,1.05-2.734l-.263-1.9h1.257a3.021,3.021,0,0,0,2.76-1.776,18.98,18.98,0,0,0,.8-2.117A1.35,1.35,0,0,0,256.012,69.378Z" transform="translate(-222.784 -46.174)" fill="#ff728b"/><path d="M247.167,138.629a22.161,22.161,0,0,0-2.409,4.263l2.052,2.788a18.161,18.161,0,0,0,3.528-1.754A21.734,21.734,0,0,0,247.167,138.629Z" transform="translate(-222.783 -109.246)" fill="#ff3f62"/><path d="M145.987,119.163l-1.963-3.952-.445.419L136,108.487l-1.755,1.885s.671,3.931-.771,6.478c-1.652,2.917-2.787,12.281,10.1,12.281a21.28,21.28,0,0,0,3.25-.232A36.182,36.182,0,0,0,145.987,119.163Z" transform="translate(-120.595 -81.811)" fill="#ff728b"/><path d="M141.032,128.991c-2.543-2.481-3.888-6.761-2.749-11.5a17.1,17.1,0,0,0,.194-6.67L136,108.486l-1.755,1.885s.671,3.931-.771,6.478C131.943,119.557,130.857,127.824,141.032,128.991Z" transform="translate(-120.598 -81.81)" fill="#ff3f62"/><path d="M125.128,71.09a19,19,0,0,0,.8,2.117,3.021,3.021,0,0,0,2.76,1.776h1.257l-.263,1.9a3.021,3.021,0,0,0,1.05,2.734,18.6,18.6,0,0,0,8.5,3.909S136.9,71.958,126.743,69.378A1.35,1.35,0,0,0,125.128,71.09Z" transform="translate(-113.837 -46.174)" fill="#ffa5b5"/></g></svg>