<?xml version="1.0" ?>
<!-- Uploaded to: SVG Repo, www.svgrepo.com, Generator: SVG Repo Mixer Tools -->
<svg fill="#000000" width="800px" height="800px" viewBox="0 0 64 64" xmlns="http://www.w3.org/2000/svg">
<g id="chat">
<path d="M55.7,34.4561a1,1,0,0,0-1.4141,0l-.7668.7669-.7669-.7669a1,1,0,0,0-1.414,1.414l.7669.7671-.7669.7671a1,1,0,1,0,1.414,1.4141l.7669-.767.7668.767A1,1,0,1,0,55.7,37.4043l-.767-.7671L55.7,35.87A1,1,0,0,0,55.7,34.4561Z"/>
<circle cx="51" cy="50" r="1"/>
<path d="M32.3345,37.37a22.5127,22.5127,0,0,1-16.669,0,1,1,0,1,0-.7832,1.84A23.4858,23.4858,0,0,0,24,41a23.4858,23.4858,0,0,0,9.1177-1.79,1,1,0,1,0-.7832-1.84Z"/>
<circle cx="17" cy="31" r="2"/>
<circle cx="31" cy="31" r="2"/>
<path d="M31,11a3,3,0,1,0-3-3A3.0033,3.0033,0,0,0,31,11Zm0-4a1,1,0,1,1-1,1A1.0009,1.0009,0,0,1,31,7Z"/>
<path d="M58.5083,5H40.4917A4.4974,4.4974,0,0,0,36,9.4922v6.7187A24.0608,24.0608,0,1,0,46.86,29.7134L50.4785,27h8.03A4.4974,4.4974,0,0,0,63,22.5078V9.4922A4.4974,4.4974,0,0,0,58.5083,5ZM43.5,15A1.5,1.5,0,1,1,42,16.5,1.5,1.5,0,0,1,43.5,15ZM24,59A22,22,0,1,1,36,18.573v3.9348A4.4974,4.4974,0,0,0,40.4917,27H41v5.1084a1,1,0,0,0,1.6.8l2.5522-1.9141A21.9629,21.9629,0,0,1,24,59ZM49.5,18A1.5,1.5,0,1,1,51,16.5,1.5,1.5,0,0,1,49.5,18Zm6,0A1.5,1.5,0,1,1,57,16.5,1.5,1.5,0,0,1,55.5,18Z"/>
</g>
</svg>