<svg xmlns="http://www.w3.org/2000/svg" xmlns:xlink="http://www.w3.org/1999/xlink" width="212" height="118" viewBox="0 0 212 118" version="1.1">
    <title>yapi-kredi</title>
    <defs>
        <polygon id="path-1" points="0 0 65.4451406 0 65.4451406 25.8823839 0 25.8823839"/>
    </defs>
    <g id="LandingPage" stroke="none" stroke-width="1" fill="none" fill-rule="evenodd">
        <g id="logolar" transform="translate(-756.000000, -363.000000)">
            <g id="Group-2" transform="translate(85.000000, 363.000000)">
                <g id="yapi-kredi" transform="translate(671.000000, 0.000000)">
                    <g id="Group-21-Copy" fill="#1A4365">
                        <rect id="Rectangle-Copy-2" x="0" y="0" width="211.955006" height="117.752781" rx="10"/>
                    </g>
                    <g id="YapÄ±-Kredi-BankasÄ±" transform="translate(31.000000, 46.000000)">
                        <polygon id="Fill-1" fill="#FFFFFF" points="145.719701 4.05443824 150 4.05443824 150 0.590712857 145.719701 0.590712857"/>
                        <path d="M70.454354,14.0152153 C69.4103401,14.6809519 68.6656313,15.0213225 68.6656313,16.3922818 L68.6656313,18.4084448 C68.6656313,19.3782247 68.928609,19.7478151 69.5611772,19.7478151 C70.1953248,19.7478151 70.454354,19.3782247 70.454354,18.4084448 L70.454354,14.0152153 Z M70.6778456,22.2820364 L70.491471,21.4599347 C69.7451827,22.2820364 68.928609,22.6887438 67.2504475,22.6887438 C65.4648836,22.7242814 64.1997473,21.0887649 64.2344951,19.1184058 L64.2731915,16.3180478 C64.3490049,11.7779299 70.5301674,13.1536275 70.5301674,9.76571549 C70.5301674,9.05891334 70.491471,8.46346215 69.6693693,8.46346215 C68.8899126,8.46346215 68.6656313,9.05891334 68.6656313,9.76571549 L68.6656313,11.1437822 L64.2731915,11.1437822 L64.2731915,9.76571549 C64.2731915,6.8255765 66.8034643,5.44750974 69.6693693,5.44750974 C73.3226282,5.44750974 74.9976308,7.49289249 74.9976308,9.72701906 L74.9976308,22.2820364 L70.6778456,22.2820364 L70.6778456,22.2820364 Z" id="Fill-2" fill="#FFFFFF"/>
                        <path d="M83.2897231,10.1740023 C83.2897231,9.42850374 82.8814362,9.02179636 82.3207329,9.02179636 C81.7252817,9.02179636 81.3185743,9.46798989 81.3185743,10.249026 L81.3185743,18.0364852 C81.3185743,18.7788249 81.7252817,19.186322 82.2836159,19.186322 C82.8814362,19.186322 83.2897231,18.7788249 83.2897231,17.9938402 L83.2897231,10.1740023 Z M87.8661683,17.8580078 C87.8661683,20.4656734 87.4215542,22.6524166 84.5185322,22.6524166 C82.8814362,22.6524166 82.0245867,22.1327788 81.3533221,21.1629988 L81.3533221,26.2290723 L77.0730231,26.2290723 L77.0730231,5.82025903 L81.3533221,5.82025903 L81.3185743,7.49289249 C82.1746341,5.96793724 83.0662314,5.48304728 84.7412341,5.48304728 C87.0867116,5.48304728 87.8693272,7.71717384 87.8693272,9.84073918 L87.8693272,17.8082552 L87.8661683,17.8580078 L87.8661683,17.8580078 Z" id="Fill-3" fill="#FFFFFF"/>
                        <polygon id="Fill-4" fill="#FFFFFF" points="89.9210277 22.2820364 94.2013267 22.2820364 94.2013267 5.85737601 89.9210277 5.85737601"/>
                        <polyline id="Fill-5" fill="#FFFFFF" points="104.699905 22.2559756 101.901916 14.6588396 101.238549 15.8489523 101.238549 22.2559756 96.3983363 22.2559756 96.3983363 0.578867011 101.238549 0.578867011 101.238549 7.31599452 104.326366 0.578867011 109.130252 0.578867011 104.699905 9.70016847 109.503791 22.2559756 104.699905 22.2559756"/>
                        <path d="M118.909392,10.3224703 C117.836949,9.91418343 114.967095,9.87785617 114.967095,12.5210593 L114.967095,22.2820364 L110.684427,22.2820364 L110.684427,5.85737601 L114.670949,5.85737601 L114.630673,7.60582289 C116.12088,5.48304728 117.720069,5.44514057 118.875434,5.44514057 L118.875434,10.3224703 L118.909392,10.3224703" id="Fill-6" fill="#FFFFFF"/>
                        <path d="M126.454407,9.50273771 C126.454407,8.83384227 126.158261,8.4618827 125.562809,8.4618827 C124.929451,8.4618827 124.629357,8.83384227 124.629357,9.50273771 L124.629357,11.7368643 L126.490734,11.7368643 L126.454407,9.50273771 Z M130.955828,18.1423081 C130.955828,21.4157102 128.689323,22.6879541 125.599137,22.6879541 C122.770349,22.6879541 120.236127,21.3090976 120.236127,18.0736022 L120.236127,10.3982837 C120.236127,7.27019059 122.13778,5.52095399 125.599137,5.52095399 C128.427925,5.52095399 130.959777,6.67473939 130.959777,10.4393493 L130.959777,14.7630831 L124.668843,14.7630831 L124.668843,18.7030115 C124.668843,19.3758555 124.964199,19.7493945 125.599137,19.7493945 C126.232494,19.7493945 126.52943,19.3758555 126.52943,18.7030115 L126.52943,16.2872486 L130.959777,16.2872486 L130.959777,18.1794251 L130.955828,18.1423081 L130.955828,18.1423081 Z" id="Fill-7" fill="#FFFFFF"/>
                        <path d="M139.39244,10.0634411 C139.39244,9.31873223 138.987312,8.90570707 138.390281,8.94677267 C137.79562,8.94677267 137.384964,9.35584922 137.384964,10.0997683 L137.420501,17.9267137 C137.420501,18.6658945 137.832737,19.0733916 138.390281,19.0733916 C138.987312,19.0733916 139.39244,18.6311467 139.39244,17.8824892 L139.39244,10.0634411 Z M139.39244,22.2820364 L139.39244,20.600716 C138.987312,22.052227 137.646362,22.6145098 136.044804,22.6145098 C133.399231,22.6145098 132.878804,20.3780141 132.878804,18.2970938 L132.878804,10.3224703 C132.878804,7.71717384 133.512162,5.44750974 136.153785,5.44750974 C137.682689,5.44750974 138.874381,6.1171949 139.39244,6.93376856 L139.39244,0.607297041 L143.677477,0.607297041 L143.677477,22.2820364 L139.39244,22.2820364 L139.39244,22.2820364 Z" id="Fill-8" fill="#FFFFFF"/>
                        <polygon id="Fill-9" fill="#FFFFFF" points="145.719701 22.3049384 150 22.3049384 150 5.87790881 145.719701 5.87790881"/>
                        <g id="Group-13">
                            <mask id="mask-2" fill="white">
                                <use xlink:href="#path-1"/>
                            </mask>
                            <g id="Clip-11"/>
                            <polyline id="Fill-10" fill="#FFFFFF" mask="url(#mask-2)" points="61.1648415 12.8914394 61.1648415 22.2820364 56.3230494 22.2820364 56.3230494 12.8914394 52.0767084 0.607297041 57.2170159 0.607297041 58.7435506 6.63762241 60.3064126 0.607297041 65.4451406 0.607297041 61.1648415 12.8914394"/>
                            <path d="M50.4285564,8.42950405 C47.6613667,0.462777719 39.7246499,0.0197430768 38.9080762,0.00236916921 C35.3614299,-0.0655470148 31.437296,1.16405181 28.4505633,4.08602717 C27.2541329,5.16084027 26.3941245,6.41018216 25.4922607,7.76376751 L25.4891018,7.7669264 L25.4875224,7.76376751 C24.5888175,6.41018216 23.7295988,5.16084027 22.5307992,4.08602717 C19.545646,1.16405181 15.6183532,-0.0655470148 12.0756555,0.00236916921 C11.2582921,0.0197430768 3.32473413,0.462777719 0.555175319,8.42950405 C-0.434347689,11.2764557 -0.21085606,14.9794672 1.2667158,17.6890071 C2.72691376,20.8234179 6.21827946,23.3742234 9.90233758,23.1080868 C12.5763399,23.0401706 15.4959461,21.3343687 16.5723386,18.6106139 C17.4765715,16.1593135 17.1970096,13.5390123 15.1145098,11.4336106 C15.1674213,11.9722017 15.191113,12.7105928 14.6619985,13.40318 C13.8209435,14.5648626 12.4926293,14.8491629 11.1185111,14.355586 C9.90470675,13.805149 9.44903654,12.9261872 9.57144361,11.7645046 C9.65831315,10.7741919 10.4496157,10.0168474 11.2732968,9.64409814 C12.8859113,8.94677267 14.3729599,9.29898915 15.8252606,10.6873223 C18.2062757,13.3463199 18.4850479,17.3818048 19.6127725,20.4380331 C20.4135516,22.953301 21.6802675,25.1416237 24.4593029,25.7718227 C24.7965147,25.8452669 25.1416237,25.8823839 25.4875224,25.8823839 L25.4922607,25.8823839 C25.842108,25.8823839 26.1856376,25.8452669 26.5228493,25.7718227 C29.3018848,25.1416237 30.5701801,22.953301 31.3693798,20.4380331 C32.4978941,17.3818048 32.777456,13.3463199 35.1568916,10.6873223 C36.6099821,9.29898915 38.0962409,8.94677267 39.7064863,9.64409814 C40.5317469,10.0168474 41.3246288,10.7741919 41.4107086,11.7645046 C41.5315363,12.9261872 41.0766558,13.805149 39.8644309,14.355586 C38.4911025,14.8491629 37.1619985,14.5648626 36.3225229,13.40318 C35.7934084,12.7105928 35.8178899,11.9722017 35.8676424,11.4336106 C33.7827735,13.5390123 33.5055807,16.1593135 34.4098136,18.6106139 C35.4877856,21.3343687 38.4050226,23.0401706 41.0806044,23.1080868 C44.7638728,23.3742234 48.2583974,20.8234179 49.7154365,17.6890071 C51.193798,14.9794672 51.4180794,11.2764557 50.4285564,8.42950405 M44.8333684,17.931452 C43.1504686,19.4153417 40.9052859,19.8473202 39.0818153,19.032326 C37.9888386,18.5071602 37.1904286,17.5476466 36.9471939,16.5597031 C38.4776772,18.085448 41.2417079,18.8570075 43.7727703,16.1893229 C43.7727703,16.1893229 46.1466779,13.9915236 44.8009898,9.8517953 C44.1320943,7.80483311 41.6199853,6.10140044 39.5351164,5.88975466 C36.4251869,5.38907023 33.4858376,6.44887859 31.4562493,9.29661999 C29.0602295,12.9972623 28.7569759,17.1227756 27.0203749,21.2388123 C26.7265979,21.9171844 26.1145625,22.2117511 25.4922607,22.1817416 L25.4875224,22.1817416 C24.8691692,22.2117511 24.2547647,21.9171844 23.9617774,21.2388123 C22.2243866,17.1227756 21.9250816,12.9972623 19.5274824,9.29661999 C17.4955249,6.44887859 14.5585448,5.38907023 11.4454565,5.88975466 C9.36374645,6.10140044 6.85163736,7.80483311 6.18353164,9.8517953 C4.83547436,13.9915236 7.21096136,16.1893229 7.21096136,16.1893229 C9.74281352,18.8570075 12.5060545,18.085448 14.0381173,16.5597031 C13.7948826,17.5476466 12.9941034,18.5071602 11.8995472,19.032326 C10.0744972,19.8473202 7.83326314,19.4153417 6.14720438,17.931452 C3.6627356,15.4667263 3.29077603,12.2991471 4.27398126,9.38506897 C5.46567337,5.84237128 9.05101611,4.06628409 11.8995472,3.84200274 C15.2724545,3.54506686 19.9286617,5.61414131 21.7860903,9.14183426 C22.2188586,9.95682847 23.1278298,12.0622302 23.1278298,12.0622302 L25.4891018,12.0606507 L27.8551121,12.0622302 C27.8551121,12.0622302 28.7617142,9.95682847 29.1984311,9.14183426 C31.0558597,5.61414131 35.7096978,3.54506686 39.0818153,3.84200274 C41.9319259,4.06628409 45.5156892,5.84237128 46.7105402,9.38506897 C47.6945351,12.2991471 47.3186269,15.4667263 44.8333684,17.931452" id="Fill-12" fill="#FFFFFF" mask="url(#mask-2)"/>
                        </g>
                    </g>
                </g>
            </g>
        </g>
    </g>
</svg>